<svg width="35" height="35" viewBox="0 0 35 36" fill="none" xmlns="http://www.w3.org/2000/svg"><path d="M17.5 10.6685C16.9337 10.6685 16.4746 10.1945 16.4746 9.60994V7.51067C16.4746 6.92609 16.9337 6.45215 17.5 6.45215C18.0663 6.45215 18.5254 6.92609 18.5254 7.51067V9.60994C18.5254 10.1945 18.0664 10.6685 17.5 10.6685Z" fill="#5F69E2"></path><path d="M31.1755 19.5664H3.82422C3.25793 19.5664 2.79883 20.0403 2.79883 20.6249V33.0143C2.79883 33.5988 3.25793 34.0728 3.82422 34.0728H31.1754C31.7417 34.0728 32.2008 33.5988 32.2008 33.0143V20.6249C32.2009 20.0403 31.7418 19.5664 31.1755 19.5664Z" fill="#FFE377"></path><path d="M31.1756 19.5664H17.5V34.0728H31.1756C31.7419 34.0728 32.201 33.5988 32.201 33.0143V20.6249C32.201 20.0403 31.7419 19.5664 31.1756 19.5664Z" fill="#FFCC00"></path><path d="M9.24023 10.6685C8.67395 10.6685 8.21484 10.1945 8.21484 9.60994V7.51067C8.21484 6.92609 8.67395 6.45215 9.24023 6.45215C9.80652 6.45215 10.2656 6.92609 10.2656 7.51067V9.60994C10.2656 10.1945 9.80659 10.6685 9.24023 10.6685Z" fill="#5F69E2"></path><path d="M25.7598 10.6685C25.1935 10.6685 24.7344 10.1945 24.7344 9.60994V7.51067C24.7344 6.92609 25.1935 6.45215 25.7598 6.45215C26.3261 6.45215 26.7852 6.92609 26.7852 7.51067V9.60994C26.7852 10.1945 26.3261 10.6685 25.7598 10.6685Z" fill="#3440DA"></path><path d="M27.4705 2.1342C27.0028 1.23551 26.5419 0.479721 26.5225 0.447966C26.4412 0.314967 26.3287 0.205385 26.1953 0.129443C26.0619 0.0535006 25.912 0.0136719 25.7597 0.0136719C25.6074 0.0136719 25.4575 0.0535006 25.3241 0.129443C25.1907 0.205385 25.0782 0.314967 24.9969 0.447966C24.9775 0.479721 24.5166 1.23551 24.0489 2.1342C23.1417 3.87773 23.0254 4.57558 23.0254 4.98875C23.0254 6.54556 24.252 7.81212 25.7598 7.81212C27.2675 7.81212 28.4941 6.54556 28.4941 4.98875C28.4941 4.57551 28.3777 3.87773 27.4705 2.1342Z" fill="#FFCC00"></path><path d="M17.5001 6.45215L17.5 10.6685C18.0663 10.6685 18.5254 10.1945 18.5254 9.60994V7.51067C18.5255 6.92609 18.0664 6.45215 17.5001 6.45215Z" fill="#3440DA"></path><path d="M18.2628 0.447966C18.1815 0.314967 18.0689 0.205385 17.9355 0.129443C17.8021 0.0535006 17.6523 0.0136719 17.4999 0.0136719C17.3476 0.0136719 17.1978 0.0535006 17.0644 0.129443C16.931 0.205385 16.8184 0.314967 16.7371 0.447966C16.7177 0.479721 16.2568 1.23551 15.7892 2.1342C14.8819 3.87773 14.7656 4.57558 14.7656 4.98875C14.7656 6.54556 15.9923 7.81212 17.5 7.81212C19.0077 7.81212 20.2344 6.54556 20.2344 4.98875C20.2344 4.57558 20.118 3.87773 19.2108 2.1342C18.743 1.23558 18.2822 0.479721 18.2628 0.447966Z" fill="#FFE377"></path><path d="M19.2108 2.13449C18.7431 1.23581 18.2822 0.48002 18.2628 0.448264C18.1816 0.315255 18.069 0.205663 17.9356 0.129711C17.8022 0.0537588 17.6523 0.0139218 17.5 0.013916V7.81242C19.0077 7.81242 20.2344 6.54586 20.2344 4.98905C20.2343 4.57581 20.118 3.87803 19.2108 2.13449Z" fill="#FFCC00"></path><path d="M33.9746 35.0138H1.02539C0.459102 35.0138 0 34.5398 0 33.9553C0 33.3707 0.459102 32.8967 1.02539 32.8967H33.9746C34.5409 32.8967 35 33.3707 35 33.9553C35 34.5398 34.5409 35.0138 33.9746 35.0138Z" fill="#E5E5E5"></path><path d="M33.9746 32.8967H17.5V35.0138H33.9746C34.5409 35.0138 35 34.5398 35 33.9553C35 33.3707 34.5409 32.8967 33.9746 32.8967Z" fill="#D6D6D6"></path><path d="M18.9845 9.5271H16.0158C15.3254 9.5271 14.7658 10.1048 14.7658 10.8175V18.9931C14.7658 19.7058 15.3254 20.2835 16.0158 20.2835H18.9845C19.6748 20.2835 20.2345 19.7058 20.2345 18.9931V10.8175C20.2345 10.1048 19.6748 9.5271 18.9845 9.5271ZM10.7245 9.5271H7.75588C7.06552 9.5271 6.50586 10.1048 6.50586 10.8175V18.9931C6.50586 19.7058 7.06552 20.2835 7.75588 20.2835H10.7245C11.4149 20.2835 11.9745 19.7058 11.9745 18.9931V10.8175C11.9745 10.1048 11.4149 9.5271 10.7245 9.5271Z" fill="#989EEC"></path><path d="M27.2442 9.5271H24.2756C23.5852 9.5271 23.0256 10.1048 23.0256 10.8175V18.9931C23.0256 19.7058 23.5852 20.2835 24.2756 20.2835H27.2442C27.9346 20.2835 28.4942 19.7058 28.4942 18.9931V10.8175C28.4943 10.1048 27.9346 9.5271 27.2442 9.5271ZM18.9843 9.5271H17.5V20.2836H18.9843C19.6747 20.2836 20.2344 19.7059 20.2344 18.9931V10.8175C20.2344 10.1048 19.6747 9.5271 18.9843 9.5271Z" fill="#7C83E7"></path><path d="M30.193 17.5369H4.80608C3.22869 17.5369 1.94531 18.7466 1.94531 20.2336V22.9626C1.94531 23.7048 2.29176 24.3975 2.89578 24.8633C3.57896 25.3901 4.48787 25.5515 5.32698 25.2949L7.91548 24.5038C9.41132 24.0467 11.0589 24.0468 12.5546 24.5038L14.5978 25.1282C15.5335 25.4142 16.5163 25.5571 17.4995 25.5571C18.4824 25.557 19.4657 25.4141 20.4011 25.1282L22.4443 24.5038C23.9401 24.0466 25.5876 24.0467 27.0834 24.5038L29.6719 25.2949C30.5111 25.5512 31.42 25.3899 32.1031 24.8633C32.7072 24.3975 33.0535 23.7048 33.0535 22.9626V20.2336C33.0538 18.7466 31.7704 17.5369 30.193 17.5369Z" fill="#FFA1C0"></path><path d="M30.1935 17.5369H17.5V25.557C18.4829 25.557 19.4662 25.4141 20.4016 25.1281L22.4448 24.5037C23.9407 24.0465 25.5881 24.0467 27.084 24.5037L29.6725 25.2948C30.5116 25.5512 31.4206 25.3898 32.1036 24.8633C32.7077 24.3974 33.0541 23.7047 33.0541 22.9625V20.2335C33.0542 18.7466 31.7709 17.5369 30.1935 17.5369Z" fill="#FF80A9"></path><path d="M10.0031 0.447966C9.92185 0.314967 9.80926 0.205385 9.67587 0.129443C9.54248 0.0535006 9.39263 0.0136719 9.2403 0.0136719C9.08797 0.0136719 8.93812 0.0535006 8.80473 0.129443C8.67134 0.205385 8.55876 0.314967 8.47748 0.447966C8.45807 0.479721 7.99719 1.23551 7.52954 2.1342C6.62221 3.8778 6.50586 4.57558 6.50586 4.98883C6.50586 6.54563 7.7325 7.81219 9.24023 7.81219C10.748 7.81219 11.9746 6.54563 11.9746 4.98883C11.9746 4.57565 11.8583 3.8778 10.9511 2.13427C10.4834 1.23558 10.0225 0.479721 10.0031 0.447966Z" fill="#FFE377"></path></svg>