<svg width="80" height="80" viewBox="0 0 80 80" fill="none" xmlns="http://www.w3.org/2000/svg">
<g clip-path="url(#clip0_167_7770)">
<mask id="mask0_167_7770" style="mask-type:luminance" maskUnits="userSpaceOnUse" x="0" y="0" width="80" height="80">
<path d="M0 0.000236511H79.9998V80H0V0.000236511Z" fill="white"/>
</mask>
<g mask="url(#mask0_167_7770)">
<path d="M62.6447 55.3252H17.3516V38.5931C17.3516 34.9412 20.312 31.9809 23.9637 31.9809H56.0325C59.6842 31.9809 62.6447 34.9412 62.6447 38.5931V55.3252Z" fill="#FFF3A7"/>
<path d="M56.0351 31.9809H49.7852C53.437 31.9809 56.3973 34.9412 56.3973 38.5931V55.3252H62.6473V38.5931C62.6473 34.9412 59.687 31.9809 56.0351 31.9809Z" fill="#FCE65B"/>
<path d="M70.377 73.5215H9.625V59.5018C9.625 55.85 12.5855 52.8897 16.2373 52.8897H63.7647C67.4165 52.8897 70.377 55.85 70.377 59.5018V73.5215Z" fill="#FFF3A7"/>
<path d="M63.7617 52.8897H57.5117C61.1636 52.8897 64.124 55.85 64.124 59.5018V73.5215H70.374V59.5018C70.374 55.85 67.4136 52.8897 63.7617 52.8897Z" fill="#FCE65B"/>
<path d="M63.7647 52.8895H16.2373C12.5855 52.8895 9.625 55.8498 9.625 59.5017V59.5447C14.6875 59.5447 14.6875 67.7764 19.7501 67.7764C24.8125 67.7764 24.8125 59.5447 29.8748 59.5447C34.9373 59.5447 34.9373 67.7764 39.9998 67.7764C45.0626 67.7764 45.0626 59.5447 50.1252 59.5447C55.1881 59.5447 55.1881 67.7764 60.2513 67.7764C65.3141 67.7764 65.3141 59.5447 70.377 59.5447V59.5017C70.377 55.8498 67.4165 52.8895 63.7647 52.8895Z" fill="#F54C5A"/>
<path d="M63.7617 52.8897H57.5117C61.1636 52.8897 64.124 55.85 64.124 59.5018V65.4751C65.9254 63.0398 67.075 59.5448 70.374 59.5448V59.5018C70.374 55.85 67.4136 52.8897 63.7617 52.8897Z" fill="#EB3443"/>
<path d="M24.9242 44.9678C28.6923 44.9678 28.6923 38.8404 32.4606 38.8404C36.229 38.8404 36.229 44.9678 39.9973 44.9678C43.7657 44.9678 43.7657 38.8404 47.5341 38.8404C51.3027 38.8404 51.3027 44.9678 55.0714 44.9678C58.84 44.9678 58.84 38.8404 62.6088 38.8404H62.6447V38.5931C62.6447 34.9412 59.6844 31.9809 56.0325 31.9809H23.9639C20.3119 31.9809 17.3516 34.9412 17.3516 38.5931V38.8404H17.3877C21.1559 38.8404 21.1559 44.9678 24.9242 44.9678Z" fill="#F54C5A"/>
<path d="M56.0351 31.9809H49.7852C53.437 31.9809 56.3973 34.9412 56.3973 38.593V44.6694C58.9092 43.4426 59.345 38.8404 62.6114 38.8404H62.6473V38.593C62.6473 34.9412 59.687 31.9809 56.0351 31.9809Z" fill="#EB3443"/>
<path d="M43.1851 8.13483C43.1851 9.8917 41.7586 11.3159 39.9987 11.3159C38.2391 11.3159 36.8125 9.8917 36.8125 8.13483C36.8125 6.37781 39.9987 1.17204 39.9987 1.17204C39.9987 1.17204 43.1851 6.37781 43.1851 8.13483Z" fill="#FFDB63"/>
<path d="M44.2789 31.981H35.7188V17.6716H44.2789V31.981Z" fill="#8FE0FF"/>
<path d="M44.2134 27.166H35.7891V22.4862H44.2134V27.166Z" fill="#BDEDFF"/>
<path d="M73.5213 78.8281H6.47842C3.54765 78.8281 1.17188 76.4524 1.17188 73.5216H78.8279C78.8279 76.4524 76.4521 78.8281 73.5213 78.8281Z" fill="#BDEDFF"/>
<path d="M19.7296 63.4512C21.2377 63.4512 21.2402 61.1074 19.7296 61.1074C18.2217 61.1074 18.219 63.4512 19.7296 63.4512Z" fill="#060606"/>
<path d="M39.9992 63.4512C41.5073 63.4512 41.5098 61.1074 39.9992 61.1074C38.4912 61.1074 38.4885 63.4512 39.9992 63.4512Z" fill="#060606"/>
<path d="M60.2687 63.4512C61.7767 63.4512 61.7792 61.1074 60.2687 61.1074C58.7606 61.1074 58.7581 63.4512 60.2687 63.4512Z" fill="#060606"/>
<path d="M24.9289 41.3525C26.4369 41.3525 26.4395 39.0088 24.9289 39.0088C23.4208 39.0088 23.4183 41.3525 24.9289 41.3525Z" fill="#060606"/>
<path d="M39.9992 41.3525C41.5073 41.3525 41.5098 39.0088 39.9992 39.0088C38.4912 39.0088 38.4885 41.3525 39.9992 41.3525Z" fill="#060606"/>
<path d="M55.0734 41.3525C56.5813 41.3525 56.584 39.0088 55.0734 39.0088C53.5654 39.0088 53.5628 41.3525 55.0734 41.3525Z" fill="#060606"/>
<path d="M55.2581 12.9604C55.8514 12.9604 56.4328 12.3631 56.4302 11.7834L56.4219 9.9314C56.4153 8.45999 54.0713 8.39734 54.0781 9.94186L54.0864 11.7937C54.0878 12.1036 54.2118 12.4003 54.4314 12.619C54.651 12.8376 54.9483 12.9604 55.2581 12.9604Z" fill="#060606"/>
<path d="M50.3478 14.3772C51.4238 15.4416 53.0741 13.7779 51.9964 12.7113L50.6789 11.4076C49.6019 10.3419 47.9535 12.0077 49.0303 13.0735L50.3478 14.3772Z" fill="#060606"/>
<path d="M47.6716 18.8501H47.6769L49.5318 18.8418C51.0119 18.8353 50.9691 16.4981 49.5215 16.4981L47.6666 16.5064C46.1543 16.5131 46.1601 18.8501 47.6716 18.8501Z" fill="#060606"/>
<path d="M50.4542 20.9239L49.1485 22.2392C48.0811 23.3139 49.7433 24.9667 50.8116 23.8905L52.1175 22.5752C53.1852 21.5002 51.5216 19.8483 50.4542 20.9239Z" fill="#060606"/>
<path d="M58.6709 20.8137C58.4523 21.0346 58.3304 21.3333 58.332 21.6441C58.3337 21.9549 58.4587 22.2523 58.6796 22.4709L59.997 23.7746C61.0729 24.8392 62.7234 23.1753 61.6455 22.1087C61.0762 21.3521 59.6477 19.8268 58.6709 20.8137Z" fill="#060606"/>
<path d="M59.9766 17.5169C59.9792 18.0978 60.5617 18.6836 61.1536 18.6836L63.0084 18.6753C64.4886 18.6688 64.4458 16.3316 62.9981 16.3316L61.1433 16.3399C60.9894 16.3405 60.8371 16.3715 60.6952 16.431C60.5533 16.4905 60.4245 16.5774 60.3161 16.6867C60.2078 16.796 60.122 16.9256 60.0638 17.068C60.0055 17.2105 59.9759 17.363 59.9766 17.5169Z" fill="#060606"/>
<path d="M59.393 14.604C59.6944 14.604 59.9955 14.4885 60.2246 14.2578L61.5304 12.9424C62.5978 11.8671 60.9343 10.2157 59.8671 11.2912L58.5615 12.6065C57.8694 13.3035 58.4116 14.604 59.393 14.604Z" fill="#060606"/>
<path d="M24.5824 4.70215C25.1756 4.70215 25.757 4.10481 25.7544 3.52512L25.7461 1.67309C25.7395 0.201693 23.3955 0.139037 23.4024 1.68356L23.4106 3.53543C23.412 3.84531 23.536 4.14203 23.7556 4.36069C23.9752 4.57934 24.2725 4.70211 24.5824 4.70215Z" fill="#060606"/>
<path d="M19.672 6.11844C20.748 7.18282 22.3983 5.51907 21.3206 4.45251L20.0031 3.14877C18.9263 2.08299 17.2777 3.74892 18.3545 4.8147L19.672 6.11844Z" fill="#060606"/>
<path d="M16.9958 10.5918H17.0012L18.856 10.5835C20.3361 10.577 20.2933 8.23977 18.8457 8.23977L16.9908 8.24805C15.4785 8.25477 15.4843 10.5918 16.9958 10.5918Z" fill="#060606"/>
<path d="M19.7782 12.6656L18.4726 13.9809C17.4055 15.0558 19.0674 16.7084 20.1357 15.6322L21.4415 14.3169C22.509 13.2417 20.8454 11.5901 19.7782 12.6656Z" fill="#060606"/>
<path d="M27.9952 12.5554C27.8869 12.6648 27.8013 12.7944 27.7431 12.9369C27.685 13.0794 27.6555 13.232 27.6563 13.3859C27.6571 13.5397 27.6882 13.692 27.7479 13.8338C27.8075 13.9757 27.8945 14.1044 28.004 14.2126L29.3213 15.5162C30.3969 16.5811 32.0479 14.9167 30.9699 13.8503L29.6524 12.5467C29.543 12.4384 29.4134 12.3528 29.2709 12.2946C29.1284 12.2365 28.9759 12.2069 28.822 12.2078C28.6681 12.2086 28.5159 12.2397 28.374 12.2993C28.2322 12.359 28.1034 12.446 27.9952 12.5554Z" fill="#060606"/>
<path d="M29.3008 9.25858C29.3022 9.56846 29.4262 9.86518 29.6458 10.0838C29.8654 10.3025 30.1626 10.4253 30.4725 10.4253H30.4778L32.3327 10.417C33.8128 10.4104 33.77 8.07327 32.3223 8.07327L30.4675 8.08155C30.3136 8.08221 30.1613 8.11317 30.0194 8.17268C29.8775 8.23219 29.7487 8.31908 29.6403 8.42838C29.532 8.53768 29.4462 8.66726 29.388 8.8097C29.3297 8.95215 29.3001 9.10468 29.3008 9.25858Z" fill="#060606"/>
<path d="M28.7134 6.3457C29.0146 6.3457 29.3159 6.23023 29.5449 5.99945L30.8509 4.68415C31.9185 3.60899 30.2546 1.95712 29.1876 3.0329L27.8818 4.34821C27.1896 5.04524 27.7321 6.3457 28.7134 6.3457Z" fill="#060606"/>
<path d="M73.5213 77.6563H6.47842C4.60546 77.6563 3.01921 76.4044 2.51281 74.6935H57.2644C58.7795 74.6935 58.7795 72.3497 57.2644 72.3497H10.7957V60.9254C11.5328 61.2593 12.3593 62.114 13.6881 64.2746C15.0354 66.4655 16.5626 68.9486 19.7488 68.9486C22.9351 68.9486 24.4621 66.4655 25.8095 64.2746C27.1707 62.0608 28.1237 60.7168 29.8735 60.7168C31.041 60.7168 31.8971 60.9562 33.9379 64.2746C35.2852 66.4655 36.8124 68.9486 39.9986 68.9486C43.185 68.9486 44.7122 66.4655 46.0595 64.2746C47.4211 62.0608 48.3741 60.7168 50.1241 60.7168C51.2916 60.7168 52.1478 60.9562 54.1887 64.2747C55.5364 66.4655 57.0636 68.9486 60.25 68.9486C63.4365 68.9486 64.9636 66.4655 66.3111 64.2747C67.3354 62.6093 68.1287 61.4365 69.204 60.9574V72.3497H63.1993C61.6842 72.3497 61.6842 74.6935 63.1993 74.6935H77.487C76.9806 76.4044 75.3943 77.6563 73.5213 77.6563ZM16.2362 54.0616H63.7636C66.4271 54.0616 68.6482 55.9862 69.1131 58.5174C66.7595 59.0754 65.4704 61.1679 64.3147 63.0469C62.9531 65.2607 62.0001 66.6049 60.25 66.6049C59.0825 66.6049 58.2262 66.3654 56.1853 63.0468C54.8378 60.8562 53.3105 58.373 50.1241 58.373C46.9377 58.373 45.4105 60.8562 44.0632 63.0469C42.7016 65.2607 41.7486 66.6049 39.9986 66.6049C38.8311 66.6049 37.9752 66.3654 35.9343 63.0469C34.5869 60.8562 33.0599 58.373 29.8735 58.373C26.6873 58.373 25.1602 60.8562 23.8129 63.0469C22.4515 65.2607 21.4987 66.6049 19.7488 66.6049C18.5815 66.6049 17.7254 66.3654 15.6846 63.0469C14.529 61.168 13.2401 59.0754 10.8867 58.5174C11.3515 55.9862 13.5726 54.0616 16.2362 54.0616ZM23.9656 33.153H56.0342C58.7761 33.153 61.0493 35.1922 61.4204 37.8333C59.6575 38.3434 58.6669 39.952 57.8436 41.2904C56.8881 42.8439 56.2431 43.796 55.0733 43.796C53.9031 43.796 53.2581 42.8439 52.3027 41.2903C51.3103 39.6768 50.0752 37.6687 47.5358 37.6687C44.9966 37.6687 43.7616 39.6768 42.7692 41.2904C41.8136 42.8439 41.1688 43.796 39.9989 43.796C38.8293 43.796 38.1843 42.8439 37.229 41.2904C36.2366 39.6768 35.0016 37.6687 32.4624 37.6687C31.398 37.6687 30.4382 38.0395 29.6093 38.7709C28.473 39.7734 30.0237 41.5309 31.1599 40.5284C31.5643 40.1717 31.966 40.0125 32.4624 40.0125C33.6321 40.0125 34.2771 40.9646 35.2324 42.5181C36.2247 44.1317 37.4597 46.1398 39.9989 46.1398C42.5382 46.1398 43.7731 44.1317 44.7656 42.5181C45.7211 40.9646 46.366 40.0125 47.5358 40.0125C48.7058 40.0125 49.3508 40.9646 50.3063 42.5181C51.2986 44.1317 52.5339 46.1398 55.0733 46.1398C57.6126 46.1398 58.8476 44.1317 59.84 42.5181C60.4383 41.5456 60.9147 40.8089 61.4745 40.3939V51.7179H18.5251V40.3939C19.0848 40.8089 19.5613 41.5456 20.1593 42.5181C21.1517 44.1317 22.3867 46.1398 24.9259 46.1398C26.1691 46.1398 27.2276 45.6578 28.1615 44.6659C29.2005 43.5631 27.494 41.956 26.4552 43.059C25.9688 43.5757 25.5113 43.796 24.9259 43.796C23.7562 43.796 23.1112 42.8439 22.1559 41.2904C21.3328 39.952 20.342 38.3434 18.5793 37.8333C18.9503 35.1922 21.2237 33.153 23.9656 33.153ZM36.8916 28.3381H43.108V30.8091H36.8916V28.3381ZM43.108 21.3145H36.8916V18.8436H43.108V21.3145ZM36.8916 23.6583H43.108V25.9944H36.8916V23.6583ZM37.9854 8.1349C37.9854 6.63319 39.3129 4.741 40.0019 3.49819C40.6666 4.69319 42.2724 6.99647 41.9364 8.48771C41.4371 10.7058 37.9854 10.693 37.9854 8.1349ZM78.8279 72.3497H71.5478V59.5019C71.5478 55.2282 68.0854 51.749 63.8182 51.7193V38.5932C63.8182 34.4611 60.5814 31.072 56.5101 30.825V16.8828C56.5101 16.2355 55.9856 15.711 55.3383 15.711C55.1844 15.711 55.032 15.7412 54.8898 15.8001C54.7476 15.859 54.6184 15.9453 54.5096 16.0542C54.4008 16.163 54.3144 16.2922 54.2556 16.4344C54.1967 16.5765 54.1664 16.7289 54.1664 16.8828V30.8092H45.4517V17.6717C45.4517 17.0244 44.9272 16.4999 44.2799 16.4999H41.1528V12.3321C45.8183 11.0518 44.1627 6.37538 42.6311 3.45085C41.8257 1.91273 41.0327 0.614921 40.9993 0.56039C40.333 -0.186483 39.6668 -0.186483 39.0004 0.56039C38.9671 0.614921 38.1739 1.91273 37.3686 3.45085C35.8404 6.36897 34.1627 11.0007 38.8091 12.3213V16.4999H35.7197C35.4089 16.4999 35.1109 16.6233 34.8911 16.8431C34.6713 17.0629 34.5479 17.3609 34.5479 17.6717V30.8092H25.8334V8.62427C25.8334 7.10912 23.4896 7.10912 23.4896 8.62427V30.825C19.4184 31.072 16.1814 34.4611 16.1814 38.5932V51.7193C11.9143 51.749 8.452 55.2282 8.452 59.5019V72.3497H1.17187C0.861072 72.3497 0.563 72.4732 0.343231 72.6929C0.123463 72.9127 0 73.2108 0 73.5216C0 77.0938 2.90624 80 6.47842 80H73.5213C77.0935 80 79.9998 77.0938 79.9998 73.5216C79.9998 73.2108 79.8763 72.9127 79.6565 72.6929C79.4368 72.4732 79.1387 72.3497 78.8279 72.3497Z" fill="#060606"/>
</g>
</g>
<defs>
<clipPath id="clip0_167_7770">
<rect width="80" height="80" fill="white"/>
</clipPath>
</defs>
</svg>
