<svg width="35" height="35" viewBox="0 0 35 35" fill="none" xmlns="http://www.w3.org/2000/svg"><g clip-path="url(#clip0_3749_11470)"><mask id="mask0_3749_11470" maskUnits="userSpaceOnUse" x="0" y="0" width="35" height="35" style="mask-type: luminance;"><path d="M35 0H0V35H35V0Z" fill="white"></path></mask><g mask="url(#mask0_3749_11470)"><path d="M17.4999 0C17.2091 0 16.9201 0.00745117 16.6329 0.0221484L1.55265 11.6205C1.03339 13.2366 0.751953 14.9593 0.751953 16.748C0.751953 25.9976 8.25029 33.496 17.4999 33.496C26.7496 33.496 34.2479 25.9976 34.2479 16.748C34.2479 7.49834 26.7495 0 17.4999 0Z" fill="#FFDD40"></path><path d="M32.6974 23.6317L22.7109 6.33472C23.1748 7.55069 23.4297 8.869 23.4297 10.246V31.441C23.4304 32.1596 23.2123 32.8614 22.8044 33.4529L31.3946 28.4933C33.0942 27.5121 33.6786 25.3312 32.6974 23.6317Z" fill="#5C5C87"></path><path d="M30.5511 28.8151C30.0974 28.6713 30.0402 28.2813 30.0559 28.0254C30.0637 27.8988 29.9852 27.7799 29.865 27.7394C29.5074 27.6189 29.4253 27.3342 29.4161 27.1288C29.4099 26.9919 29.3131 26.8766 29.1784 26.8508C24.9222 26.0361 23.8237 22.2954 23.6092 21.3312C23.5987 21.2845 23.5769 21.2412 23.5456 21.2051C23.5144 21.1689 23.4747 21.1411 23.43 21.124V31.441C23.4307 32.1595 23.2126 32.8613 22.8047 33.4529L30.6858 28.9027C30.6496 28.862 30.603 28.8317 30.5511 28.8151Z" fill="#41416B"></path><path d="M31.1234 24.5403L23.4297 11.2144V30.9935L30.4859 26.9195C31.3176 26.4394 31.6036 25.3721 31.1234 24.5403Z" fill="#41416B"></path><path d="M29.4157 27.1288C29.4096 26.9919 29.3128 26.8766 29.1781 26.8508C24.9218 26.0361 23.8234 22.2954 23.6089 21.3312C23.5984 21.2845 23.5765 21.2412 23.5453 21.2051C23.514 21.1689 23.4743 21.1411 23.4297 21.124V30.9934L29.5177 27.4785C29.4453 27.3632 29.4205 27.2354 29.4157 27.1288Z" fill="#35355E"></path><path d="M22.8451 31.9425C22.7239 31.9426 22.606 31.9028 22.5097 31.8292C22.4134 31.7557 22.344 31.6524 22.3123 31.5354C22.2805 31.4185 22.2881 31.2943 22.334 31.1821C22.3799 31.0699 22.4614 30.976 22.566 30.9147L30.2074 26.4433C30.7785 26.1135 30.9739 25.3843 30.6458 24.8161L22.3674 10.5412C22.2958 10.4147 22.277 10.2651 22.3151 10.1249C22.3532 9.98468 22.445 9.86513 22.5707 9.79223C22.6964 9.71933 22.8458 9.69896 22.9864 9.73556C23.1271 9.77215 23.2476 9.86275 23.3218 9.98768L31.6007 24.2635C32.2335 25.3594 31.857 26.7648 30.7619 27.3971L23.1232 31.867C23.0389 31.9165 22.9429 31.9425 22.8451 31.9425Z" fill="#35355E"></path><path d="M29.8649 27.7394C29.5073 27.6189 29.4252 27.3342 29.416 27.1288C29.4132 27.0623 29.3883 26.9987 29.3452 26.948L22.5662 30.9148C22.4412 30.9893 22.3506 31.1102 22.3143 31.2512C22.278 31.3921 22.2989 31.5417 22.3724 31.6674C22.4459 31.793 22.5661 31.8845 22.7068 31.9219C22.8475 31.9593 22.9972 31.9396 23.1234 31.8671L30.0019 27.842C29.9682 27.7943 29.9202 27.7584 29.8649 27.7394Z" fill="#28284C"></path><path d="M16.6331 0.0222168C16.3809 0.0350684 16.1303 0.0541406 15.8812 0.0780664L14.6357 0.245068C8.45561 1.31024 3.43501 5.76174 1.55273 11.6206V31.441C1.55273 33.4035 3.14927 35.0001 5.11173 35.0001H20.0057C21.9681 35.0001 23.5647 33.4035 23.5647 31.4411V10.246C23.5647 5.616 20.6906 1.64493 16.6331 0.0222168ZM12.5587 8.64097C11.3972 8.64097 10.4556 7.69938 10.4556 6.53796C10.4556 5.37647 11.3972 4.43488 12.5587 4.43488C13.7202 4.43488 14.6617 5.37647 14.6617 6.53796C14.6617 7.69938 13.7202 8.64097 12.5587 8.64097Z" fill="#FF7186"></path><path d="M20.2326 34.992C20.2089 34.9405 20.1717 34.8964 20.1251 34.8643C19.7578 34.6138 19.7879 34.2576 19.8711 34.0124C19.9198 33.8686 19.8667 33.7062 19.7364 33.6281C19.4144 33.4351 19.3785 33.0935 19.3969 32.8647C19.4083 32.7225 19.3219 32.5926 19.1898 32.5388C17.3184 31.7778 17.1399 30.1328 17.1636 29.3789C17.1698 29.1781 16.996 29.0211 16.7961 29.0407C13.3672 29.3771 13.5202 26.1379 13.653 25.1116C13.6726 24.9597 13.5852 24.8172 13.4434 24.7595C13.1632 24.6456 13.0964 24.3505 13.0806 24.2074C13.0748 24.1518 13.0548 24.0987 13.0225 24.0532L12.1581 22.8482C12.106 22.7765 12.0276 22.7284 11.9401 22.7143C11.7423 22.6811 11.6482 22.5708 11.6043 22.4606C11.5453 22.3125 11.3838 22.2321 11.2271 22.2615L9.72497 22.5439C9.66399 22.5558 9.60089 22.5499 9.54313 22.5271C7.35057 21.6432 8.29167 19.413 8.61016 18.7858C8.63648 18.7336 8.64848 18.6753 8.64491 18.6169C8.64134 18.5585 8.62234 18.5021 8.58985 18.4535L8.32619 18.057C8.27068 17.9735 8.18031 17.9208 8.08058 17.9104C5.10735 17.5982 4.22538 15.3641 3.99494 14.5084C3.95058 14.3435 3.78781 14.2428 3.6191 14.2692C3.21407 14.3325 3.00537 14.0859 2.90413 13.8835C2.84028 13.7559 2.70288 13.6799 2.56186 13.702C1.89754 13.8062 1.65985 13.4173 1.58425 13.2257C1.57573 13.2047 1.56518 13.1847 1.55273 13.1658V31.4412C1.55294 33.4034 3.14947 35 5.11193 35H20.0059C20.0821 35 20.1576 34.9967 20.2326 34.992Z" fill="#FF4155"></path><path d="M11.4567 5.86073C11.6334 6.32086 12.0661 6.61815 12.5589 6.61815C12.7052 6.61815 12.8456 6.56002 12.9491 6.45657C13.0525 6.35312 13.1106 6.21282 13.1106 6.06653C13.1106 5.92024 13.0525 5.77994 12.949 5.6765C12.8456 5.57307 12.7053 5.51496 12.559 5.51497C12.5058 5.51497 12.4927 5.48141 12.4866 5.46527L10.906 1.34888C10.567 1.49408 10.2329 1.65048 9.9043 1.81782L11.4567 5.86073Z" fill="#C8CEFC"></path><path d="M21.7464 10.246C21.7464 5.17938 17.6244 1.05737 12.5578 1.05737C12.186 1.05737 11.8195 1.08021 11.4591 1.12334C8.49049 2.27164 5.93084 4.24094 4.0593 6.75355C3.61496 7.83083 3.36914 9.01017 3.36914 10.246V31.4411C3.36914 32.4014 4.15049 33.1827 5.1108 33.1827H20.0047C20.965 33.1827 21.7464 32.4014 21.7464 31.4411V10.246ZM12.5577 8.64096C11.3962 8.64096 10.4547 7.69937 10.4547 6.53795C10.4547 5.37645 11.3962 4.43487 12.5577 4.43487C13.7192 4.43487 14.6608 5.37645 14.6608 6.53795C14.6608 7.69937 13.7192 8.64096 12.5577 8.64096Z" fill="#FF4155"></path><path d="M19.3959 32.8648C19.4073 32.7226 19.3209 32.5926 19.1888 32.5389C17.3174 31.7779 17.1389 30.1329 17.1626 29.379C17.1688 29.1782 16.995 29.0212 16.7951 29.0408C13.3662 29.3772 13.5192 26.1379 13.652 25.1117C13.6717 24.9598 13.5842 24.8173 13.4424 24.7596C13.1622 24.6457 13.0954 24.3505 13.0796 24.2075C13.0738 24.1519 13.0538 24.0988 13.0216 24.0533L12.1571 22.8483C12.105 22.7766 12.0266 22.7285 11.9391 22.7144C11.7413 22.6811 11.6472 22.5709 11.6033 22.4607C11.5443 22.3126 11.3828 22.2322 11.2261 22.2616L9.72396 22.544C9.66299 22.5559 9.5999 22.55 9.54213 22.5272C7.34957 21.6432 8.29067 19.4131 8.60916 18.7859C8.63549 18.7337 8.64748 18.6754 8.64391 18.617C8.64034 18.5586 8.62135 18.5022 8.58886 18.4536L8.3252 18.057C8.26969 17.9736 8.17932 17.9209 8.07958 17.9105C5.10636 17.5983 4.22438 15.3642 3.99395 14.5085C3.94958 14.3436 3.78682 14.2429 3.61811 14.2693C3.52493 14.2839 3.44263 14.2815 3.36914 14.2675V31.4413C3.36914 32.4016 4.15049 33.1829 5.1108 33.1829H19.4164C19.3904 33.0699 19.3885 32.958 19.3959 32.8648Z" fill="#E80054"></path><path d="M10.1414 29.2192C9.76684 29.0621 9.59061 28.631 9.74783 28.2565L13.8945 18.3758C14.0517 18.0012 14.4828 17.825 14.8573 17.9822C15.2318 18.1394 15.4081 18.5705 15.2508 18.945L11.1042 28.8258C10.9477 29.1984 10.5178 29.3771 10.1414 29.2192ZM9.63217 23.1936C8.21631 23.1936 7.06445 21.9085 7.06445 20.329C7.06445 18.7494 8.21631 17.4644 9.63217 17.4644C11.048 17.4644 12.1999 18.7494 12.1999 20.329C12.1999 21.9085 11.048 23.1936 9.63217 23.1936ZM9.63217 18.9353C9.02739 18.9353 8.53541 19.5605 8.53541 20.329C8.53541 21.0975 9.02746 21.7226 9.63217 21.7226C10.2369 21.7226 10.7289 21.0974 10.7289 20.329C10.7289 19.5605 10.2369 18.9353 9.63217 18.9353ZM15.2324 29.9492C13.8166 29.9492 12.6647 28.6642 12.6647 27.0846C12.6647 25.5051 13.8166 24.22 15.2324 24.22C16.6483 24.22 17.8002 25.5051 17.8002 27.0846C17.8002 28.6642 16.6483 29.9492 15.2324 29.9492ZM15.2324 25.6909C14.6277 25.6909 14.1357 26.3161 14.1357 27.0846C14.1357 27.853 14.6277 28.4782 15.2324 28.4782C15.8372 28.4782 16.3292 27.853 16.3292 27.0846C16.3293 26.3162 15.8372 25.6909 15.2324 25.6909Z" fill="#E3E7FC"></path><path d="M13.4977 11.5453H11.5003C11.3555 11.543 11.2174 11.4839 11.1158 11.3807C11.0142 11.2775 10.9573 11.1385 10.9573 10.9937C10.9573 10.8489 11.0142 10.7099 11.1158 10.6067C11.2174 10.5035 11.3555 10.4444 11.5003 10.4421H13.4977C13.6425 10.4444 13.7806 10.5035 13.8822 10.6067C13.9838 10.7099 14.0407 10.8489 14.0407 10.9937C14.0407 11.1385 13.9838 11.2775 13.8822 11.3807C13.7806 11.4839 13.6425 11.543 13.4977 11.5453ZM15.1014 13.5376H9.89649C9.7517 13.5353 9.61361 13.4762 9.51202 13.373C9.41044 13.2698 9.35352 13.1308 9.35352 12.986C9.35352 12.8412 9.41044 12.7022 9.51202 12.599C9.61361 12.4958 9.7517 12.4367 9.89649 12.4344H15.1014C15.2462 12.4367 15.3843 12.4958 15.4859 12.599C15.5875 12.7022 15.6444 12.8412 15.6444 12.986C15.6444 13.1308 15.5875 13.2698 15.4859 13.373C15.3843 13.4762 15.2462 13.5353 15.1014 13.5376ZM15.1014 15.5299H9.89649C9.7517 15.5276 9.61361 15.4685 9.51202 15.3653C9.41044 15.2621 9.35352 15.1231 9.35352 14.9783C9.35352 14.8335 9.41044 14.6945 9.51202 14.5913C9.61361 14.4881 9.7517 14.4289 9.89649 14.4267H15.1014C15.2462 14.4289 15.3843 14.4881 15.4859 14.5913C15.5875 14.6945 15.6444 14.8335 15.6444 14.9783C15.6444 15.1231 15.5875 15.2621 15.4859 15.3653C15.3843 15.4685 15.2462 15.5276 15.1014 15.5299Z" fill="#FF7186"></path><path d="M22.2989 31.441V10.2459C22.2989 5.12196 18.3217 0.909521 13.2922 0.533203C11.5856 0.975043 9.95999 1.68499 8.47599 2.63655C9.69244 1.98126 11.0828 1.60891 12.5587 1.60891C17.3211 1.60891 21.1957 5.48345 21.1957 10.2459V31.441C21.1957 32.0972 20.6618 32.631 20.0056 32.631H5.11161C4.45536 32.631 3.92154 32.0971 3.92154 31.441V10.2459C3.92154 7.93358 4.8351 5.83064 6.32007 4.27882C5.00733 5.45616 3.88787 6.83259 3.00272 8.35769C2.88 8.97962 2.81826 9.61205 2.81836 10.246V31.4411C2.81836 32.7056 3.8471 33.7343 5.11161 33.7343H20.0056C21.2701 33.7343 22.2989 32.7055 22.2989 31.441Z" fill="#E80054"></path><path d="M19.7363 33.6281C19.4142 33.4351 19.3784 33.0934 19.3968 32.8646C19.4038 32.7771 19.3736 32.6943 19.3187 32.631H5.11168C4.45543 32.631 3.92161 32.0971 3.92161 31.441V14.376C3.88408 14.3344 3.83674 14.3028 3.78389 14.2841C3.73104 14.2654 3.67435 14.2602 3.61898 14.269C3.21396 14.3323 3.00525 14.0856 2.90401 13.8833C2.88308 13.842 2.85394 13.8055 2.81836 13.7759V31.441C2.81836 32.7055 3.8471 33.7342 5.11161 33.7342H19.8411C19.8154 33.6907 19.7794 33.6543 19.7363 33.6281Z" fill="#CC0053"></path><path d="M14.6363 0.244922L12.6318 5.46532C12.6256 5.48146 12.6127 5.51502 12.5594 5.51502C12.4131 5.51502 12.2728 5.57313 12.1694 5.67658C12.0659 5.78002 12.0078 5.92032 12.0078 6.06661C12.0078 6.2129 12.0659 6.3532 12.1694 6.45665C12.2728 6.56009 12.4131 6.6182 12.5594 6.6182C13.0523 6.6182 13.485 6.32091 13.6616 5.86078L15.882 0.078125C15.4648 0.118124 15.0493 0.173762 14.6363 0.244922Z" fill="#E3E7FC"></path></g></g><defs><clipPath id="clip0_3749_11470"><rect width="35" height="35" fill="white"></rect></clipPath></defs></svg>