<svg width="35" height="35" viewBox="0 0 35 35" fill="none" xmlns="http://www.w3.org/2000/svg"><path d="M35 17.5C35 27.1651 27.1651 35 17.5 35C16.6043 35.0004 15.7098 34.9325 14.8244 34.797C14.0401 34.6767 13.2648 34.5031 12.5042 34.2772C6.10299 32.3735 1.2358 26.9064 0.202891 20.1756C0.0695792 19.3028 0.00175971 18.4213 0 17.5384L0 17.5C0 7.83487 7.83487 0 17.5 0C20.1842 0 22.7279 0.604297 25.0009 1.68437C25.4238 1.8853 25.8384 2.10332 26.2436 2.33789C27.5288 3.0807 28.7147 3.9834 29.7729 5.02441C31.2264 6.4549 32.4307 8.13634 33.3156 9.99995C34.3957 12.2729 35 14.8163 35 17.5Z" fill="#FFE662"></path><path d="M30.3572 15.4465L30.0744 10.4013L29.7729 5.02445L29.7713 5.0023C29.6922 3.59293 28.5672 2.46869 27.1587 2.3894L26.2436 2.33785L25.3106 2.28583L21.7593 2.08581L16.7136 1.80219C16.4226 1.78557 16.1314 1.8307 15.8591 1.93461C15.5868 2.03853 15.3395 2.19887 15.1336 2.40512L0 17.5386C0.00178233 18.4215 0.0696247 19.303 0.202959 20.1758C1.23587 26.9064 6.10292 32.3736 12.5042 34.2773L29.7542 17.0259C29.9605 16.8201 30.1208 16.573 30.2247 16.3008C30.3286 16.0286 30.3738 15.7375 30.3572 15.4467V15.4465ZM25.4836 10.7199C24.3672 11.8363 22.5565 11.8371 21.44 10.7207C20.3228 9.60295 20.3236 7.79218 21.44 6.67573C22.5565 5.55929 24.3672 5.55847 25.485 6.67573C26.6014 7.79218 26.6006 9.60288 25.4836 10.7199Z" fill="#FFB525"></path><path d="M33.3157 9.9999L33.0129 4.6006C32.9336 3.19144 31.8085 2.067 30.4 1.9877L28.5522 1.88414L25.0009 1.68439L19.9549 1.4005C19.664 1.3841 19.3728 1.42933 19.1006 1.53323C18.8284 1.63713 18.5811 1.79736 18.3751 2.00343L0.203125 20.1757C1.35724 27.6986 7.30156 33.6429 14.8245 34.7971L32.9961 16.6247C33.2021 16.4187 33.3622 16.1716 33.4661 15.8994C33.57 15.6273 33.6153 15.3363 33.5991 15.0455L33.3157 9.9999ZM28.7252 10.3185C27.6087 11.4349 25.798 11.4357 24.6816 10.3193C23.5643 9.20146 23.5651 7.39076 24.6816 6.27432C25.798 5.15787 27.6087 5.15705 28.7266 6.27432C29.843 7.39076 29.8422 9.20146 28.7252 10.3185Z" fill="#F26065"></path><path d="M4.09775 25.5599C3.86567 25.3278 3.99624 24.9652 4.24267 24.7188L6.75919 22.2022C6.99872 21.9627 7.35391 22.1152 7.58592 22.3472C7.8543 22.6156 7.96327 22.9707 7.74561 23.1884L5.8673 25.0667L7.09298 26.2924L8.1881 25.1973C8.40569 24.9799 8.73922 25.0667 8.9713 25.299C9.16701 25.4945 9.29757 25.8282 9.05832 26.0675L7.9632 27.1626L9.83433 29.0336C10.0663 29.2657 9.89975 29.6646 9.61695 29.9474C9.33394 30.2302 8.93493 30.3971 8.70319 30.1651L4.09775 25.5599ZM8.2607 21.3825C8.07941 21.2012 8.05747 20.904 8.26794 20.6936L9.76912 19.1923C10.7628 18.1987 11.923 17.7781 13.1051 18.9602C13.9174 19.7725 14.0117 20.6065 13.6998 21.3101L16.1874 22.0281C16.2598 22.0426 16.3177 22.0861 16.3541 22.1225C16.6371 22.4052 16.5645 23.0867 16.2307 23.4204C16.0857 23.5655 15.89 23.6453 15.6579 23.5726L12.7353 22.6372L12.2565 23.1157L14.0045 24.8637C14.2365 25.0958 14.0697 25.4947 13.7869 25.7775C13.5041 26.0603 13.1051 26.2269 12.8731 25.9952L8.2607 21.3825ZM10.0375 20.8968L11.3862 22.2455L12.1043 21.5277C12.5105 21.1216 12.5904 20.7083 12.0827 20.2006C11.5748 19.693 11.1615 19.7725 10.7555 20.1787L10.0375 20.8968ZM15.9335 17.4518L17.0214 16.3642C17.239 16.1466 17.5725 16.2337 17.8046 16.4657C18.0003 16.6614 18.1309 16.9949 17.8916 17.2342L16.8037 18.322L18.0366 19.555L19.9803 17.6112C20.1979 17.3938 20.5533 17.5025 20.8217 17.7709C21.0537 18.0029 21.2059 18.3584 20.9667 18.5977L18.3847 21.1796C18.1383 21.426 17.7756 21.5566 17.5436 21.3245L12.9385 16.7193C12.7061 16.4873 12.8367 16.1246 13.0834 15.878L15.6651 13.2963C15.9046 13.0571 16.2598 13.2092 16.4918 13.4413C16.7602 13.7097 16.8691 14.0651 16.6515 14.2827L14.7078 16.2262L15.9335 17.4518ZM20.2775 13.1078L21.3654 12.0202C21.5831 11.8025 21.9166 11.8896 22.1486 12.1216C22.3444 12.3174 22.4749 12.6509 22.2357 12.8902L21.1478 13.9781L22.3807 15.2109L24.3243 13.2675C24.542 13.0498 24.8974 13.1585 25.1655 13.4269C25.3978 13.659 25.55 14.0144 25.3108 14.2536L22.7288 16.8356C22.4821 17.082 22.1197 17.2126 21.8877 16.9805L17.2826 12.3753C17.0505 12.1433 17.1808 11.7807 17.4273 11.5342L20.0092 8.95229C20.2487 8.71303 20.6039 8.86526 20.8359 9.09728C21.1043 9.36565 21.2132 9.72105 20.9956 9.93871L19.0519 11.8822L20.2775 13.1078Z" fill="white"></path></svg>