<svg width="35" height="27" viewBox="0 0 35 27" fill="none" xmlns="http://www.w3.org/2000/svg"><g clip-path="url(#clip0_3749_11444)"><path d="M29.8324 7.26489H22.6055V20.3633H34.4462V14.4677L33.0652 9.695C32.6489 8.25575 31.3307 7.26489 29.8324 7.26489Z" fill="#FF7058"></path><path d="M32.7171 14.4071L31.4864 10.1528C31.2742 9.4215 30.594 8.90967 29.832 8.90967H24.25V14.4071H32.7171Z" fill="#84DBFF"></path><path d="M32.7195 14.4049H24.248V8.90747L32.7195 14.4049Z" fill="#CDD6E0"></path><path d="M32.7171 14.4071L31.4864 10.1528C31.2742 9.4215 30.594 8.90967 29.832 8.90967H24.25L32.7171 14.4071Z" fill="#F2F2F2"></path><path d="M2.18732 0.688965H20.4178C21.6252 0.688965 22.6052 1.66813 22.6052 2.87628V20.3624H0V2.87628C0 1.6682 0.979166 0.688965 2.18732 0.688965Z" fill="#FFD15C"></path><path d="M14.8152 0.692627V6.4722L13.9694 5.62646L13.0828 6.51308L12.197 5.62646L11.3111 6.51308L10.4237 5.62646L9.52626 6.51308L8.64108 5.62646L7.78516 6.48245V0.692627H14.8152Z" fill="#F2F2F2"></path><path d="M35.001 20.3616V22.8333H0.00390625V20.3616H3.65672C4.50978 18.8305 6.15026 17.7952 8.03136 17.7952C9.90513 17.7952 11.5456 18.8305 12.406 20.3616H24.1592C25.0122 18.8305 26.6447 17.7952 28.5258 17.7952C30.4069 17.7952 32.0401 18.8305 32.9005 20.3616H35.001Z" fill="#334A5E"></path><path d="M32.0181 22.8181C32.0181 24.7473 30.4541 26.3111 28.5249 26.3111C26.5957 26.3111 25.0332 24.7473 25.0332 22.8181C25.0332 20.8889 26.5964 19.325 28.5249 19.325C30.4549 19.325 32.0181 20.8889 32.0181 22.8181Z" fill="#40596B"></path><path d="M29.9282 22.8181C29.9282 23.5932 29.2997 24.2209 28.5254 24.2209C27.7503 24.2209 27.1211 23.5932 27.1211 22.8181C27.1211 22.043 27.7496 21.4153 28.5254 21.4153C29.2997 21.4146 29.9282 22.0431 29.9282 22.8181Z" fill="#ACB3BA"></path><path d="M11.5214 22.8181C11.5214 24.7473 9.95676 26.3111 8.0283 26.3111C6.09909 26.3111 4.53516 24.7473 4.53516 22.8181C4.53516 20.8889 6.09909 19.325 8.0283 19.325C9.95676 19.325 11.5214 20.8889 11.5214 22.8181Z" fill="#40596B"></path><path d="M9.42937 22.8181C9.42937 23.5932 8.80161 24.2209 8.02655 24.2209C7.25149 24.2209 6.62305 23.5932 6.62305 22.8181C6.62305 22.043 7.25156 21.4153 8.02655 21.4153C8.80155 21.4153 9.42937 22.0431 9.42937 22.8181Z" fill="#ACB3BA"></path></g><defs><clipPath id="clip0_3749_11444"><rect width="35" height="27" fill="white"></rect></clipPath></defs></svg>