<svg width="35" height="33" viewBox="0 0 35 33" fill="none" xmlns="http://www.w3.org/2000/svg"><g clip-path="url(#clip0_3749_11432)"><path fill-rule="evenodd" clip-rule="evenodd" d="M9.30883 28.3821C8.77573 28.3821 8.28364 28.177 7.93507 27.8285L0.574208 20.4676C-0.204937 19.6885 -0.184433 18.4377 0.594712 17.6586L12.5894 5.64336C12.651 5.60236 12.7125 5.56135 12.7945 5.54084L18.5766 4.2081C18.7201 4.16709 18.8636 4.2081 18.9661 4.31062L23.7845 9.12901C24.0716 9.41606 23.7845 9.84664 23.4565 9.82614L21.2215 13.3323L21.078 16.4694C21.3856 16.4899 21.6521 16.8795 21.3651 17.1665L10.7236 27.7875C10.3545 28.177 9.84193 28.3821 9.30883 28.3821Z" fill="#4C6CB5"></path><path fill-rule="evenodd" clip-rule="evenodd" d="M18.0227 12.471C16.1569 12.471 15.1932 10.195 16.5259 8.86229C17.8587 7.52954 20.1551 8.47272 20.1551 10.3591C20.1551 11.5278 19.1914 12.471 18.0227 12.471Z" fill="#FEFEFE"></path><path fill-rule="evenodd" clip-rule="evenodd" d="M19.2321 9.5596C18.9655 9.5596 18.7605 9.27255 18.8425 9.006C23.7224 -4.73155 31.2883 2.30126 26.0599 6.44303L22.4512 8.53441C21.9796 8.80096 21.5695 8.08333 22.0411 7.81678L25.5883 5.7869C26.962 4.65919 27.1671 3.40846 26.921 2.69083C26.2444 0.742966 22.4512 1.25556 19.6217 9.29305C19.5601 9.45708 19.3961 9.5596 19.2321 9.5596Z" fill="#C8CDED"></path><path fill-rule="evenodd" clip-rule="evenodd" d="M9.39105 21.8003C9.24752 21.8003 9.08349 21.7183 9.02198 21.5543L7.56621 18.3147C7.40218 17.9251 8.0788 17.269 8.44787 17.4125L11.749 18.8068C12.2616 19.0118 11.9335 19.7704 11.4414 19.5654L8.48888 18.3147L9.78062 21.2262C9.90364 21.4928 9.69861 21.8003 9.39105 21.8003Z" fill="#FEFEFE"></path><path fill-rule="evenodd" clip-rule="evenodd" d="M8.83663 20.5291C8.46757 20.5291 8.28303 20.0985 8.54958 19.832L10.0259 18.3557C10.3949 17.9661 10.969 18.5607 10.6 18.9298L9.12369 20.4061C9.04167 20.4881 8.93915 20.5291 8.83663 20.5291ZM7.0323 23.6457C6.37618 23.6457 5.76106 23.0921 6.15064 22.7025C6.58122 22.2514 6.88877 23.1536 7.31935 22.7025C7.72943 22.3129 7.11432 21.7183 6.72474 22.1079C5.55603 23.2766 3.83371 21.4928 4.98192 20.3446C5.84308 19.4834 7.29885 20.3651 6.72474 20.9392C6.29416 21.3698 6.00711 20.4881 5.55603 20.9392C5.16645 21.3288 5.76106 21.9234 6.15064 21.5338C7.29885 20.3856 9.08268 22.1079 7.91396 23.2766C7.66792 23.5227 7.36036 23.6457 7.0323 23.6457ZM12.7324 18.5402C12.6298 18.5402 12.5273 18.4992 12.4453 18.4172L10.1079 16.0593C9.7183 15.6902 10.2924 15.0956 10.682 15.4852L12.7324 17.5356C13.327 16.9614 13.8191 16.2233 14.2291 16.6334C14.3932 16.7974 14.3932 17.064 14.2291 17.2075C13.8396 17.5971 13.0399 18.5402 12.7324 18.5402ZM15.0288 16.2233C14.7212 16.2233 12.9169 14.2754 12.5273 13.8859C12.3633 13.7218 12.3633 13.4553 12.5273 13.3118L14.1266 11.692C14.5162 11.3229 15.0903 11.897 14.7007 12.2866L13.3885 13.5988L13.9216 14.1319L15.1518 12.9017C15.5414 12.5121 16.1155 13.0862 15.7259 13.4758L14.4957 14.706L15.0288 15.2391L16.4025 13.8654C16.7716 13.4963 17.3662 14.0704 16.9766 14.4395L15.3158 16.1003C15.2543 16.1823 15.1313 16.2233 15.0288 16.2233Z" fill="#FEFEFE"></path><path fill-rule="evenodd" clip-rule="evenodd" d="M33.0308 32.2572H22.6148C21.5281 32.2572 20.6465 31.3755 20.6465 30.2683V13.2912C20.6465 13.2092 20.6875 13.1271 20.708 13.0656L23.8656 8.02169C23.9271 7.91917 24.0706 7.83716 24.2141 7.83716H31.4315C31.575 7.83716 31.7185 7.91917 31.7801 8.02169L34.9376 13.0656C34.9786 13.1271 34.9991 13.2092 34.9991 13.2912V30.2683C34.9991 31.3755 34.1175 32.2572 33.0308 32.2572Z" fill="#008EB2"></path><path fill-rule="evenodd" clip-rule="evenodd" d="M25.5268 27.2543C25.1577 27.2543 24.9732 26.8237 25.2397 26.5572L29.8326 21.9643C30.2222 21.5748 30.7963 22.1694 30.4067 22.5384L25.8138 27.1518C25.7318 27.2338 25.6293 27.2543 25.5268 27.2543ZM29.9556 28.4435C27.6387 28.4435 27.6387 24.9169 29.9556 24.9169C32.2725 24.9169 32.2725 28.4435 29.9556 28.4435ZM29.9556 27.6234C31.1858 27.6234 31.1858 25.737 29.9556 25.737C28.7049 25.737 28.7254 27.6234 29.9556 27.6234ZM25.6908 24.1788C23.3739 24.1788 23.3739 20.6521 25.6908 20.6521C28.0078 20.6521 28.0078 24.1788 25.6908 24.1788ZM25.6908 23.3586C26.9416 23.3586 26.9211 21.4723 25.6908 21.4723C24.4606 21.4723 24.4606 23.3586 25.6908 23.3586ZM27.8232 14.8905C26.6545 14.8905 25.7113 13.9474 25.7113 12.7786C25.7113 11.6099 26.6545 10.6462 27.8232 10.6462C28.9919 10.6462 29.9351 11.6099 29.9351 12.7786C29.9351 13.9474 28.9919 14.8905 27.8232 14.8905Z" fill="#FEFEFE"></path><path fill-rule="evenodd" clip-rule="evenodd" d="M22.1034 7.46826L23.1286 8.47295L22.3905 8.88302L21.6523 8.63698L21.7344 7.6733L22.1034 7.46826Z" fill="#4C6CB5"></path><path fill-rule="evenodd" clip-rule="evenodd" d="M20.6465 18.9299V16.1824H34.9991V18.9299H20.6465Z" fill="#0080A0"></path><path fill-rule="evenodd" clip-rule="evenodd" d="M27.5783 11.4869C27.4553 11.4869 27.3322 11.4254 27.2502 11.3024C21.2631 2.21917 27.1682 -0.815401 29.7312 1.46053C30.9819 2.54723 31.4535 4.96668 29.0751 8.47283C28.788 8.92391 28.1114 8.47283 28.3984 8.02174C34.4471 -0.938423 19.9919 -1.20497 27.9269 10.8513C28.1114 11.1383 27.9063 11.4869 27.5783 11.4869Z" fill="#BFC2E6"></path><path fill-rule="evenodd" clip-rule="evenodd" d="M27.9668 7.83716H29.6891V8.84184H27.9668V7.83716Z" fill="#008EB2"></path></g><defs><clipPath id="clip0_3749_11432"><rect width="35" height="33" fill="white"></rect></clipPath></defs></svg>