<svg width="120" height="105" viewBox="0 0 120 105" fill="none" xmlns="http://www.w3.org/2000/svg">
<path d="M66.038 18.5568L65.687 18.2927C64.4868 17.3896 63.4553 16.4929 62.5671 15.5147L62.6819 13.9377C63.2004 6.81919 58.2483 0.596916 51.6214 0.0400082C45.8889 -0.441673 40.7837 3.47497 39.1734 9.14844C37.5805 10.7881 36.434 12.9246 36.535 15.1337C36.6085 16.7442 35.1553 18.0877 34.1216 19.3843C33.824 19.7577 33.5025 20.178 33.1662 20.6433C31.6815 22.4052 30.7588 24.5872 30.6676 26.9873C30.5334 30.52 32.2155 33.7464 34.9525 35.9219C38.3009 38.5835 41.5581 41.3632 44.3193 44.5313C46.6291 47.1816 50.2115 48.8944 54.2574 48.8634C60.0907 48.819 65.1209 44.9359 66.1413 39.7339C66.4156 38.3352 66.38 36.9735 66.1048 35.6828C65.9566 34.9875 66.1928 34.2915 66.7256 33.7834C66.872 33.6438 67.0142 33.4989 67.151 33.348L68.0366 32.3728C71.1112 29.0217 70.8106 22.1478 66.038 18.5568Z" fill="#2D2D48"/>
<path d="M55.8191 27.0625H42.668V42.1907H55.8191V27.0625Z" fill="#FF9A7B"/>
<path d="M55.8206 42.364H42.6694C42.5802 42.364 42.5078 42.2863 42.5078 42.1904V27.0623C42.5078 26.9664 42.5802 26.8887 42.6694 26.8887H55.8206C55.9098 26.8887 55.9822 26.9664 55.9822 27.0623V42.1904C55.9822 42.2863 55.9098 42.364 55.8206 42.364ZM42.831 42.0168H55.6589V27.2359H42.831V42.0168Z" fill="#2D2D48"/>
<path opacity="0.81" d="M49.2609 31.9096C48.931 31.8818 48.6071 31.8341 48.2891 31.77C50.2235 33.0278 53.4792 34.933 55.8221 35.2026V29.625C54.0657 31.2298 51.7413 32.1179 49.2609 31.9096Z" fill="#2D2D48"/>
<path d="M59.5756 16.5023L59.4496 16.4917L58.9766 22.9866C58.9632 23.1697 58.9443 23.3507 58.9219 23.5306L59.063 23.5424C60.8729 23.6945 62.4547 22.2418 62.5963 20.2977C62.7379 18.3536 61.3855 16.6544 59.5756 16.5023Z" fill="#FF9A7B"/>
<path d="M59.3193 23.7268C59.2294 23.7268 59.1389 23.7231 59.0478 23.7154L58.9066 23.7036C58.8624 23.6999 58.8213 23.6768 58.7937 23.6397C58.7657 23.6027 58.7534 23.5548 58.7592 23.5076C58.7814 23.331 58.7997 23.153 58.8131 22.9731L59.2861 16.4784C59.2895 16.4326 59.3096 16.39 59.3423 16.3599C59.3751 16.33 59.4173 16.3152 59.46 16.3189L59.586 16.3296C61.4819 16.4888 62.9036 18.2753 62.7551 20.3115C62.6138 22.2498 61.0998 23.7268 59.3193 23.7268ZM59.1008 23.3715C60.8108 23.4981 62.299 22.1195 62.4326 20.2842C62.5662 18.4512 61.2961 16.842 59.5957 16.6786L59.1352 23.0002C59.126 23.1247 59.1146 23.2486 59.1008 23.3715Z" fill="#2D2D48"/>
<path d="M41.4273 14.9771L41.3013 14.9665C39.4914 14.8144 37.9096 16.2671 37.768 18.2112C37.6264 20.1553 38.9788 21.8545 40.7886 22.0065L40.9298 22.0183C40.9336 21.8369 40.9412 21.6549 40.9543 21.4719L41.4273 14.9771Z" fill="#FF9A7B"/>
<path d="M40.9273 22.1917C40.923 22.1917 40.9189 22.1915 40.9146 22.191L40.7735 22.1792C38.8777 22.0199 37.4561 20.2335 37.6044 18.197C37.7526 16.1608 39.4125 14.632 41.3115 14.7929L41.4376 14.8035C41.5266 14.8109 41.5932 14.8945 41.5861 14.9901L41.1131 21.4848C41.0999 21.6646 41.0924 21.8436 41.0889 22.0216C41.0879 22.0692 41.0687 22.1144 41.0357 22.1466C41.0058 22.1759 40.9672 22.1917 40.9273 22.1917ZM41.0402 15.129C39.4265 15.129 38.0545 16.4675 37.9267 18.2244C37.7929 20.0599 39.0668 21.6711 40.7709 21.8308C40.7752 21.707 40.7817 21.5829 40.7907 21.4582L41.2512 15.1366C41.1803 15.1315 41.1101 15.129 41.0402 15.129Z" fill="#2D2D48"/>
<path d="M57.4334 14.8321C53.4481 14.4971 50.1236 11.9517 48.4465 8.4209C47.0668 11.2911 44.5637 13.5643 41.4412 14.7645L41.4257 14.9769L40.9527 21.4717C40.9393 21.6548 40.9318 21.8369 40.9281 22.0182C40.8206 27.1326 44.4528 31.505 49.2593 31.9092C54.0659 32.3131 58.287 28.6006 58.9211 23.5303C58.9435 23.3505 58.9625 23.1695 58.9759 22.9864L59.4488 16.4914L59.5712 14.8112C59.5719 14.8024 59.5719 14.7936 59.5725 14.7846C58.8754 14.8728 58.1607 14.8932 57.4334 14.8321Z" fill="#FF9A7B"/>
<path d="M49.9697 32.1126C49.7295 32.1126 49.4877 32.1027 49.2442 32.0821C44.3788 31.6733 40.654 27.2509 40.7641 22.0142C40.768 21.8297 40.7757 21.6443 40.7891 21.4582L41.2776 14.7508C41.2825 14.6828 41.3244 14.624 41.3843 14.6008C44.4751 13.4129 46.9312 11.1899 48.3008 8.34105C48.3284 8.28341 48.384 8.24707 48.4443 8.24707H48.4448C48.5053 8.24707 48.5607 8.28387 48.5883 8.34174C50.3147 11.9762 53.625 14.3376 57.4437 14.6587H57.444C58.1365 14.7172 58.8452 14.7013 59.5514 14.6119C59.5992 14.6057 59.646 14.6228 59.6809 14.6575C59.7156 14.6925 59.7343 14.742 59.7317 14.7932L59.7302 14.824L59.1349 22.9996C59.1211 23.1859 59.1019 23.3704 59.0788 23.5532C58.4621 28.4849 54.5326 32.1124 49.9697 32.1126ZM41.5916 14.8895L41.5844 14.9904L41.1115 21.4853C41.0983 21.6652 41.0908 21.8441 41.0873 22.0221C40.9811 27.0748 44.5749 31.3416 49.2696 31.736C53.9628 32.1295 58.1324 28.5161 58.7586 23.5072C58.7808 23.3306 58.7994 23.1526 58.8125 22.9725L59.3945 14.9797C58.7321 15.051 58.0684 15.0598 57.4185 15.005C53.5896 14.6832 50.2572 12.3688 48.4435 8.79125C47.0273 11.5489 44.6083 13.7041 41.5916 14.8895Z" fill="#2D2D48"/>
<path d="M60.5399 25.4646C59.7467 25.4646 59.1016 24.7716 59.1016 23.9195C59.1016 23.0675 59.7467 22.3745 60.5399 22.3745C61.3331 22.3745 61.9783 23.0675 61.9783 23.9195C61.9783 24.7716 61.3329 25.4646 60.5399 25.4646ZM60.5399 22.6062C59.8657 22.6062 59.317 23.1955 59.317 23.9198C59.317 24.644 59.8657 25.2334 60.5399 25.2334C61.2142 25.2334 61.7628 24.644 61.7628 23.9198C61.7628 23.1955 61.2142 22.6062 60.5399 22.6062Z" fill="white"/>
<path d="M39.1571 23.0715C38.3639 23.0715 37.7188 22.3785 37.7188 21.5265C37.7188 20.6745 38.3639 19.9814 39.1571 19.9814C39.9503 19.9814 40.5954 20.6745 40.5954 21.5265C40.5954 22.3783 39.9503 23.0715 39.1571 23.0715ZM39.1571 20.2129C38.4829 20.2129 37.9342 20.8022 37.9342 21.5265C37.9342 22.2507 38.4829 22.8401 39.1571 22.8401C39.8313 22.8401 40.38 22.2507 40.38 21.5265C40.38 20.8022 39.8313 20.2129 39.1571 20.2129Z" fill="white"/>
<path d="M39.439 19.3184C39.3884 19.3184 39.3382 19.293 39.3069 19.2451C39.2554 19.1668 39.2729 19.0583 39.3457 19.0032L39.9685 18.531L39.339 17.9616C39.271 17.8998 39.2621 17.7903 39.3197 17.7169C39.3774 17.6435 39.4791 17.6345 39.5474 17.6961L40.2258 18.3102C40.2913 18.3696 40.3264 18.456 40.3227 18.5476C40.3188 18.6393 40.2768 18.7222 40.2074 18.7749L39.5321 19.2869C39.5037 19.3082 39.4714 19.3184 39.439 19.3184Z" fill="#2D2D48"/>
<path d="M60.8 21.113C60.7593 21.113 60.7188 21.0968 60.6876 21.0639L60.0948 20.4455C60.0336 20.3816 60.0038 20.2927 60.0135 20.2015C60.0232 20.1101 60.0708 20.0307 60.1439 19.9832L60.9026 19.4902C60.9795 19.44 61.0784 19.4668 61.1245 19.5488C61.1709 19.6309 61.1463 19.7374 61.07 19.7872L60.3658 20.2448L60.9123 20.8151C60.9763 20.882 60.9778 20.992 60.9157 21.0607C60.8841 21.0954 60.8421 21.113 60.8 21.113Z" fill="#2D2D48"/>
<path d="M48.5283 15.8818C48.3296 16.0355 48.0393 16.0735 47.7611 16.1272C47.4797 16.1751 47.1981 16.2306 46.955 16.2885C46.7113 16.3459 46.4338 16.4225 46.1597 16.5058C45.8858 16.5825 45.6061 16.6792 45.3691 16.6288C45.1407 16.5834 44.9999 16.3313 45.1788 15.9385C45.3445 15.558 45.8798 15.0603 46.6854 14.8675C47.4909 14.6791 48.1613 14.8918 48.4513 15.1645C48.7573 15.4432 48.7205 15.7367 48.5283 15.8818Z" fill="#2D2D48"/>
<path d="M53.6604 16.1162C53.8298 16.306 54.1089 16.3999 54.3735 16.5073C54.6422 16.6094 54.9096 16.7191 55.1389 16.8233C55.3688 16.9274 55.6289 17.0568 55.8842 17.1925C56.1404 17.3212 56.3992 17.4709 56.641 17.4677C56.8733 17.4675 57.0543 17.2473 56.945 16.8261C56.8466 16.4196 56.4044 15.8257 55.6448 15.4789C54.8846 15.1364 54.1895 15.2146 53.858 15.4262C53.5096 15.64 53.496 15.9358 53.6604 16.1162Z" fill="#2D2D48"/>
<path d="M50.5134 22.3205C50.4856 22.3205 50.4578 22.3198 50.4298 22.3184L49.8726 22.2892C49.7834 22.2846 49.7146 22.2031 49.7189 22.1075C49.7235 22.0117 49.806 21.9411 49.8881 21.9425L50.4453 21.9714C51.2069 22.0112 51.8505 21.3807 51.8873 20.5662C51.8914 20.4761 51.8628 20.3898 51.8063 20.3232C51.7499 20.2565 51.6727 20.2171 51.5889 20.2127C51.292 20.1972 51.0185 20.0584 50.8188 19.8218C50.6188 19.5855 50.5169 19.2795 50.5313 18.9605L50.5983 17.4828C50.6026 17.387 50.6899 17.3141 50.7675 17.318C50.8567 17.3227 50.9254 17.4041 50.9211 17.5L50.8541 18.9774C50.844 19.2038 50.9164 19.4207 51.058 19.5885C51.1997 19.7563 51.3939 19.8549 51.6044 19.8658C51.7744 19.8746 51.9313 19.954 52.0455 20.0894C52.1599 20.2248 52.2185 20.4 52.2101 20.5826C52.166 21.5587 51.4129 22.3205 50.5134 22.3205Z" fill="#2D2D48"/>
<path d="M48.1992 29.5116C48.1992 29.5116 48.7847 28.9779 49.7589 29.7049Z" fill="#F4B6B0"/>
<path d="M49.756 29.8786C49.7241 29.8786 49.692 29.8684 49.664 29.8476C48.8135 29.2129 48.3205 29.6274 48.2998 29.6453C48.231 29.7054 48.1298 29.6953 48.0727 29.6221C48.0162 29.549 48.0242 29.4411 48.0918 29.3795C48.1196 29.3545 48.7846 28.7685 49.8482 29.5629C49.9217 29.6175 49.9398 29.7258 49.8888 29.8043C49.8577 29.8524 49.8073 29.8786 49.756 29.8786Z" fill="#2D2D48"/>
<path d="M47.0204 21.8382C47.2779 21.6838 47.6002 21.7542 47.8017 21.9859C48.1687 22.4076 48.9783 23.1693 50.2 23.4075C50.5 23.4661 50.6286 23.857 50.4774 24.1415C50.1447 24.7667 49.3071 25.7034 47.7741 24.7681C45.9063 23.6283 46.3489 22.2405 47.0204 21.8382Z" fill="#FFF9F3"/>
<path d="M48.9769 25.3368C48.6132 25.3368 48.1868 25.2213 47.6918 24.9192C46.4573 24.166 46.2756 23.3434 46.2774 22.9203C46.2793 22.4106 46.539 21.9263 46.9391 21.6868C47.2569 21.4967 47.659 21.5708 47.917 21.8673C48.2766 22.2807 49.0549 23.0084 50.2263 23.2369C50.4082 23.2723 50.5586 23.3994 50.6394 23.5855C50.7286 23.791 50.7195 24.0311 50.615 24.2276C50.4461 24.5447 49.9281 25.3368 48.9769 25.3368ZM47.0966 21.9898C46.8689 22.1261 46.6023 22.452 46.6006 22.9214C46.5982 23.5214 47.0425 24.1234 47.8515 24.6171C49.2859 25.493 50.0229 24.641 50.3343 24.0554C50.386 23.9582 50.3907 23.8343 50.3465 23.7322C50.3254 23.6836 50.2743 23.5989 50.1688 23.5783C48.9058 23.332 48.068 22.549 47.681 22.1043C47.5246 21.9245 47.2843 21.877 47.0966 21.9898Z" fill="#2D2D48"/>
<path d="M55.6716 19.6274C55.636 19.6274 55.6002 19.6149 55.5705 19.5892C54.6019 18.755 53.8014 19.3952 53.7682 19.423C53.6973 19.4813 53.596 19.4672 53.5417 19.3917C53.4872 19.3161 53.4997 19.2077 53.57 19.1489C53.5801 19.1404 54.6002 18.3087 55.7726 19.3186C55.8422 19.3785 55.8536 19.4878 55.7976 19.5626C55.7659 19.6049 55.719 19.6274 55.6716 19.6274Z" fill="#2D2D48"/>
<path d="M47.6794 18.9559C47.6438 18.9559 47.608 18.9434 47.5783 18.9177C46.6095 18.0835 45.8096 18.724 45.776 18.7513C45.7051 18.8096 45.6038 18.7955 45.5495 18.7201C45.495 18.6444 45.5075 18.5358 45.5778 18.4773C45.5879 18.4687 46.6076 17.6366 47.7804 18.6469C47.85 18.7069 47.8615 18.8161 47.8054 18.8909C47.7735 18.9337 47.7266 18.9559 47.6794 18.9559Z" fill="#2D2D48"/>
<path d="M55.7393 37.5986C53.7017 37.5233 51.5566 40.5268 49.3332 40.5268C47.245 40.5268 45.1718 37.5636 43.087 37.6916C41.7864 37.7712 40.4868 37.8719 39.189 37.9888C34.8147 38.3823 30.4085 38.9596 26.2787 40.5606C19.761 43.0873 16.192 46.235 12.4829 52.573C11.6425 54.0091 1.97984 69.252 1.97984 69.252C-1.7103 75.2088 1.09873 82.8949 7.68539 84.8644L19.5137 85.3329L24.2146 73.108L23.0191 72.8055L25.0833 70.8355V105.131H74.1885V63.1765C82.373 63.1677 87.9831 63.1344 87.9839 63.0596C88.2027 43.7526 77.0975 38.3867 55.7393 37.5986Z" fill="#698BEC"/>
<path d="M74.1936 105.304H25.0884C24.9992 105.304 24.9268 105.227 24.9268 105.131V71.2222L23.3643 72.7133L24.257 72.9392C24.3031 72.9511 24.3424 72.9837 24.3637 73.0293C24.3855 73.0744 24.3874 73.1277 24.3693 73.1746L19.6683 85.3993C19.6427 85.4662 19.5761 85.5155 19.513 85.5065L7.68448 85.038C7.67177 85.0375 7.65927 85.0354 7.64698 85.032C4.39018 84.0582 1.88455 81.6577 0.772656 78.4463C-0.293122 75.3685 0.0997036 71.9824 1.8505 69.1564C1.9479 69.0025 11.522 53.8979 12.351 52.4809C16.0974 46.0794 19.7287 42.9176 26.2285 40.3976C30.4099 38.7767 34.9243 38.1989 39.1801 37.8163C40.5296 37.695 41.8424 37.5948 43.0823 37.5189C44.1985 37.4483 45.3006 38.2184 46.366 38.9614C47.3479 39.6461 48.3633 40.3541 49.3377 40.3541C50.4115 40.3541 51.4992 39.5995 52.5512 38.8697C53.6506 38.107 54.6959 37.3867 55.7492 37.4258C67.5083 37.8596 75.0019 39.6532 80.0468 43.2405C85.683 47.2486 88.258 53.5472 88.1502 63.0624C88.1477 63.2862 88.1477 63.2862 84.1608 63.3172C81.8978 63.3346 78.5987 63.3459 74.3546 63.3508V105.131C74.3552 105.227 74.2829 105.304 74.1936 105.304ZM25.25 104.957H74.032V63.1769C74.032 63.0811 74.1042 63.0033 74.1934 63.0033C84.2177 62.9924 87.2232 62.9478 87.829 62.908C87.9927 42.9748 75.6675 38.5079 55.7386 37.7726C54.7784 37.7348 53.7825 38.4288 52.7268 39.1611C51.6354 39.9183 50.5071 40.7011 49.3379 40.7011C48.2676 40.7011 47.2115 39.9646 46.1902 39.2526C45.1688 38.5401 44.1131 37.8043 43.101 37.8656C41.8639 37.9415 40.554 38.0413 39.2072 38.1626C34.9739 38.5434 30.4845 39.1172 26.3384 40.7245C19.9157 43.2144 16.3271 46.3391 12.6244 52.666C11.7922 54.0884 2.21488 69.1981 2.11835 69.3504C0.426591 72.0812 0.0460485 75.3532 1.07519 78.3252C2.14851 81.425 4.56817 83.7448 7.71508 84.6922L19.4119 85.1556L23.9976 73.2309L22.9868 72.9751C22.9282 72.9603 22.882 72.9115 22.867 72.8485C22.8523 72.7858 22.8715 72.7191 22.9163 72.6763L24.9804 70.7063C25.0282 70.6605 25.0961 70.6498 25.1541 70.6776C25.2123 70.7056 25.2493 70.7679 25.2493 70.8361V104.957H25.25Z" fill="#2D2D48"/>
<path opacity="0.81" d="M18.7652 59.8662L18.7247 59.9225L11.5352 69.8577L18.9536 69.3721L18.7652 59.8662Z" fill="#2D2D48"/>
<path d="M95.6581 35.6359C95.8695 34.0979 91.9656 32.2047 86.9385 31.4072C81.9113 30.6097 77.6646 31.21 77.4532 32.748C77.2417 34.2859 81.1456 36.1792 86.1728 36.9767C91.1999 37.7742 95.4466 37.1739 95.6581 35.6359Z" fill="#2D2D48"/>
<path d="M90.3895 37.4979C89.0473 37.4979 87.582 37.3776 86.1471 37.15C81.5944 36.4279 77.0373 34.5752 77.2914 32.7244C77.5459 30.8736 82.4072 30.5148 86.9599 31.237C89.4058 31.6249 91.6669 32.2821 93.327 33.0871C94.5427 33.6766 95.9615 34.6021 95.8156 35.6626C95.6413 36.9301 93.3061 37.4979 90.3895 37.4979ZM82.7054 31.2257C79.6749 31.2257 77.7344 31.8793 77.6112 32.7753C77.4377 34.0373 80.8454 35.9582 86.1941 36.8068C91.5432 37.6556 95.3221 36.8744 95.4956 35.6124C95.585 34.9618 94.7462 34.1567 93.1938 33.404C91.5602 32.6119 89.3293 31.9643 86.9127 31.581C85.3619 31.3347 83.9427 31.2257 82.7054 31.2257Z" fill="#2D2D48"/>
<path d="M78.9947 32.5893C78.9947 32.5893 78.1496 21.478 83.77 16.3102C84.4723 15.6647 88.6567 6.93539 88.6567 6.93539C89.765 5.0707 90.7407 4.40616 91.6578 4.53439C92.9886 4.72095 93.6327 6.56736 93.0444 8.15591L91.1783 13.1966C93.3284 14.5194 94.8823 17.2718 94.8823 17.2718C97.4609 19.6031 98.0382 23.6234 96.2333 26.6813L94.1914 30.1404L93.0983 44.3563L78.4648 42.0671L78.9947 32.5893Z" fill="#FF9A7B"/>
<path d="M93.0959 44.5293C93.0881 44.5293 93.0804 44.5289 93.0726 44.5275L78.4392 42.2383C78.356 42.2253 78.2961 42.1461 78.3011 42.0561L78.8301 32.5901C78.8001 32.1519 78.13 21.2646 83.6625 16.1779C84.2189 15.6664 87.3507 9.27515 88.5106 6.85563C89.5967 5.02682 90.6301 4.21529 91.6761 4.36204C92.245 4.44167 92.7332 4.806 93.0517 5.38813C93.4889 6.18762 93.5426 7.2725 93.192 8.21989L91.377 13.1219C93.3922 14.4223 94.8372 16.8672 95.0038 17.1568C97.615 19.536 98.2024 23.6652 96.3674 26.7738L94.3468 30.1967L93.2566 44.3701C93.253 44.418 93.2312 44.4617 93.1963 44.4916C93.1677 44.5161 93.1323 44.5293 93.0959 44.5293ZM78.6327 41.9177L92.9492 44.1574L94.0283 30.1254C94.0304 30.0974 94.0388 30.0703 94.0526 30.0467L96.0946 26.5877C97.8482 23.617 97.2812 19.6689 94.7758 17.404C94.7627 17.392 94.751 17.3774 94.7418 17.3612C94.7265 17.3339 93.1836 14.631 91.0956 13.3466C91.026 13.3036 90.996 13.2122 91.0258 13.1318L92.8918 8.0912C93.2067 7.24125 93.1612 6.2728 92.7731 5.56382C92.5066 5.07635 92.1021 4.77174 91.6347 4.70623C90.7241 4.57823 89.7953 5.33837 88.7908 7.02831C88.3684 7.91089 84.5789 15.7925 83.8728 16.4416C78.3786 21.4931 79.1453 32.4644 79.1535 32.5745C79.1542 32.5826 79.1544 32.591 79.1539 32.5991L78.6327 41.9177Z" fill="#2D2D48"/>
<path d="M96.0228 19.2885C95.8435 19.4172 95.6802 19.569 95.5257 19.7304L92.5626 22.8244C91.8256 23.594 91.8802 24.9532 92.7546 25.5337C93.3573 25.9337 94.1662 25.8672 95.3182 25.1101L98.1485 22.5823C98.9894 21.8314 99.3162 20.5528 98.8381 19.4966C98.4526 18.6448 97.6575 18.1152 96.0228 19.2885Z" fill="#FF9A7B"/>
<path d="M93.5622 25.9499C93.2331 25.9499 92.9357 25.8605 92.667 25.6823C92.235 25.3955 91.9544 24.909 91.8976 24.3477C91.8357 23.7405 92.0413 23.1248 92.4475 22.7008L95.4108 19.6068C95.5933 19.4163 95.7633 19.2651 95.9305 19.145C96.764 18.5467 97.4693 18.3256 98.0276 18.4883C98.4336 18.6066 98.7544 18.9205 98.9813 19.4216C99.4748 20.5116 99.1671 21.8974 98.2498 22.7168L95.4192 25.2446C95.4134 25.2499 95.4067 25.2548 95.4002 25.2592C94.6984 25.72 94.0897 25.9499 93.5622 25.9499ZM96.11 19.4334C95.957 19.5434 95.8064 19.6774 95.6358 19.8554L92.6724 22.9494C92.3371 23.2996 92.1676 23.8081 92.2188 24.3097C92.2658 24.7708 92.4852 25.1532 92.8371 25.3867C93.4202 25.7742 94.2006 25.6379 95.2214 24.9692L98.0429 22.4494C98.8473 21.7309 99.1195 20.5213 98.6902 19.573C98.5062 19.1661 98.2547 18.9138 97.9427 18.823C97.4796 18.6883 96.8627 18.8932 96.11 19.4334Z" fill="#2D2D48"/>
<path d="M93.7649 16.5844C93.5859 16.7131 93.4221 16.8651 93.2678 17.0265L90.3047 20.1207C89.5678 20.8903 89.6225 22.2495 90.4967 22.83C91.0994 23.2302 91.9085 23.1633 93.0605 22.4064L95.8911 19.8786C96.7319 19.1277 97.0588 17.8491 96.5804 16.7929C96.1947 15.9406 95.3994 15.4111 93.7649 16.5844Z" fill="#FF9A7B"/>
<path d="M91.3043 23.2455C90.9753 23.2455 90.6779 23.1562 90.4092 22.9777C89.9772 22.691 89.6966 22.2044 89.6397 21.6431C89.5779 21.036 89.7835 20.4205 90.1897 19.9965L93.1528 16.9022C93.3346 16.7122 93.5049 16.561 93.6727 16.4402C94.5062 15.8421 95.2117 15.6213 95.7696 15.7835C96.1755 15.9018 96.4964 16.2157 96.7233 16.7168C97.2168 17.8068 96.909 19.1926 95.9917 20.012L93.1612 22.5398C93.1553 22.5451 93.1487 22.55 93.1422 22.5544C92.4404 23.0159 91.8318 23.2455 91.3043 23.2455ZM93.8524 16.7291C93.7009 16.8379 93.5458 16.9758 93.3781 17.1513L90.4148 20.2455C90.0795 20.5957 89.91 21.104 89.9612 21.6056C90.008 22.0667 90.2276 22.4493 90.5795 22.6826C91.1626 23.0703 91.9428 22.9335 92.9638 22.2651L95.7853 19.7453C96.5897 19.0268 96.8621 17.817 96.4326 16.8689C96.2486 16.462 95.9969 16.2097 95.6851 16.1189C95.2203 15.9831 94.6042 16.1893 93.8524 16.7291Z" fill="#2D2D48"/>
<path d="M91.8792 12.672C91.6885 12.809 91.5146 12.9706 91.35 13.1423L88.197 16.4349C87.4127 17.2539 87.4708 18.7003 88.4013 19.3181C89.0424 19.7437 89.9037 19.6727 91.1293 18.8672L94.1413 16.1773C95.036 15.3783 95.384 14.0177 94.8751 12.8935C94.4648 11.9871 93.6186 11.4232 91.8792 12.672Z" fill="#FF9A7B"/>
<path d="M89.2647 19.7494C88.9165 19.7494 88.6019 19.655 88.3177 19.4663C87.8607 19.1629 87.5639 18.6481 87.5036 18.0542C87.4383 17.4116 87.6559 16.76 88.0858 16.3112L91.2388 13.0186C91.4355 12.8131 91.6109 12.6573 91.7906 12.5284C92.6748 11.8939 93.4227 11.659 94.0131 11.831C94.4424 11.9557 94.7815 12.2879 95.022 12.8182C95.545 13.9736 95.2187 15.4428 94.2461 16.3114L91.2338 19.0015C91.228 19.0069 91.2213 19.0117 91.2149 19.0161C90.4702 19.5054 89.8241 19.7494 89.2647 19.7494ZM91.9703 12.8168C91.8072 12.9339 91.6463 13.0772 91.4637 13.2674L88.3108 16.56C87.9518 16.935 87.7699 17.4794 87.8247 18.0164C87.8749 18.5106 88.1102 18.9205 88.4875 19.171C89.1122 19.5858 89.9463 19.4402 91.0362 18.7263L94.0392 16.0446C94.8988 15.2768 95.1899 13.9838 94.7309 12.9702C94.5335 12.5341 94.2635 12.2638 93.9284 12.1663C93.4322 12.0219 92.7734 12.2406 91.9703 12.8168Z" fill="#2D2D48"/>
<path d="M87.5993 29.7698C87.5993 29.7698 89.6081 24.3649 84.1424 23.5443C83.2535 23.4107 90.7814 24.5759 91.2705 22.0347C91.7597 19.4934 87.7142 18.5597 83.5625 18.6356" fill="#FF9A7B"/>
<path d="M87.5969 29.9427C87.5769 29.9427 87.5568 29.9388 87.5372 29.9302C87.4543 29.8948 87.414 29.7939 87.4469 29.7048C87.4554 29.6819 88.2873 27.3855 87.3437 25.6421C86.7798 24.6003 85.6946 23.9524 84.1177 23.7156L84.0833 23.7105C84.0753 23.7093 84.0677 23.708 84.0604 23.7063L84.0542 23.7049C83.9057 23.6702 83.9014 23.5594 83.907 23.5112C83.9115 23.4733 83.9438 23.3513 84.094 23.3619L84.0943 23.3617L84.0966 23.3619C84.1029 23.3621 84.1093 23.3628 84.116 23.3638C87.1517 23.7258 90.8048 23.586 91.1099 21.999C91.2114 21.472 91.1074 21.0172 90.7923 20.6086C89.8718 19.4154 87.1662 18.7423 83.5629 18.8087C83.473 18.8062 83.4 18.7337 83.3985 18.6382C83.397 18.5423 83.4681 18.4634 83.5573 18.4615C87.2612 18.3928 90.0586 19.1134 91.0408 20.3871C91.4174 20.8753 91.5472 21.4412 91.4261 22.0694C91.097 23.779 88.0421 23.9547 85.8535 23.8552C86.6492 24.2234 87.242 24.7632 87.6239 25.4696C88.6461 27.361 87.7842 29.7337 87.7469 29.8337C87.7219 29.9013 87.6611 29.9427 87.5969 29.9427Z" fill="#2D2D48"/>
<path d="M67.6289 73.456L75.7371 79.7778C83.046 85.6867 94.439 80.9759 94.4563 72.0381L95.6824 35.7022C95.6901 35.5562 83.1667 37.4378 77.4612 32.6899L73.1461 57.7378" fill="#698BEC"/>
<path d="M83.1888 82.5819C80.4879 82.5819 77.8185 81.6798 75.6374 79.9165L67.5316 73.5963C67.4594 73.5399 67.4432 73.4313 67.4956 73.3538C67.5484 73.2762 67.6494 73.2593 67.7214 73.3151L75.8296 79.6371C79.5059 82.6094 84.6047 83.0714 88.8228 80.8165C92.2405 78.989 94.2855 75.7075 94.2926 72.0374L95.5126 35.8715C95.3883 35.8789 95.1944 35.8946 94.9819 35.9118C86.7425 36.5775 80.8872 35.5965 77.5705 32.9971L73.3028 57.7691C73.2867 57.8633 73.2044 57.9263 73.1145 57.9082C73.0268 57.8909 72.9689 57.8002 72.985 57.7059L77.3001 32.6583C77.3104 32.5988 77.3488 32.5493 77.4013 32.5277C77.4541 32.5057 77.5136 32.5155 77.558 32.5527C80.7691 35.225 86.6231 36.2384 94.9578 35.5657C95.7247 35.5037 95.7238 35.5037 95.7926 35.5764C95.8257 35.6113 95.8441 35.6622 95.8417 35.7122L94.6158 72.0444C94.6087 75.8425 92.497 79.2404 88.9669 81.1273C87.1429 82.102 85.1572 82.5819 83.1888 82.5819Z" fill="#2D2D48"/>
<path d="M92.1744 42.7295C87.9964 42.7295 84.6272 41.9775 84.5851 41.968C84.4979 41.9481 84.4421 41.856 84.4606 41.7622C84.4789 41.6682 84.564 41.6087 84.6521 41.6282C84.7039 41.64 89.9151 42.8022 95.3978 42.2184C95.4907 42.2106 95.5659 42.2788 95.5745 42.3742C95.5834 42.4696 95.5185 42.5545 95.4297 42.564C94.3204 42.6823 93.2217 42.7295 92.1744 42.7295Z" fill="#2D2D48"/>
<path d="M93.2546 40.3548C92.7501 40.3548 92.3398 39.9141 92.3398 39.3722C92.3398 38.8304 92.7501 38.3896 93.2546 38.3896C93.759 38.3896 94.1693 38.8304 94.1693 39.3722C94.1693 39.9141 93.759 40.3548 93.2546 40.3548ZM93.2546 38.7368C92.9283 38.7368 92.6631 39.0218 92.6631 39.3722C92.6631 39.7227 92.9283 40.0076 93.2546 40.0076C93.5808 40.0076 93.8461 39.7227 93.8461 39.3722C93.8461 39.0218 93.5808 38.7368 93.2546 38.7368Z" fill="#2D2D48"/>
<path d="M58.1873 105.13L40.7852 105.128L42.2308 36.4702L49.3293 40.5679L56.2441 36.4702L58.1873 105.13Z" fill="white"/>
<path d="M58.1888 105.304L40.7866 105.302C40.7431 105.302 40.7015 105.284 40.6711 105.25C40.6405 105.216 40.6242 105.171 40.625 105.125L42.0707 36.4665C42.072 36.4061 42.1026 36.351 42.1509 36.3205C42.1998 36.2901 42.2593 36.289 42.3088 36.3174L49.3297 40.3704L56.1676 36.3184C56.2171 36.2894 56.277 36.2897 56.3255 36.3195C56.3747 36.3494 56.4055 36.4045 56.4072 36.4649L58.3502 105.125C58.3515 105.172 58.3351 105.217 58.3045 105.251C58.2746 105.285 58.2328 105.304 58.1888 105.304ZM40.9521 104.955L58.0222 104.957L56.0926 36.7598L49.409 40.7202C49.3609 40.7484 49.3027 40.7491 49.2542 40.7211L42.3881 36.7575L40.9521 104.955Z" fill="#2D2D48"/>
<path d="M41.8168 67.1756C41.764 67.1756 41.7123 67.1478 41.6813 67.0969L31.1062 49.6978C30.8436 49.2052 30.966 48.593 31.3855 48.2652L34.8429 45.5652L30.5348 42.7105C30.379 42.6075 30.2969 42.4223 30.3204 42.2274C30.3439 42.0325 30.4673 41.8761 30.6421 41.8189L39.1569 39.0369C39.2416 39.0089 39.3323 39.0607 39.3584 39.1526C39.3842 39.2443 39.3359 39.3413 39.2506 39.3693L30.736 42.151C30.6582 42.1765 30.6434 42.2501 30.641 42.2719C30.6382 42.2939 30.6352 42.3688 30.7044 42.4149L35.2176 45.4055C35.2635 45.4358 35.2924 45.4888 35.2941 45.5466C35.2963 45.6043 35.2715 45.6596 35.2278 45.6936L31.5756 48.546C31.2894 48.7696 31.206 49.1869 31.3818 49.5168L41.9519 66.9071C42.0008 66.9874 41.9797 67.095 41.9049 67.1473C41.8776 67.1665 41.8472 67.1756 41.8168 67.1756Z" fill="#2D2D48"/>
<path d="M57.3958 67.1756C57.3654 67.1756 57.335 67.1666 57.3076 67.1474C57.2328 67.0948 57.2119 66.9874 57.2606 66.9071L67.8357 49.508C68.0063 49.1868 67.9229 48.7697 67.6368 48.5461L63.9846 45.6937C63.941 45.6597 63.9163 45.6046 63.9182 45.5467C63.9201 45.4888 63.949 45.4358 63.9947 45.4055L68.508 42.415C68.5772 42.3689 68.5741 42.2939 68.5713 42.2719C68.5687 42.2499 68.5541 42.1763 68.4761 42.1509L59.9617 39.3691C59.8762 39.3411 59.8281 39.2443 59.854 39.1525C59.8801 39.0606 59.971 39.0092 60.0555 39.0367L68.57 41.8185C68.7452 41.8757 68.8685 42.0324 68.892 42.2273C68.9152 42.4221 68.8331 42.6073 68.6776 42.7103L64.3694 45.565L67.8268 48.2651C68.2464 48.5928 68.3688 49.2053 68.1111 49.6888L57.5309 67.0967C57.5003 67.1478 57.4485 67.1756 57.3958 67.1756Z" fill="#2D2D48"/>
<path d="M50.5431 47.1856C51.9498 47.1856 53.0901 45.5249 53.0901 43.4763C53.0901 41.4278 51.9498 39.7671 50.5431 39.7671C49.1364 39.7671 47.9961 41.4278 47.9961 43.4763C47.9961 45.5249 49.1364 47.1856 50.5431 47.1856Z" fill="#2D2D48"/>
<path d="M50.5443 47.3594C49.0508 47.3594 47.8359 45.6177 47.8359 43.4766C47.8359 41.3355 49.051 39.5938 50.5443 39.5938C52.0381 39.5938 53.253 41.3355 53.253 43.4766C53.253 45.6177 52.0381 47.3594 50.5443 47.3594ZM50.5443 39.9407C49.229 39.9407 48.1592 41.527 48.1592 43.4764C48.1592 45.426 49.2292 47.012 50.5443 47.012C51.8596 47.012 52.9297 45.4258 52.9297 43.4764C52.9299 41.527 51.8599 39.9407 50.5443 39.9407Z" fill="#2D2D48"/>
<path d="M38.6761 37.8839L41.063 33.7756C41.2264 33.4946 41.7343 33.4196 42.0396 33.6317L50.6667 39.5533L56.5069 34.4263C56.9999 33.9881 57.7819 34.2976 57.8412 34.9547L59.4107 38.3409C59.5961 38.7404 59.5004 39.1896 59.1604 39.516L55.0933 43.4218C54.8067 43.8618 54.1734 43.8926 53.8455 43.4824L50.702 40.2243L45.7698 44.2944C45.2275 44.6823 44.328 44.6298 43.8809 44.184L38.8675 39.185C38.5031 38.8209 38.4279 38.311 38.6761 37.8839Z" fill="white"/>
<path d="M44.8868 44.7292C44.464 44.7292 44.0466 44.5866 43.7702 44.3112L38.7565 39.3122C38.3329 38.8898 38.2471 38.2933 38.5378 37.7924L40.9247 33.6841C41.0157 33.5276 41.1809 33.4138 41.3906 33.3633C41.6503 33.3008 41.9252 33.3469 42.126 33.4862L50.654 39.3395L56.4035 34.2922C56.6877 34.0399 57.0805 33.9788 57.4277 34.1325C57.744 34.2725 57.955 34.5597 57.9974 34.9049L59.5543 38.2637C59.7732 38.7356 59.6631 39.2655 59.267 39.6458L55.2132 43.5386C55.0479 43.7811 54.7876 43.9288 54.4956 43.9443C54.1952 43.9601 53.9119 43.8334 53.7216 43.5957L50.6889 40.4533L45.867 44.4322C45.5884 44.632 45.2359 44.7292 44.8868 44.7292ZM38.8126 37.9762C38.6042 38.3347 38.6671 38.7491 38.9768 39.0578L43.9904 44.0568C44.3811 44.4468 45.2025 44.4917 45.6796 44.1501L50.6031 40.0869C50.6667 40.0342 50.7559 40.0397 50.8139 40.0997L53.9573 43.3578C54.0922 43.5254 54.2816 43.6082 54.4805 43.5976C54.6788 43.5869 54.8537 43.4867 54.9608 43.3226C54.9679 43.3117 54.9761 43.3015 54.9854 43.2927L59.0524 39.3872C59.3394 39.1115 59.4192 38.7495 59.2658 38.4188L57.6962 35.0326C57.6876 35.0137 57.6822 34.9931 57.6802 34.972C57.6593 34.7421 57.5193 34.5484 57.3053 34.4535C57.0678 34.3482 56.8017 34.3896 56.6097 34.5604L50.7688 39.6881C50.7145 39.7358 50.6385 39.7404 50.5794 39.6999L41.9515 33.7781C41.8235 33.689 41.6358 33.66 41.4615 33.7019C41.3391 33.7313 41.2434 33.7917 41.1995 33.8674L38.8126 37.9762Z" fill="#2D2D48"/>
<path d="M119.749 57.0259H18.8906V90.7944H119.749V57.0259Z" fill="white"/>
<path d="M119.743 90.9102H18.8854C18.7438 90.9102 18.6289 90.8583 18.6289 90.7945V57.0258C18.6289 56.962 18.7438 56.9102 18.8854 56.9102H119.743C119.885 56.9102 120 56.962 120 57.0258V90.7945C120 90.8583 119.885 90.9102 119.743 90.9102ZM19.142 90.6788H119.487V57.1415H19.142V90.6788Z" fill="#2D2D48"/>
<path d="M40.36 67.7102V75.3262C40.36 77.6782 38.92 79.0222 36.6 79.0222C35.096 79.0222 33.88 78.3822 32.936 77.2782L34.104 75.4862C34.888 76.3182 35.784 76.7342 36.472 76.7342C37.304 76.7342 37.816 76.2222 37.816 75.2622V69.8542H33.96V67.7102H40.36ZM46.4626 70.2222C49.2146 70.2222 51.0706 71.9662 51.0706 74.6062C51.0706 77.2302 49.2146 79.0062 46.4626 79.0062C43.6946 79.0062 41.8386 77.2302 41.8386 74.6062C41.8386 71.9662 43.6946 70.2222 46.4626 70.2222ZM46.4626 72.2702C45.1826 72.2702 44.3186 73.2302 44.3186 74.6382C44.3186 76.0462 45.1826 77.0062 46.4626 77.0062C47.7266 77.0062 48.6066 76.0462 48.6066 74.6382C48.6066 73.2302 47.7266 72.2702 46.4626 72.2702ZM53.9316 66.4782C54.7156 66.4782 55.2596 67.0542 55.2596 67.8542C55.2596 68.6542 54.7156 69.2302 53.9316 69.2302C53.1476 69.2302 52.6036 68.6542 52.6036 67.8542C52.6036 67.0542 53.1476 66.4782 53.9316 66.4782ZM55.1636 78.9102H52.6996V70.3022H55.1636V78.9102ZM62.9678 70.2062C64.8878 70.2062 66.1198 71.4862 66.1198 73.5022V78.9102H63.6558V74.2222C63.6558 73.1342 63.0158 72.4622 61.9598 72.4622C60.7278 72.4782 59.9918 73.4062 59.9918 74.6702V78.9102H57.5278V70.3022H59.9918V71.8062C60.5998 70.7342 61.6238 70.2222 62.9678 70.2062ZM82.2979 78.9102H79.9939L74.5699 71.7262V78.9102H72.1539V67.7102H74.4579L79.8979 74.9102V67.7102H82.2979V78.9102ZM88.6033 70.2222C91.3553 70.2222 93.2113 71.9662 93.2113 74.6062C93.2113 77.2302 91.3553 79.0062 88.6033 79.0062C85.8353 79.0062 83.9793 77.2302 83.9793 74.6062C83.9793 71.9662 85.8353 70.2222 88.6033 70.2222ZM88.6033 72.2702C87.3233 72.2702 86.4593 73.2302 86.4593 74.6382C86.4593 76.0462 87.3233 77.0062 88.6033 77.0062C89.8673 77.0062 90.7473 76.0462 90.7473 74.6382C90.7473 73.2302 89.8673 72.2702 88.6033 72.2702ZM105.103 78.9102H102.639L100.783 73.2302L98.943 78.9102H96.479L93.327 70.3182L95.839 70.3022L97.759 76.4622L99.615 70.3022H102.031L103.919 76.4622L105.807 70.3022H108.239L105.103 78.9102Z" fill="#252525"/>
<path d="M1.45975 80.4609C1.96462 81.5987 2.56668 82.6096 3.17154 83.3526C5.23608 85.8883 7.73008 86.2302 10.6466 86.039C14.1209 85.8114 17.5511 85.5388 20.9374 84.5953C22.0612 84.2088 23.1227 83.8646 23.2192 82.3656C23.2905 81.2585 22.6061 80.2053 21.5843 80.3701C21.5843 80.3701 23.2677 79.9764 23.9318 79.4334C25.1801 78.4126 25.1348 75.3056 23.0324 75.9114C23.0324 75.9114 24.171 75.3758 24.3261 75.2769C25.1348 74.7619 25.4598 73.6294 25.0902 72.7063C24.6812 71.6846 23.5392 71.139 22.5596 71.4952C22.8369 71.3943 23.3129 71.0362 23.5493 70.8381C23.5493 70.8381 24.1613 70.3141 24.3143 69.5681C24.6515 67.9226 23.0225 66.4819 21.6548 67.2696C19.9266 68.2649 18.0379 68.8679 16.1085 69.2091C15.3485 69.3435 14.582 69.4303 13.8252 69.5826L12.9698 69.7546L14.9591 67.4212C15.893 66.3259 15.295 64.5545 13.9248 64.3566L13.8767 64.3496C13.1109 64.2392 12.3507 64.4598 11.7497 64.9598C11.7497 64.9598 7.95914 68.1126 7.9572 68.1142C5.79806 69.9102 2.12602 69.2813 0.719781 72.1975C-0.367545 74.4522 0.280842 77.8036 1.45975 80.4609Z" fill="#FF9A7B"/>
<path d="M9.384 86.2572C6.90164 86.2572 4.83516 85.6579 3.05097 83.4666C2.43404 82.7091 1.81733 81.6682 1.31482 80.5356V80.5354C-0.124385 77.2911 -0.400203 74.1446 0.577011 72.1181C1.44584 70.3159 3.14923 69.8164 4.79638 69.3331C5.88435 69.0139 7.00939 68.6838 7.85903 67.9774C7.86076 67.976 11.6517 64.823 11.6517 64.823C12.2922 64.2904 13.0905 64.0617 13.8992 64.1781L13.9468 64.1848C14.6517 64.2864 15.2169 64.7757 15.4591 65.4933C15.7013 66.2111 15.5595 66.9756 15.0794 67.5388L13.4172 69.4884L13.7967 69.412C14.2393 69.3229 14.6907 69.2553 15.1275 69.1898C15.4462 69.1419 15.7655 69.0942 16.0834 69.038C18.1526 68.672 20.0017 68.0255 21.5797 67.1168C22.2524 66.7295 23.0331 66.8062 23.6684 67.3223C24.3413 67.8693 24.6499 68.7442 24.4732 69.6055C24.3098 70.4022 23.678 70.9513 23.6513 70.9742C23.5703 71.0418 23.4619 71.1283 23.3417 71.2179C24.1478 71.2793 24.9102 71.8144 25.2401 72.638C25.6443 73.6474 25.2797 74.8725 24.41 75.4267C24.3424 75.4697 24.1176 75.5817 23.8724 75.7012C24.2512 75.7935 24.5497 76.0482 24.7337 76.4511C25.1772 77.421 24.8421 78.9086 24.0308 79.5718C23.6431 79.8886 22.9448 80.1518 22.3985 80.3233C22.5349 80.3916 22.6627 80.4835 22.7784 80.5986C23.2012 81.0177 23.4268 81.6832 23.3818 82.3781C23.2792 83.9738 22.1382 84.3659 21.0347 84.7453L20.9882 84.761C17.6245 85.6984 14.3203 85.9727 10.6582 86.2125C10.2214 86.2405 9.79687 86.2572 9.384 86.2572ZM1.6068 80.3858C2.09703 81.4906 2.6965 82.5033 3.29446 83.2377C5.28854 85.6871 7.67329 86.0605 10.6381 85.8653C14.2832 85.6269 17.5713 85.354 20.8981 84.4272L20.936 84.4138C22.0281 84.0384 22.9713 83.7143 23.059 82.3535C23.0967 81.7714 22.9049 81.1964 22.5588 80.8532C22.2953 80.5921 21.9675 80.4849 21.6094 80.5416C21.523 80.5557 21.4424 80.4935 21.4265 80.4016C21.4107 80.3094 21.4659 80.2206 21.551 80.2007C21.5674 80.1967 23.207 79.8088 23.8349 79.2954C24.5227 78.7327 24.8184 77.4247 24.4432 76.6039C24.2006 76.0725 23.728 75.891 23.0751 76.0789C22.9926 76.1028 22.9088 76.0544 22.8808 75.9685C22.8527 75.8829 22.8911 75.7887 22.9685 75.7519C23.4225 75.5385 24.1372 75.1959 24.245 75.1274C24.9776 74.6605 25.2843 73.6272 24.9427 72.7745C24.5645 71.8301 23.5201 71.3299 22.6125 71.6593C22.5287 71.6901 22.4364 71.6415 22.4078 71.5505C22.3791 71.4596 22.4244 71.3612 22.5091 71.3306L22.5099 71.3302C22.7575 71.2397 23.2083 70.9045 23.4511 70.701C23.4552 70.6973 24.0194 70.205 24.1575 69.5305C24.3066 68.803 24.0446 68.0628 23.4731 67.5987C22.9415 67.1668 22.291 67.1004 21.7322 67.4223C20.123 68.3491 18.2401 69.0079 16.1357 69.3801C15.8153 69.4365 15.4936 69.4849 15.1719 69.5331C14.7387 69.5981 14.2912 69.6652 13.8559 69.7527L13.0005 69.9247C12.9326 69.9388 12.8632 69.9036 12.8296 69.8384C12.7957 69.7731 12.8046 69.6919 12.8518 69.6368L14.8411 67.3036C15.2382 66.8376 15.3557 66.205 15.1551 65.6111C14.9544 65.0174 14.4868 64.6126 13.9042 64.5281L13.8566 64.5214C13.1332 64.4181 12.4208 64.6214 11.8496 65.0966L8.05706 68.251C7.15634 68.9998 6.00006 69.3391 4.88171 69.6673C3.22896 70.1522 1.66778 70.6101 0.864034 72.2769C-0.232126 74.5501 0.528743 77.9559 1.60637 80.3854V80.3858H1.6068Z" fill="#2D2D48"/>
<path d="M15.3906 81.2531C15.3906 81.2531 17.8958 81.7447 21.8088 80.3149Z" fill="#FFA874"/>
<path d="M16.5732 81.5106C15.8261 81.5106 15.4009 81.4312 15.3591 81.4229C15.2714 81.4058 15.2132 81.3155 15.2292 81.2213C15.2449 81.1271 15.329 81.0651 15.4169 81.0815C15.4414 81.0866 17.9331 81.546 21.7542 80.1501C21.8387 80.1188 21.9303 80.1677 21.9591 80.2586C21.988 80.3494 21.9428 80.4477 21.8581 80.4788C19.5188 81.3336 17.6879 81.5106 16.5732 81.5106Z" fill="#2D2D48"/>
<path d="M15.2617 77.047C15.2617 77.047 19.0271 77.5299 22.8954 75.9668Z" fill="#FFA874"/>
<path d="M16.6902 77.287C15.8084 77.287 15.2622 77.2204 15.248 77.2185C15.1594 77.207 15.0961 77.1206 15.1066 77.0255C15.1174 76.9306 15.1965 76.8646 15.2863 76.8737C15.3234 76.8785 19.0596 77.3324 22.844 75.8034C22.9273 75.7703 23.0204 75.8152 23.0521 75.9047C23.0836 75.9945 23.0411 76.0943 22.9577 76.1283C20.5469 77.1023 18.1557 77.287 16.6902 77.287Z" fill="#2D2D48"/>
<path d="M14.7578 72.9969C14.7578 72.9969 18.8619 73.1795 22.6669 71.4458Z" fill="#FFA874"/>
<path d="M15.0814 73.1752C14.878 73.1752 14.7631 73.1705 14.7564 73.1703C14.6672 73.1664 14.598 73.0856 14.6017 72.9898C14.6054 72.8965 14.6769 72.8233 14.7631 72.8233C14.7653 72.8233 14.7676 72.8233 14.7698 72.8236C14.8099 72.8245 18.8831 72.984 22.609 71.2859C22.6914 71.2482 22.7862 71.2896 22.8209 71.3781C22.8558 71.4665 22.8172 71.5681 22.7353 71.6056C19.5567 73.0541 16.1329 73.1752 15.0814 73.1752Z" fill="#2D2D48"/>
</svg>
