<svg width="24" height="25" viewBox="0 0 24 25" fill="none" xmlns="http://www.w3.org/2000/svg">
<path d="M11.9629 25C18.5698 25 23.9258 19.4036 23.9258 12.5C23.9258 5.59644 18.5698 0 11.9629 0C5.35597 0 0 5.59644 0 12.5C0 19.4036 5.35597 25 11.9629 25Z" fill="#E88102"/>
<path d="M11.9629 23.6816C18.5024 23.6816 23.8037 18.3803 23.8037 11.8408C23.8037 5.30132 18.5024 0 11.9629 0C5.42339 0 0.12207 5.30132 0.12207 11.8408C0.12207 18.3803 5.42339 23.6816 11.9629 23.6816Z" fill="#FDD835"/>
<path opacity="0.5" d="M16.6895 0.981445L1.10352 16.5625C0.581055 15.3662 0.253906 14.0674 0.15625 12.7051L12.8271 0.0292969C14.1895 0.131836 15.4883 0.458984 16.6895 0.981445ZM22.2803 6.03027L6.15234 22.1582C5.14648 21.5918 4.23828 20.8838 3.44238 20.0586L20.1855 3.32031C21.0059 4.11133 21.7139 5.02441 22.2803 6.03027ZM19.7021 2.87598L3.00293 19.5752C2.74414 19.2725 2.49512 18.9551 2.26563 18.6279L18.7549 2.13867C19.082 2.36816 19.3994 2.61719 19.7021 2.87598ZM23.4326 8.88672L9.00879 23.3105C8.57422 23.1982 8.14941 23.0615 7.73438 22.9053L23.0273 7.6123C23.1836 8.02734 23.3203 8.45215 23.4326 8.88672Z" fill="white"/>
<path opacity="0.5" d="M23.8037 11.8408C23.8037 11.9238 23.8037 12.002 23.7988 12.085C23.6719 5.65918 18.4229 0.488281 11.9629 0.488281C5.50293 0.488281 0.253906 5.65918 0.126953 12.085C0.126953 12.002 0.12207 11.9238 0.12207 11.8408C0.12207 5.30273 5.42481 0 11.9629 0C18.501 0 23.8037 5.30273 23.8037 11.8408Z" fill="white"/>
<path opacity="0.5" d="M21.582 12.3535C21.582 17.4756 17.4268 21.6309 12.3047 21.6309C9.42871 21.6309 6.85547 20.3174 5.15137 18.2617C6.8457 20.0928 9.26758 21.2402 11.9629 21.2402C17.085 21.2402 21.2402 17.085 21.2402 11.9629C21.2402 9.7168 20.4443 7.66113 19.1162 6.05469C20.6445 7.70996 21.582 9.92188 21.582 12.3535Z" fill="white"/>
<path d="M11.9629 21.2402C17.0866 21.2402 21.2402 17.0866 21.2402 11.9629C21.2402 6.83916 17.0866 2.68555 11.9629 2.68555C6.83916 2.68555 2.68555 6.83916 2.68555 11.9629C2.68555 17.0866 6.83916 21.2402 11.9629 21.2402Z" fill="#F39E09"/>
<path d="M18.9941 5.9082C17.3682 4.50684 15.2539 3.66211 12.9395 3.66211C7.81738 3.66211 3.66211 7.81738 3.66211 12.9395C3.66211 15.2539 4.50684 17.3682 5.9082 18.9941C3.93555 17.29 2.68555 14.7754 2.68555 11.9629C2.68555 6.84082 6.84082 2.68555 11.9629 2.68555C14.7705 2.68555 17.29 3.93555 18.9941 5.9082Z" fill="#E88102"/>
<path d="M11.3818 9.59961C11.2158 9.79004 11.1279 10.0537 11.1279 10.3906C11.1279 10.7275 11.2256 11.0059 11.4209 11.2061C11.6162 11.4062 11.9287 11.5967 12.3584 11.7822C12.7881 11.9629 13.1934 12.1533 13.5742 12.3486C13.9551 12.5439 14.2822 12.7686 14.5605 13.0176C14.8389 13.2666 15.0537 13.5596 15.21 13.8916C15.2686 14.0186 15.4443 14.2578 15.4443 14.2578V15.0928C15.4443 15.8838 15.1953 16.5283 14.6924 17.0264C14.1895 17.5244 13.5107 17.8174 12.6465 17.9004V19.2871H11.543V17.8857C10.5371 17.7783 9.76562 17.4365 9.22363 16.8506C8.68652 16.2646 8.41797 15.498 8.41797 14.541V13.8086L10.752 14.541C10.752 15.0684 10.8691 15.4688 11.1035 15.7422C11.3379 16.0156 11.6699 16.1523 12.0996 16.1523C12.4121 16.1523 12.6611 16.0596 12.8418 15.8691C13.0225 15.6787 13.1104 15.4248 13.1104 15.0977C13.1104 14.7314 13.0225 14.4482 12.8418 14.2383C12.6611 14.0283 12.3438 13.833 11.8945 13.6475C11.4404 13.4619 11.0254 13.2764 10.6396 13.0859C10.2539 12.8955 9.92676 12.6758 9.64844 12.4268C9.37012 12.1777 9.16016 11.8896 9.00879 11.5625C8.8623 11.2354 8.78906 10.8398 8.78906 10.3711V9.59473C8.78906 9.59473 9.22363 8.7793 9.58008 8.44238C10.1074 7.93457 10.8105 7.6416 11.6846 7.55859V6.10352H12.7881V7.59277C13.6328 7.71973 14.2969 8.06641 14.7803 8.6377C15.1123 9.02832 15.5029 10.0781 15.5029 10.0781V10.8105H13.1592C13.1592 10.332 13.0664 9.96094 12.8809 9.70215C12.6953 9.44336 12.4316 9.31641 12.0898 9.31641C11.7871 9.31152 11.5527 9.40918 11.3818 9.59961Z" fill="#DB6704"/>
<path d="M13.1104 14.3701C13.1104 14.0039 13.0225 13.7207 12.8418 13.5107C12.6611 13.3008 12.3437 13.1055 11.8945 12.9199C11.4404 12.7344 11.0254 12.5488 10.6396 12.3584C10.2539 12.168 9.92676 11.9482 9.64844 11.6992C9.37012 11.4502 9.16016 11.1621 9.00879 10.835C8.8623 10.5078 8.78906 10.1074 8.78906 9.64355C8.78906 8.8623 9.05273 8.21777 9.58008 7.71484C10.1074 7.21191 10.8105 6.91406 11.6846 6.83105V5.37109H12.7881V6.86035C13.6328 6.9873 14.2969 7.33398 14.7803 7.90527C15.2637 8.47656 15.5029 9.19922 15.5029 10.0781H13.1592C13.1592 9.59961 13.0664 9.22852 12.8809 8.96973C12.6953 8.71094 12.4316 8.58398 12.0898 8.58398C11.7871 8.58398 11.5479 8.68164 11.3818 8.87207C11.2158 9.0625 11.1279 9.32617 11.1279 9.66309C11.1279 10 11.2256 10.2783 11.4209 10.4785C11.6162 10.6787 11.9287 10.8691 12.3535 11.0547C12.7832 11.2354 13.1885 11.4258 13.5693 11.6211C13.9502 11.8164 14.2773 12.041 14.5557 12.29C14.834 12.5391 15.0488 12.832 15.2051 13.1641C15.3613 13.4961 15.4395 13.8965 15.4395 14.3604C15.4395 15.1514 15.1904 15.7959 14.6875 16.2939C14.1846 16.792 13.5059 17.085 12.6416 17.168V18.5547H11.5381V17.1533C10.5322 17.0459 9.76074 16.7041 9.21875 16.1182C8.68164 15.5322 8.41309 14.7656 8.41309 13.8086H10.7471C10.7471 14.3359 10.8643 14.7363 11.0986 15.0098C11.333 15.2832 11.665 15.4199 12.0947 15.4199C12.4072 15.4199 12.6562 15.3271 12.8369 15.1367C13.0176 14.9463 13.1104 14.6973 13.1104 14.3701Z" fill="#FDD835"/>
<path opacity="0.5" d="M9.58008 7.71484C9.86328 7.44141 10.2002 7.23145 10.5859 7.08008L8.93066 8.74023C9.05762 8.34961 9.27246 8.0127 9.58008 7.71484ZM12.2949 5.37109L11.6846 5.98145V5.37109H12.2949ZM15.1904 13.1201L11.2012 17.1094C10.3613 16.9678 9.70215 16.6357 9.22852 16.123C8.9209 15.7861 8.70117 15.3906 8.56934 14.9365L9.69238 13.8135H10.7568C10.7568 14.3408 10.874 14.7412 11.1084 15.0146C11.3428 15.2881 11.6748 15.4248 12.1045 15.4248C12.417 15.4248 12.666 15.332 12.8467 15.1416C13.0273 14.9512 13.1152 14.6973 13.1152 14.3701C13.1152 14.0039 13.0273 13.7207 12.8467 13.5107C12.666 13.3008 12.3486 13.1055 11.8994 12.9199C11.5771 12.7881 11.2744 12.6562 10.9863 12.5195L12.4316 11.0742C12.8369 11.25 13.2178 11.4258 13.5791 11.6113C13.96 11.8066 14.2871 12.0312 14.5654 12.2803C14.8291 12.5244 15.0391 12.8027 15.1904 13.1201ZM15.5029 10.0732H13.4277L15.1123 8.38867C15.3711 8.86719 15.5029 9.42871 15.5029 10.0732ZM8.42285 13.8086H8.76953L8.4375 14.1406C8.42773 14.0332 8.42285 13.9209 8.42285 13.8086ZM11.4209 10.4736C11.5186 10.5762 11.6455 10.6738 11.8066 10.7715L10.3613 12.2168C10.0928 12.0654 9.85352 11.8945 9.64844 11.7041C9.56543 11.6309 9.49219 11.5527 9.42383 11.4746L11.1377 9.76074C11.1523 10.0537 11.25 10.293 11.4209 10.4736ZM14.7314 7.84668L13.1006 9.47754C13.0566 9.27734 12.9834 9.10645 12.8857 8.96973C12.7393 8.76465 12.5439 8.64258 12.2998 8.59863L13.7598 7.13867C14.1357 7.30957 14.458 7.54395 14.7314 7.84668ZM12.0801 18.5547L12.6465 17.9883V18.5547H12.0801ZM15.293 15.3418C15.1709 15.7031 14.9707 16.0156 14.6973 16.2891C14.4238 16.5625 14.0967 16.7725 13.7158 16.9189L15.293 15.3418Z" fill="white"/>
<path opacity="0.25" d="M19.7022 6.84082C13.6963 8.9502 8.87207 13.584 6.50879 19.4678C6.30371 19.3164 6.10352 19.1602 5.9082 18.9893C4.50684 17.3633 3.66211 15.249 3.66211 12.9395C3.66211 7.81738 7.81738 3.66211 12.9395 3.66211C15.2539 3.66211 17.3682 4.50684 18.9893 5.9082C19.248 6.20605 19.4824 6.51855 19.7022 6.84082Z" fill="white"/>
</svg>
