<svg width="25" height="25" viewBox="0 0 25 25" fill="none" xmlns="http://www.w3.org/2000/svg">
<path d="M15.5144 0.785278H9.48497C8.74343 0.785278 8.27909 1.58895 8.65041 2.2316L10.76 5.88601H14.2398L16.3497 2.2316C16.721 1.58895 16.257 0.785278 15.5144 0.785278ZM14.6717 7.58822H10.3287C6.0324 8.91175 2.9574 12.4606 2.9574 16.6316C2.9574 16.8029 2.96254 16.9735 2.97284 17.1426C3.21585 21.1573 6.69526 24.2147 10.7173 24.2147H14.2828C18.3045 24.2147 21.7839 21.157 22.0273 17.1423C22.0375 16.9731 22.0427 16.8029 22.0427 16.6316C22.0427 12.4606 18.9673 8.91248 14.6717 7.58822Z" fill="#FEBB50"/>
<path d="M15.1501 18.8566C14.9343 19.183 14.6273 19.4437 14.2291 19.6385C13.831 19.833 13.3696 19.9463 12.8461 19.9775L12.8479 20.786C12.8494 20.8312 12.8417 20.8763 12.8252 20.9185C12.8087 20.9606 12.7838 20.999 12.7519 21.0312C12.6876 21.0955 12.6012 21.1282 12.4957 21.1282C12.4054 21.1318 12.3173 21.0994 12.2508 21.0382C12.1858 20.9771 12.1538 20.8937 12.1534 20.7878L12.1516 19.979C11.3313 19.9275 10.5633 19.751 9.8501 19.4492C9.75739 19.4101 9.67797 19.3449 9.62142 19.2617C9.5556 19.1706 9.52345 19.0596 9.53049 18.9474C9.53754 18.8353 9.58332 18.7291 9.66003 18.647C9.74679 18.5514 9.85856 18.5036 9.99569 18.5032C10.0718 18.5032 10.1435 18.5179 10.2122 18.5488C10.8238 18.8196 11.481 18.9727 12.1494 18.9999L12.1435 16.3804C11.6266 16.2444 11.1913 16.0981 10.8383 15.9393C10.4941 15.7875 10.191 15.5559 9.95414 15.2635C9.71811 14.972 9.59936 14.6018 9.59826 14.154C9.59458 13.7702 9.69413 13.3924 9.8865 13.0602C10.0795 12.7253 10.367 12.4477 10.7501 12.2268C11.1332 12.0058 11.5938 11.8716 12.1332 11.8249L12.1314 11.0271C12.1302 10.9812 12.1381 10.9354 12.1546 10.8925C12.1711 10.8496 12.196 10.8104 12.2277 10.7771C12.2586 10.7435 12.2965 10.717 12.3386 10.6992C12.3807 10.6814 12.4261 10.6729 12.4718 10.6742C12.5184 10.6731 12.5647 10.6815 12.6079 10.699C12.6511 10.7165 12.6903 10.7428 12.7229 10.776C12.7913 10.8441 12.8258 10.9279 12.8258 11.026L12.8277 11.8121C13.5714 11.8407 14.2321 11.9646 14.81 12.1834C15.0229 12.2588 15.1295 12.4106 15.1299 12.6382C15.1299 12.7595 15.0887 12.8698 15.0056 12.9687C14.9222 13.0676 14.8122 13.1168 14.6755 13.1172C14.6302 13.1172 14.5689 13.1025 14.4931 13.0724C13.9766 12.8915 13.4222 12.7904 12.8299 12.769L12.8361 15.4793C13.3832 15.6069 13.8361 15.7463 14.1979 15.8974C14.5519 16.0434 14.8638 16.2756 15.1052 16.5727C15.3486 16.8727 15.4707 17.269 15.4722 17.7621C15.4771 18.1509 15.3649 18.5323 15.1501 18.8566ZM11.0177 14.8455C11.2729 15.0271 11.6472 15.1823 12.1409 15.3099L12.1354 12.8043C11.6795 12.8665 11.3155 13.0054 11.0431 13.2224C10.7703 13.4393 10.6339 13.7224 10.635 14.0716C10.6358 14.4058 10.763 14.6635 11.0177 14.8455ZM14.4468 17.6963C14.4461 17.4003 14.3108 17.1705 14.0409 17.008C13.7711 16.8455 13.3703 16.6926 12.8383 16.5496L12.8442 18.9981C13.9141 18.9202 14.4486 18.486 14.4468 17.6963Z" fill="white"/>
<path d="M16.4486 6.73975C16.4486 7.04012 16.3276 7.31401 16.1302 7.51107C15.9239 7.71563 15.645 7.83011 15.3545 7.82946H9.64085C9.49771 7.82965 9.35594 7.80159 9.22367 7.74689C9.09139 7.6922 8.97121 7.61193 8.87001 7.5107C8.76882 7.40947 8.68859 7.28926 8.63394 7.15696C8.57928 7.02467 8.55127 6.88289 8.55152 6.73975C8.55152 6.43938 8.67247 6.16144 8.8699 5.96401C8.97112 5.8628 9.09132 5.78258 9.22363 5.72794C9.35593 5.67331 9.49771 5.64533 9.64085 5.64563H15.3545C15.4982 5.64549 15.6405 5.67369 15.7733 5.72862C15.9061 5.78355 16.0268 5.86414 16.1284 5.96577C16.2301 6.0674 16.3107 6.18807 16.3656 6.32088C16.4205 6.45369 16.4487 6.59603 16.4486 6.73975Z" fill="#C17E48"/>
</svg>
