<svg width="25" height="25" viewBox="0 0 25 25" fill="none" xmlns="http://www.w3.org/2000/svg">
<path d="M17.5 0C15.5764 0 13.8276 0.814643 12.5 2.14265C11.1724 0.814643 9.42363 0 7.5 0C3.35786 0 0 3.7453 0 8.36537C0 14.1226 5.60346 21.0937 12.5 25C19.3965 21.0937 25 14.1226 25 8.36542C25 3.7453 21.6421 0 17.5 0Z" fill="#FF5A4E"/>
<path d="M5.17241 9.81319C5.17241 5.53286 7.27041 1.90258 10.1915 0.561178C9.33329 0.189719 8.4206 -0.000571418 7.5 1.28888e-06C3.35786 1.28888e-06 0 3.7453 0 8.36537C0 14.1226 5.60346 21.0937 12.5 25C12.5057 24.9967 12.5113 24.9933 12.517 24.9901C8.18872 20.4849 5.17241 14.7668 5.17241 9.81319Z" fill="#EB443F"/>
<path d="M17.5 0C17.3361 0 17.1755 0.0139422 17.0143 0.0255971C20.266 0.289193 22.8448 3.91653 22.8448 8.36537C22.8448 14.1226 18.2075 21.0937 12.5 25C19.3965 21.0937 25 14.1226 25 8.36542C25 3.7453 21.6421 0 17.5 0Z" fill="#FF7E68"/>
<path d="M20.2587 9.13464C20.9729 9.13464 21.5518 8.48889 21.5518 7.69232C21.5518 6.89575 20.9729 6.25 20.2587 6.25C19.5445 6.25 18.9656 6.89575 18.9656 7.69232C18.9656 8.48889 19.5445 9.13464 20.2587 9.13464Z" fill="#FF9A79"/>
<path d="M19.6121 5.28846C19.9692 5.28846 20.2586 4.96559 20.2586 4.56732C20.2586 4.16905 19.9692 3.84619 19.6121 3.84619C19.255 3.84619 18.9656 4.16905 18.9656 4.56732C18.9656 4.96559 19.255 5.28846 19.6121 5.28846Z" fill="#FFBEAC"/>
</svg>
