<svg width="25" height="25" viewBox="0 0 25 25" fill="none" xmlns="http://www.w3.org/2000/svg">
<g clipPath="url(#clip0_469_1537)">
<path d="M22.2565 24.9834H2.74319C2.23196 24.9834 1.81775 24.5692 1.81775 24.058V9.1366H23.1822V24.058C23.1822 24.5692 22.7677 24.9834 22.2565 24.9834Z" fill="#FFC73B"/>
<path d="M1.81775 9.1366H23.1822V12.2416H1.81775V9.1366Z" fill="#EFB025"/>
<path d="M25 5.89954V9.74626C25 10.1572 24.6666 10.4899 24.2558 10.4899H0.743652C0.332812 10.4899 0 10.1572 0 9.74626V5.89958C0 5.4887 0.332812 5.15588 0.743652 5.15588H24.2558C24.6666 5.15588 25 5.4887 25 5.89954Z" fill="#FFC73B"/>
<path d="M11.6501 6.92439C11.4879 7.1132 11.3288 7.30472 11.173 7.49885C10.5957 8.21746 10.065 8.97235 9.5842 9.75886C9.43696 9.99982 9.29432 10.2436 9.15637 10.49H4.08606C4.38241 9.81765 4.70702 9.15814 5.05901 8.51321C5.69889 7.34005 6.42773 6.21766 7.23914 5.15588C7.43358 4.90131 7.63267 4.65033 7.8363 4.40305C7.95837 4.25388 8.08254 4.10681 8.20842 3.96033L9.59641 5.15588C9.66814 5.21731 9.73987 5.27947 9.8114 5.34109C10.3576 5.81145 10.9039 6.28157 11.45 6.75251C11.5169 6.80935 11.5833 6.86716 11.6501 6.92439ZM19.2152 10.49H14.1445C14.0068 10.2434 13.8641 9.9997 13.7167 9.75886C13.2357 8.97247 12.705 8.2176 12.1278 7.49885C11.9717 7.30479 11.8124 7.11326 11.6501 6.92434C11.717 6.86716 11.7834 6.80974 11.8503 6.75251C12.397 6.28157 12.9432 5.81086 13.4893 5.34109C13.561 5.27947 13.6327 5.21731 13.7045 5.15588C14.1672 4.75725 14.6301 4.35901 15.0925 3.96033C15.2182 4.10627 15.3423 4.25373 15.4645 4.40266C15.6684 4.64991 15.8675 4.90103 16.0617 5.15588C16.8731 6.21774 17.6021 7.34013 18.2423 8.51321C18.5942 9.15814 18.9188 9.81765 19.2152 10.49Z" fill="#EFB025"/>
<path d="M12.4996 6.92478C12.3372 7.11346 12.1781 7.30493 12.0224 7.4991C11.445 8.2178 10.9143 8.97277 10.4335 9.75935C8.90577 12.2566 7.89935 15.0372 7.47485 17.9337C6.83418 17.0839 6.24292 16.1646 5.71094 15.1815C4.7752 15.7919 3.8606 16.49 2.97998 17.2754C3.43019 14.2045 4.42175 11.2378 5.90855 8.5134C6.70205 7.05855 7.63192 5.68233 8.68564 4.4033C8.80794 4.25427 8.93197 4.10669 9.05772 3.96057C9.59219 4.42083 10.1263 4.88108 10.6609 5.34133C11.207 5.81165 11.7532 6.28181 12.2995 6.75276C12.3663 6.80959 12.4326 6.86741 12.4996 6.92478ZM22.0195 17.2754C21.1389 16.49 20.2243 15.7919 19.2886 15.1815C18.7566 16.1646 18.1653 17.0839 17.5247 17.9336C17.1002 15.0371 16.0938 12.2565 14.566 9.7593C14.0851 8.97282 13.5544 8.21788 12.9771 7.4991C12.8211 7.30511 12.6619 7.11365 12.4996 6.92478C12.5663 6.86741 12.6327 6.80999 12.6997 6.75276C13.2463 6.28181 13.7926 5.81111 14.3388 5.34133C14.8732 4.88049 15.4079 4.42083 15.9417 3.96057C16.0676 4.10652 16.1916 4.25397 16.3139 4.40291C17.3678 5.68205 18.2979 7.05839 19.0916 8.5134C20.578 11.238 21.5693 14.2046 22.0195 17.2754L22.0195 17.2754Z" fill="#FF4440"/>
<path d="M10.5094 6.9248H14.4903V10.49H10.5094V6.9248Z" fill="#FF4440"/>
<path d="M19.0916 8.51338L14.5661 9.75928C14.0852 8.9728 13.5545 8.21786 12.9772 7.49907L12.6997 6.75273L12.4996 6.21445L14.3389 5.34131L16.314 4.40283C17.3679 5.68199 18.298 7.05835 19.0916 8.51338Z" fill="#EA2F2F"/>
<path d="M12.4996 6.2145L12.2995 6.75278L12.0224 7.49912C11.445 8.21783 10.9143 8.97279 10.4335 9.75937L5.90857 8.51343C6.70207 7.05857 7.63195 5.68236 8.68567 4.40332L10.6609 5.34131L12.4996 6.2145Z" fill="#EA2F2F"/>
<path d="M19.7223 0.172967L12.4998 3.60295L13.8872 7.33429L21.5963 5.21237C22.6045 4.93483 23.1584 3.8528 22.7939 2.87262L22.1577 1.16174C21.7933 0.18156 20.667 -0.275666 19.7223 0.172967ZM5.2772 0.172967L12.4998 3.60295L11.1124 7.33429L3.40342 5.21237C2.39522 4.93483 1.84131 3.8528 2.20581 2.87262L2.8419 1.16174C3.2064 0.18156 4.33247 -0.275666 5.2772 0.172967Z" fill="#FF4440"/>
<path d="M14.2245 5.10246C14.1576 5.10257 14.0917 5.08579 14.033 5.05368C13.9744 5.02157 13.9247 4.97517 13.8888 4.91877C13.8606 4.87475 13.8414 4.82561 13.8322 4.77415C13.823 4.7227 13.8241 4.66995 13.8353 4.6189C13.8465 4.56785 13.8676 4.51951 13.8975 4.47664C13.9274 4.43378 13.9655 4.39722 14.0095 4.36906C14.0643 4.3342 15.3651 3.50636 16.8585 2.90231C19.0115 2.03141 20.4493 2.07814 21.1314 3.04118C21.1616 3.08384 21.1832 3.13204 21.1948 3.18303C21.2064 3.23402 21.2078 3.2868 21.199 3.33835C21.1902 3.38989 21.1713 3.4392 21.1435 3.48344C21.1156 3.52769 21.0793 3.56601 21.0366 3.59621C20.9939 3.62642 20.9457 3.64794 20.8948 3.65953C20.8438 3.67112 20.791 3.67256 20.7395 3.66375C20.688 3.65495 20.6387 3.63609 20.5945 3.60824C20.5502 3.58039 20.5119 3.54409 20.4817 3.50143C19.557 2.19606 15.7124 4.22585 14.4385 5.03991C14.3746 5.08079 14.3003 5.1025 14.2245 5.10246ZM10.7359 5.10246C10.6601 5.1025 10.5858 5.08079 10.5219 5.03991C9.24799 4.22585 5.40336 2.19606 4.47871 3.50138C4.41766 3.58756 4.32489 3.64595 4.22079 3.66373C4.1167 3.6815 4.00981 3.6572 3.92363 3.59616C3.83749 3.5351 3.77913 3.44232 3.7614 3.33823C3.74366 3.23414 3.76799 3.12728 3.82905 3.04113C4.51113 2.07814 5.94868 2.03136 8.1019 2.90226C9.59536 3.50617 10.8961 4.33415 10.9509 4.36906C11.0398 4.42593 11.1025 4.51578 11.1251 4.61885C11.1478 4.72192 11.1286 4.82978 11.0718 4.91872C11.0358 4.97509 10.9861 5.02147 10.9274 5.05358C10.8687 5.08568 10.8028 5.10253 10.7359 5.10246Z" fill="#EA2F2F"/>
<path d="M13.6324 2.32043H11.3673C10.7473 2.32043 10.2448 2.82302 10.2448 3.44314V6.73386C10.2448 7.35398 10.7473 7.85652 11.3673 7.85652H13.6324C14.2523 7.85652 14.7549 7.35393 14.7549 6.73386V3.44314C14.7549 2.82302 14.2523 2.32043 13.6324 2.32043Z" fill="#EA2F2F"/>
<path d="M10.5095 10.49H14.4904V24.9833H10.5095V10.49Z" fill="#FF4440"/>
<path d="M10.5095 10.49H14.4904V12.2415H10.5095V10.49Z" fill="#EA2F2F"/>
</g>
<defs>
<clipPath id="clip0_469_1537">
<rect width="25" height="25" fill="white"/>
</clipPath>
</defs>
</svg>
