<svg width="25" height="25" viewBox="0 0 25 25" fill="none" xmlns="http://www.w3.org/2000/svg">
<path d="M24.3 8.90296L16.6528 7.73862L13.2328 0.477455C12.9337 -0.157696 12.0665 -0.158003 11.7671 0.477455L8.34719 7.73862L0.699998 8.90296C0.0312017 9.00483 -0.237401 9.86889 0.24707 10.3636L5.7806 16.0156L4.47425 23.9963C4.44847 24.1538 4.46525 24.3157 4.52271 24.4638C4.58016 24.6118 4.67599 24.74 4.79936 24.8339C4.92274 24.9278 5.06873 24.9837 5.22083 24.9952C5.37292 25.0067 5.52506 24.9734 5.66004 24.8991L12.5 21.1312C19.9465 25.2333 19.435 24.9975 19.7201 24.9975C20.2238 24.9975 20.6116 24.5217 20.5257 23.9963L19.2194 16.0156L24.7529 10.3636C25.2369 9.86925 24.9693 9.00493 24.3 8.90296Z" fill="#F7AC16"/>
<path d="M12.5 0C12.3475 8.48833e-06 12.198 0.0447182 12.0685 0.129075C11.939 0.213433 11.8346 0.334074 11.7671 0.477361L8.34714 7.73853L0.699998 8.90287C0.0312017 9.00474 -0.237401 9.8688 0.24707 10.3636L5.7806 16.0156L4.47425 23.9962C4.44847 24.1537 4.46525 24.3156 4.52271 24.4637C4.58016 24.6117 4.67599 24.7399 4.79936 24.8338C4.92274 24.9277 5.06873 24.9836 5.22083 24.9951C5.37292 25.0067 5.52506 24.9733 5.66004 24.899L12.5 21.1311H12.5V0Z" fill="#F2D422"/>
<path d="M0.699998 8.90268C0.0312017 9.00454 -0.237401 9.8686 0.24707 10.3634L5.7806 16.0154L4.47425 23.996C4.44847 24.1535 4.46525 24.3154 4.52271 24.4635C4.58016 24.6115 4.67599 24.7397 4.79937 24.8336C4.92274 24.9275 5.06873 24.9834 5.22083 24.9949C5.37293 25.0065 5.52507 24.9731 5.66004 24.8988L12.5 21.1309C19.9465 25.233 19.435 24.9972 19.7201 24.9972C19.8927 24.9973 20.0609 24.94 20.2005 24.8337L8.34714 7.73828L0.699998 8.90268Z" fill="#F7AC16"/>
<path d="M8.71862 15.0298C2.7912 8.97549 3.04599 9.29997 2.96644 8.98598C2.93407 8.85986 2.92743 8.71312 2.96264 8.55835L0.699998 8.90284C0.0312017 9.00471 -0.237401 9.86877 0.24707 10.3635L5.78059 16.0155L4.47425 23.9963C4.44847 24.1537 4.46525 24.3157 4.52271 24.4637C4.58016 24.6117 4.67599 24.7399 4.79936 24.8338C4.92273 24.9278 5.06873 24.9836 5.22082 24.9952C5.37292 25.0067 5.52506 24.9734 5.66004 24.899L7.67111 23.7911C7.56858 23.6945 7.49107 23.5722 7.44581 23.4357C7.40055 23.2992 7.38901 23.1529 7.41228 23.0105L8.71862 15.0298Z" fill="#F48B19"/>
<path d="M0.24711 10.3637L5.78064 16.0157L4.47429 23.9964C4.44851 24.1539 4.46529 24.3158 4.52275 24.4638C4.5802 24.6118 4.67603 24.7401 4.7994 24.834C4.92278 24.9279 5.06877 24.9838 5.22087 24.9953C5.37296 25.0068 5.5251 24.9735 5.66008 24.8991L12.5 21.1313C19.9466 25.2333 19.4351 24.9976 19.7201 24.9976C20.2238 24.9976 20.6117 24.5218 20.5257 23.9964L19.2194 16.0157L0.0402261 9.48584C-0.0553302 9.84476 0.0403238 10.1526 0.24711 10.3637Z" fill="#F2D422"/>
<path d="M0.24711 10.3637L5.78064 16.0157L4.47429 23.9964C4.44851 24.1539 4.46529 24.3158 4.52275 24.4638C4.5802 24.6118 4.67603 24.7401 4.7994 24.834C4.92278 24.9279 5.06877 24.9838 5.22086 24.9953C5.37296 25.0068 5.5251 24.9735 5.66008 24.8991L7.67116 23.7913C7.56862 23.6946 7.49111 23.5724 7.44585 23.4359C7.40059 23.2994 7.38905 23.1531 7.41232 23.0106L8.71866 15.0299L4.91604 11.1459L0.0402261 9.48584C-0.0553302 9.84476 0.0403238 10.1526 0.24711 10.3637Z" fill="#EFB616"/>
<path d="M4.47429 23.9963C4.44851 24.1538 4.46529 24.3157 4.52274 24.4638C4.5802 24.6118 4.67603 24.74 4.7994 24.8339C4.92277 24.9278 5.06876 24.9837 5.22086 24.9952C5.37296 25.0068 5.5251 24.9734 5.66008 24.8991L12.5 21.1312C19.9466 25.2333 19.4351 24.9975 19.7201 24.9975C20.2238 24.9975 20.6117 24.5217 20.5257 23.9963L19.2194 16.0157L24.753 10.3637C24.8621 10.2521 24.9394 10.1108 24.9759 9.95567C25.0124 9.80055 25.0069 9.63781 24.9598 9.48584L5.78063 16.0157L4.47429 23.9963Z" fill="#F7AC16"/>
<path d="M4.47429 23.9962C4.44851 24.1537 4.46529 24.3156 4.52274 24.4636C4.5802 24.6116 4.67603 24.7398 4.7994 24.8337C4.92277 24.9277 5.06876 24.9835 5.22086 24.9951C5.37296 25.0066 5.5251 24.9733 5.66008 24.8989L7.67115 23.791C7.56862 23.6944 7.49111 23.5721 7.44585 23.4356C7.40059 23.2991 7.38905 23.1528 7.41232 23.0104L8.71866 15.0297L8.70797 15.0188L5.78063 16.0155L4.47429 23.9962Z" fill="#F48B19"/>
<path d="M5.66013 24.8987L12.5 21.1309C19.9466 25.2329 19.4351 24.9972 19.7201 24.9972C20.2238 24.9972 20.6117 24.5213 20.5257 23.996L19.2194 16.0153L24.753 10.3633C25.2369 9.86891 24.9693 9.00459 24.3 8.90262L16.6528 7.73828L4.79944 24.8336C4.92282 24.9275 5.06881 24.9834 5.22091 24.9949C5.37301 25.0064 5.52515 24.9731 5.66013 24.8987Z" fill="#F2D422"/>
<path d="M24.9598 9.48584L12.5 13.728L4.79944 24.834C4.92281 24.9279 5.06879 24.9838 5.22089 24.9953C5.37298 25.0068 5.52511 24.9735 5.66008 24.8991L12.5 21.1313C19.9466 25.2333 19.4351 24.9976 19.7201 24.9976C20.2238 24.9976 20.6117 24.5218 20.5257 23.9964L19.2194 16.0157L24.753 10.3637C24.8622 10.2522 24.9394 10.1108 24.9759 9.9557C25.0125 9.80057 25.0069 9.63782 24.9598 9.48584Z" fill="#F7AC16"/>
<path d="M19.2195 16.0155L12.5 13.7278L4.79944 24.8338C4.92281 24.9277 5.06879 24.9836 5.22089 24.9951C5.37298 25.0066 5.52511 24.9733 5.66008 24.899L12.5 21.1311C19.9466 25.2332 19.4351 24.9974 19.7201 24.9974C20.2238 24.9974 20.6117 24.5216 20.5257 23.9962L19.2195 16.0155Z" fill="#F2D422"/>
<path d="M4.79944 24.8338C4.92281 24.9277 5.06879 24.9836 5.22089 24.9951C5.37298 25.0066 5.52511 24.9733 5.66008 24.899L12.5 21.1311C19.9466 25.2332 19.4351 24.9974 19.7201 24.9974C19.8927 24.9974 20.0609 24.9402 20.2006 24.8338L12.5 13.7278L4.79944 24.8338Z" fill="#F7AC16"/>
<path d="M12.5 13.7279L12.5 13.7278L4.79944 24.8338C4.92281 24.9277 5.06879 24.9836 5.22089 24.9951C5.37298 25.0066 5.52511 24.9733 5.66008 24.899L12.5 21.1311H12.5V13.7279Z" fill="#F2D422"/>
<path d="M7.82907 20.4644L4.79944 24.8338C4.92281 24.9277 5.06879 24.9836 5.22089 24.9951C5.37298 25.0066 5.52511 24.9733 5.66008 24.8989L7.67116 23.791C7.56862 23.6944 7.49111 23.5721 7.44585 23.4356C7.40059 23.2991 7.38906 23.1528 7.41232 23.0104L7.82907 20.4644Z" fill="#EFB616"/>
</svg>
