<svg width="35" height="35" viewBox="0 0 512 512" fill="none" xmlns="http://www.w3.org/2000/svg"><g clip-path="url(#clip0_3276_24831)"><path d="M469.309 68.3601L440.049 360.93H117.953L88.6934 68.3601H469.309Z" fill="#4ABBEF"></path><path d="M469.309 68.3601L440.049 360.93H273.859V68.3601H469.309Z" fill="#009BE5"></path><path d="M512 109.72C512 170.31 462.88 219.43 402.29 219.43C341.69 219.43 292.57 170.31 292.57 109.72C292.57 49.12 341.69 0 402.29 0C462.88 0 512 49.12 512 109.72Z" fill="#83E470"></path><path d="M511.999 109.72C511.999 170.31 462.879 219.43 402.289 219.43V0C462.879 0 511.999 49.12 511.999 109.72Z" fill="#01B763"></path><path d="M459.699 91.95L402.289 149.36L392.339 159.31L344.869 111.84L366.089 90.63L392.339 116.88L402.289 106.93L438.479 70.74L459.699 91.95Z" fill="#F3FDFF"></path><path d="M459.699 91.95L402.289 149.36V106.93L438.479 70.74L459.699 91.95Z" fill="#D7F3F7"></path><path d="M327.924 275.429H357.924V305.429H327.924V275.429Z" fill="#224370"></path><path d="M258.859 275.43H288.859V305.43H258.859V275.43Z" fill="#39689E"></path><path d="M273.859 275.43H288.859V305.43H273.859V275.43Z" fill="#224370"></path><path d="M189.799 275.429H219.799V305.429H189.799V275.429Z" fill="#39689E"></path><path d="M98.87 393C98.47 404.04 107.34 413.14 118.29 413.14H441.67C441.7 413.14 441.71 413.16 441.71 413.18V443.1C441.71 443.12 441.7 443.14 441.67 443.14H119.15C91.81 443.14 69 421.31 68.86 393.97C68.75 372.32 82.63 353.86 101.96 347.07C101.98 347.06 101.99 347.05 101.99 347.03L70.29 30.04C70.28 30.02 70.27 30 70.25 30H0.04C0.02 30 0 29.98 0 29.96V0.04C0 0.02 0.02 0 0.04 0H97.4C97.42 0 97.43 0.02 97.44 0.04L131.86 344.25C131.86 344.27 131.88 344.29 131.9 344.29H441.67C441.7 344.29 441.71 344.3 441.71 344.33V374.25C441.71 374.27 441.7 374.29 441.67 374.29H118.8C108.26 374.29 99.25 382.47 98.87 393Z" fill="#39689E"></path><path d="M441.709 344.33V374.25C441.709 374.27 441.699 374.29 441.669 374.29H273.859V344.29H441.669C441.699 344.29 441.709 344.3 441.709 344.33ZM441.669 413.14C441.699 413.14 441.709 413.16 441.709 413.18V443.1C441.709 443.12 441.699 443.14 441.669 443.14H273.859V413.14H441.669Z" fill="#224370"></path><path d="M181.567 512C201.765 512 218.138 495.626 218.138 475.429C218.138 455.231 201.765 438.858 181.567 438.858C161.369 438.858 144.996 455.231 144.996 475.429C144.996 495.626 161.369 512 181.567 512Z" fill="#4ABBEF"></path><path d="M364.86 512C385.058 512 401.431 495.626 401.431 475.429C401.431 455.231 385.058 438.858 364.86 438.858C344.662 438.858 328.289 455.231 328.289 475.429C328.289 495.626 344.662 512 364.86 512Z" fill="#009BE5"></path></g><defs><clipPath id="clip0_3276_24831"><rect width="512" height="512" fill="white"></rect></clipPath></defs></svg>