<svg width="35" height="35" viewBox="0 0 35 35" fill="none" xmlns="http://www.w3.org/2000/svg"><path fill-rule="evenodd" clip-rule="evenodd" d="M34.3848 15.8159L34.3847 31.5506C34.3847 32.6777 33.4653 33.5971 32.3381 33.5971H2.66191C1.53467 33.5971 0.615234 32.6777 0.615234 31.5504V15.8159C0.615234 15.187 0.868779 14.6459 1.35187 14.2434L16.19 1.88143C16.9559 1.2433 18.0441 1.2433 18.8101 1.88143L33.6481 14.2434C34.1312 14.6459 34.3848 15.1871 34.3848 15.8159Z" fill="#FBC505"></path><path fill-rule="evenodd" clip-rule="evenodd" d="M30.1752 29.6566H4.82617V9.57717C4.82617 9.20673 4.95612 8.88797 5.21521 8.62314L9.08995 4.66145C9.35642 4.3891 9.68427 4.25122 10.0654 4.25122H29.493C29.8687 4.25122 30.1752 4.55768 30.1752 4.93345V29.6566Z" fill="#EFF4F7"></path><path fill-rule="evenodd" clip-rule="evenodd" d="M8.76002 8.91618C9.16177 8.91618 9.49023 8.58806 9.49023 8.1859V4.37329C9.34422 4.44124 9.21023 4.53735 9.0889 4.66136L5.21415 8.62306C5.12764 8.71062 5.05302 8.80917 4.99219 8.91618H8.76002Z" fill="#E2E3E3"></path><path fill-rule="evenodd" clip-rule="evenodd" d="M24.9288 7.47538C25.0539 7.4054 25.2015 7.38757 25.3397 7.42575C25.4778 7.46393 25.5954 7.55504 25.6668 7.67932C25.7382 7.80361 25.7577 7.95103 25.7211 8.08962C25.6845 8.22821 25.5948 8.34679 25.4713 8.41963L23.9763 9.28273C23.8512 9.35271 23.7036 9.37054 23.5654 9.33236C23.4273 9.29418 23.3097 9.20307 23.2383 9.07878C23.1669 8.9545 23.1474 8.80708 23.184 8.66849C23.2206 8.5299 23.3103 8.41132 23.4338 8.33848L24.9288 7.47538ZM22.7083 5.39527L21.8369 6.90451C21.7669 7.0296 21.7491 7.17724 21.7873 7.3154C21.8254 7.45356 21.9165 7.5711 22.0408 7.64251C22.1651 7.71392 22.3125 7.73345 22.4511 7.69687C22.5897 7.66028 22.7083 7.57053 22.7811 7.44708L23.6525 5.93784C23.7225 5.81274 23.7403 5.6651 23.7021 5.52694C23.664 5.38878 23.5728 5.27125 23.4486 5.19984C23.3243 5.12843 23.1769 5.10889 23.0383 5.14548C22.8997 5.18207 22.7811 5.27182 22.7083 5.39527ZM26.1655 10.2924C26.3085 10.2947 26.4449 10.3531 26.5452 10.455C26.6455 10.5569 26.7017 10.6942 26.7017 10.8372C26.7017 10.9802 26.6455 11.1174 26.5452 11.2193C26.4449 11.3213 26.3085 11.3796 26.1655 11.3819H24.4228C24.2799 11.3796 24.1435 11.3213 24.0432 11.2193C23.9429 11.1174 23.8867 10.9802 23.8867 10.8372C23.8867 10.6942 23.9429 10.5569 24.0432 10.455C24.1435 10.3531 24.2799 10.2947 24.4228 10.2924H26.1655Z" fill="#FFE600"></path><path fill-rule="evenodd" clip-rule="evenodd" d="M13.8543 15.4434L12.4414 16.7112L15.1819 21.4578C15.3073 21.675 15.5868 21.7499 15.8039 21.6246L16.6238 21.1512C16.8411 21.0257 16.9159 20.7463 16.7905 20.5291L13.8543 15.4434Z" fill="#2D4853"></path><path fill-rule="evenodd" clip-rule="evenodd" d="M12.9851 17.1362L11.0262 14.2632L9.69953 15.0292C8.87368 15.506 8.58814 16.5717 9.06495 17.3975C9.54176 18.2234 10.6075 18.5089 11.4333 18.0322L12.9851 17.1362ZM21.6288 11.7725C22.3562 11.3525 22.6078 10.4137 22.1878 9.68626C21.7678 8.95885 20.8289 8.70729 20.1016 9.12722C19.3742 9.54722 19.1226 10.486 19.5426 11.2134C19.9625 11.9408 20.9013 12.1924 21.6288 11.7725Z" fill="#2D4853"></path><path fill-rule="evenodd" clip-rule="evenodd" d="M12.4227 11.907L10.0753 13.2623C9.62478 13.5224 9.46953 14.102 9.72964 14.5525L11.7449 18.0431C12.0051 18.4936 12.5846 18.6489 13.0352 18.3888L15.3826 17.0335L22.7163 15.4151C22.906 15.357 23.0452 15.2282 23.1179 15.0437C23.1906 14.859 23.1765 14.6699 23.0773 14.4982L18.4658 6.51078C18.3666 6.33892 18.2099 6.23221 18.0137 6.20289C17.8174 6.17356 17.6364 6.22975 17.4912 6.36497L12.4227 11.907Z" fill="#FFE600"></path><path fill-rule="evenodd" clip-rule="evenodd" d="M17.2135 5.655C16.8487 5.86562 16.7225 6.33634 16.9331 6.70117L22.146 15.7301C22.3566 16.0949 22.8273 16.221 23.1921 16.0105C23.5569 15.7999 23.683 15.3292 23.4724 14.9644L18.2596 5.93528C18.0489 5.57051 17.5782 5.44439 17.2135 5.655ZM11.7448 18.043C12.0049 18.4935 12.5844 18.6488 13.035 18.3886L15.3824 17.0334L12.4226 11.9069L10.0752 13.2622C9.62502 13.5221 9.4695 14.102 9.72954 14.5525L11.7448 18.043Z" fill="#EB3B48"></path><path fill-rule="evenodd" clip-rule="evenodd" d="M0.793584 14.9639C0.675596 15.223 0.615234 15.509 0.615234 15.8159V31.5505C0.615234 32.1018 0.835215 32.6035 1.19185 32.9722C1.5644 33.3573 2.08599 33.5973 2.66191 33.5973H32.3381C32.9139 33.5973 33.4356 33.3573 33.8081 32.9723C34.1647 32.6036 34.3847 32.102 34.3847 31.5507L34.3848 15.8159C34.3848 15.5091 34.3244 15.2232 34.2064 14.9639L18.5509 24.3327C17.8867 24.7301 17.1131 24.7301 16.4489 24.3327L0.793584 14.9639Z" fill="#FFE600"></path><path fill-rule="evenodd" clip-rule="evenodd" d="M11.7539 21.5232L1.19141 32.9721C1.56396 33.3572 2.08555 33.5972 2.66147 33.5972H32.3376C32.9135 33.5972 33.4352 33.3572 33.8076 32.9722L23.2451 21.5232L18.5504 24.3326C17.8863 24.7301 17.1126 24.7301 16.4485 24.3326L11.7539 21.5232Z" fill="#FBC505"></path></svg>