<svg width="80" height="80" viewBox="0 0 80 80" fill="none" xmlns="http://www.w3.org/2000/svg">
<path fill-rule="evenodd" clip-rule="evenodd" d="M9.74922 41.9105L13.203 32.7827L9.74922 21.9805L1.17188 32.9925L9.74922 41.9105ZM54.7923 21.9805L52.4869 30.4877L54.7923 38.1159L58.6317 39.4188L63.3697 32.9925L54.7923 21.9805Z" fill="#FEB237"/>
<path fill-rule="evenodd" clip-rule="evenodd" d="M9.75 41.9103L29.942 53.8928C31.6383 54.8983 33.0845 54.8983 34.7764 53.8928L54.7931 41.9409V10.0547H9.75V41.9103Z" fill="#F2FBFF"/>
<path fill-rule="evenodd" clip-rule="evenodd" d="M29.942 44.6033L9.75 32.6208V41.9103L29.942 53.8928C31.6383 54.8983 33.0845 54.8983 34.7764 53.8928L54.7931 41.9409V10.0547H49.6564V35.7202L34.7764 44.6031C33.0845 45.6087 31.6383 45.6087 29.942 44.6033Z" fill="#DFF6FD"/>
<path fill-rule="evenodd" clip-rule="evenodd" d="M4.37141 70.1249H60.1658C61.9277 70.1249 63.3697 68.6866 63.3697 66.9292V32.9927L34.7756 50.0681C33.0837 51.0692 31.6375 51.0692 29.9412 50.0681L9.74922 38.0813L1.17188 32.9927V66.9292C1.17188 68.6866 2.60953 70.1249 4.37141 70.1249Z" fill="#FFD15B"/>
<path fill-rule="evenodd" clip-rule="evenodd" d="M58.6331 35.8211V66.9292C58.6331 68.6866 57.1911 70.1249 55.4336 70.1249H60.1672C61.9291 70.1249 63.3711 68.6866 63.3711 66.9292V32.9927L58.6331 35.8211Z" fill="#FFC344"/>
<path fill-rule="evenodd" clip-rule="evenodd" d="M70.1094 50.8723C69.0288 50.2329 67.863 49.7502 66.6469 49.4384V48.0307C66.6469 47.3574 66.0947 46.8066 65.4197 46.8066H61.3173C60.6423 46.8066 60.0902 47.3574 60.0902 48.0307V49.4384C58.8542 49.753 57.6927 50.2427 56.6233 50.8723L55.6239 49.8754C55.1461 49.3988 54.3616 49.3988 53.8883 49.8754L50.9869 52.7651C50.5091 53.2416 50.5091 54.0241 50.9869 54.4962L51.9863 55.4973C51.3552 56.564 50.8642 57.7224 50.553 58.9552H49.1373C48.4623 58.9552 47.9102 59.506 47.9102 60.1793V64.2666C47.9102 64.9399 48.4623 65.4907 49.1373 65.4907H50.553C50.8642 66.7235 51.355 67.8863 51.9863 68.9487L50.9869 69.9498C50.5091 70.4263 50.5091 71.2044 50.9869 71.6809L53.8883 74.5705C54.3661 75.0471 55.1463 75.0471 55.6239 74.5705L56.6233 73.5738C57.7045 74.215 58.872 74.6979 60.0902 75.0077V76.4198C60.0902 77.093 60.6423 77.6438 61.3173 77.6438H65.4197C66.0947 77.6438 66.6469 77.093 66.6469 76.4198V75.0077C67.8637 74.6979 69.0298 74.215 70.1094 73.5738L71.1131 74.5705C71.5909 75.0471 72.3711 75.0471 72.8488 74.5705L75.7503 71.6809C76.2236 71.2043 76.2236 70.4262 75.7503 69.9498L74.7466 68.9487C75.3899 67.8713 75.8741 66.7066 76.1842 65.4907H77.5998C78.2748 65.4907 78.827 64.9399 78.827 64.2666V60.1793C78.827 59.506 78.2748 58.9552 77.5998 58.9552H76.1842C75.8733 57.7396 75.3892 56.575 74.7466 55.4973L75.7503 54.4962C76.2236 54.024 76.2236 53.2415 75.7503 52.7651L72.8488 49.8754C72.3711 49.3988 71.5909 49.3988 71.1131 49.8754L70.1094 50.8723Z" fill="#3C87D0"/>
<path fill-rule="evenodd" clip-rule="evenodd" d="M57.1719 62.2254C57.1719 65.6396 59.9463 68.4068 63.3694 68.4068C66.7925 68.4068 69.5669 65.6396 69.5669 62.2254C69.5669 58.8111 66.7925 56.0439 63.3694 56.0439C59.9463 56.0439 57.1719 58.8111 57.1719 62.2254Z" fill="#F2FBFF"/>
<path fill-rule="evenodd" clip-rule="evenodd" d="M66.0605 61.9105C66.0605 64.905 63.9216 67.4055 61.0859 67.9739C61.8135 68.2592 62.5879 68.406 63.3694 68.4068C66.7925 68.4068 69.5669 65.6396 69.5669 62.2254C69.5669 58.8111 66.7925 56.0439 63.3694 56.0439C62.9486 56.0439 62.5409 56.0833 62.1466 56.1619C64.4387 57.0711 66.0605 59.3007 66.0605 61.9105Z" fill="#DFF6FD"/>
<path fill-rule="evenodd" clip-rule="evenodd" d="M67.582 49.7139C70.4659 53.0188 72.2236 57.4078 72.2236 62.2253C72.2236 67.0428 70.4661 71.4319 67.582 74.7324C68.4717 74.435 69.3177 74.0416 70.1109 73.5739L71.1147 74.5706C71.5925 75.0472 72.3727 75.0472 72.8503 74.5706L75.7519 71.681C76.2252 71.2044 76.2252 70.4263 75.7519 69.9499L74.7481 68.9488C75.3914 67.8714 75.8756 66.7067 76.1858 65.4908H77.6014C78.2764 65.4908 78.8286 64.94 78.8286 64.2667V60.1794C78.8286 59.5061 78.2764 58.9553 77.6014 58.9553H76.1858C75.8749 57.7397 75.3907 56.5751 74.7481 55.4974L75.7519 54.4963C76.2252 54.0241 76.2252 53.2416 75.7519 52.7652L72.8503 49.8755C72.3727 49.3989 71.5925 49.3989 71.1147 49.8755L70.1109 50.8722C69.3099 50.4004 68.4625 50.0122 67.582 49.7139Z" fill="#4F66D0"/>
<path d="M63.3694 68.4068C59.9464 68.4068 57.1719 65.6396 57.1719 62.2254C57.1719 58.8111 59.9463 56.0439 63.3694 56.0439C66.7925 56.0439 69.5669 58.8111 69.5669 62.2254C69.5667 65.6394 66.7923 68.4068 63.3694 68.4068Z" stroke="black" stroke-width="2" stroke-miterlimit="10" stroke-linecap="round" stroke-linejoin="round"/>
<path d="M20.4297 26.0243H44.1105M20.4297 32.35H44.1105M26.5877 19.6943H37.9481M70.1098 50.8725C69.0293 50.2331 67.8635 49.7504 66.6473 49.4386V48.0309C66.6473 47.3576 66.0952 46.8068 65.4202 46.8068H61.3178C60.6428 46.8068 60.0906 47.3576 60.0906 48.0309V49.4386C58.8547 49.7532 57.6931 50.2429 56.6237 50.8725L55.6244 49.8756C55.1466 49.399 54.3664 49.399 53.8888 49.8756L50.9873 52.7653C50.5095 53.2418 50.5095 54.0243 50.9873 54.4964L51.9867 55.4975C51.3556 56.5642 50.8647 57.7226 50.5534 58.9554H49.1378C48.4628 58.9554 47.9106 59.5062 47.9106 60.1795V64.2668C47.9106 64.9401 48.4628 65.4909 49.1378 65.4909H50.5534C50.8647 66.7237 51.3555 67.8865 51.9867 68.9489L50.9873 69.95C50.5095 70.4265 50.5095 71.2046 50.9873 71.6811L53.8888 74.5707C54.3666 75.0473 55.1467 75.0473 55.6244 74.5707L56.6237 73.574C57.7049 74.2152 58.8724 74.6981 60.0906 75.0079V76.42C60.0906 77.0932 60.6428 77.644 61.3178 77.644H65.4202C66.0952 77.644 66.6473 77.0932 66.6473 76.42V75.0079C67.8642 74.6981 69.0302 74.2152 70.1098 73.574L71.1136 74.5707C71.5914 75.0473 72.3716 75.0473 72.8492 74.5707L75.7508 71.6811C76.2241 71.2045 76.2241 70.4264 75.7508 69.95L74.747 68.9489C75.3903 67.8715 75.8745 66.7068 76.1847 65.4909H77.6003C78.2753 65.4909 78.8275 64.9401 78.8275 64.2668V60.1795C78.8275 59.5062 78.2753 58.9554 77.6003 58.9554H76.1847C75.8738 57.7398 75.3896 56.5752 74.747 55.4975L75.7508 54.4964C76.2241 54.0242 76.2241 53.2417 75.7508 52.7653L72.8492 49.8756C72.3716 49.399 71.5914 49.399 71.1136 49.8756L70.1098 50.8725Z" stroke="black" stroke-width="2" stroke-miterlimit="10" stroke-linecap="round" stroke-linejoin="round"/>
<path fill-rule="evenodd" clip-rule="evenodd" d="M12.7133 20.4549C7.70359 20.4549 3.64062 16.4024 3.64062 11.4057C3.64062 6.40895 7.70359 2.35645 12.7133 2.35645C17.7273 2.35645 21.7859 6.40895 21.7859 11.4057C21.7859 16.4024 17.7273 20.4549 12.7133 20.4549Z" fill="#FD4755"/>
<path fill-rule="evenodd" clip-rule="evenodd" d="M11.0511 2.50504C14.6406 3.36629 17.4019 6.35207 17.9147 10.0547C17.9673 10.4657 17.998 10.881 17.998 11.305C17.998 15.7379 14.8028 19.4274 10.582 20.2055C11.28 20.3709 11.9949 20.4545 12.7122 20.4547C17.7263 20.4547 21.7848 16.4022 21.7848 11.4055C21.7848 10.9464 21.7542 10.4963 21.6884 10.0547C21.0353 5.69629 17.2661 2.35645 12.7122 2.35645C12.1469 2.35645 11.5902 2.40879 11.0511 2.50504Z" fill="#E94444"/>
<path d="M12.7133 20.4549C7.70359 20.4549 3.64062 16.4024 3.64062 11.4057C3.64062 6.40895 7.70359 2.35645 12.7133 2.35645C17.7273 2.35645 21.7859 6.40895 21.7859 11.4057C21.7859 16.4024 17.7273 20.4549 12.7133 20.4549Z" stroke="black" stroke-width="2" stroke-miterlimit="10" stroke-linecap="round" stroke-linejoin="round"/>
<path d="M11.555 7.95215H13.0802V15.0559M9.74922 21.9804L1.17188 32.9925M1.17188 32.9925V66.929C1.17188 68.6864 2.60953 70.1246 4.37141 70.1246H29.4328M1.17188 32.9925L29.9412 50.0678C31.6375 51.0689 33.0837 51.0689 34.7756 50.0678L63.3697 32.9925M54.7923 21.9804L63.3697 32.9925M63.3697 32.9925V46.8067M1.89063 68.9443L29.4197 49.7575M50.8433 70.1246H34.7887M48.538 59.1126L35.2008 49.8143" stroke="black" stroke-width="2" stroke-miterlimit="10" stroke-linecap="round" stroke-linejoin="round"/>
<path d="M54.7931 38.1158V10.0547H35.4337M30.0778 10.0547H21.6889M9.75 19.9606V38.0808" stroke="black" stroke-width="2" stroke-miterlimit="10" stroke-linecap="round" stroke-linejoin="round"/>
</svg>
