<svg width="26" height="26" viewBox="0 0 26 26" fill="none" xmlns="http://www.w3.org/2000/svg">
<g clip-path="url(#clip0_801_1464)">
<path d="M25.8768 12.7035L23.822 10.6487C23.304 10.1323 22.6997 9.71038 22.0364 9.40202C22.4366 8.52929 22.6441 7.58061 22.6449 6.62051V3.77442C22.6449 3.66321 22.6007 3.55655 22.5221 3.4779C22.4434 3.39926 22.3368 3.35508 22.2256 3.35508H19.3795C18.4193 3.35565 17.4704 3.56303 16.5975 3.96313C16.2892 3.29985 15.8673 2.69557 15.3508 2.17756L13.296 0.122778C13.2174 0.0441634 13.1108 0 12.9996 0C12.8884 0 12.7817 0.0441634 12.7031 0.122778L10.6483 2.17756C10.1319 2.69557 9.70996 3.29985 9.4016 3.96313C8.52896 3.56316 7.58044 3.35578 6.62051 3.35508H3.77442C3.66321 3.35508 3.55655 3.39926 3.4779 3.4779C3.39926 3.55655 3.35508 3.66321 3.35508 3.77442V6.62051C3.35565 7.58072 3.56304 8.52955 3.96313 9.40244C3.29985 9.7108 2.69557 10.1327 2.17756 10.6491L0.122778 12.7039C0.0441634 12.7826 0 12.8892 0 13.0004C0 13.1116 0.0441634 13.2182 0.122778 13.2969L2.17756 15.3517C2.69557 15.8681 3.29985 16.29 3.96313 16.5984C3.56316 17.471 3.35578 18.4195 3.35508 19.3795V22.2256C3.35508 22.3368 3.39926 22.4434 3.4779 22.5221C3.55655 22.6007 3.66321 22.6449 3.77442 22.6449H6.62051C7.58072 22.6443 8.52955 22.4369 9.40244 22.0369C9.7108 22.7001 10.1327 23.3044 10.6491 23.8224L12.7039 25.8772C12.7826 25.9558 12.8892 26 13.0004 26C13.1116 26 13.2182 25.9558 13.2969 25.8772L15.3517 23.8224C15.8681 23.3044 16.29 22.7001 16.5984 22.0369C17.471 22.4368 18.4195 22.6442 19.3795 22.6449H22.2256C22.3368 22.6449 22.4434 22.6007 22.5221 22.5221C22.6007 22.4434 22.6449 22.3368 22.6449 22.2256V19.3795C22.6443 18.4193 22.4369 17.4704 22.0368 16.5975C22.7001 16.2892 23.3044 15.8673 23.8224 15.3508L25.8772 13.296C25.9556 13.2174 25.9996 13.1108 25.9996 12.9997C25.9995 12.8886 25.9553 12.7821 25.8768 12.7035ZM16.9062 4.74479C17.6804 4.38248 18.5247 4.19439 19.3795 4.19377H21.8062V6.62051C21.8058 7.47556 21.6179 8.32012 21.2556 9.09464C20.6466 8.90384 20.0122 8.8067 19.374 8.80655H19.2063C18.3248 8.80629 17.4531 8.99206 16.6483 9.3517C17.0079 8.54688 17.1937 7.67522 17.1934 6.7937V6.62596C17.1935 5.98797 17.0967 5.35367 16.9062 4.74479ZM19.2063 9.64524H19.374C19.8694 9.64623 20.3623 9.71454 20.8392 9.8482C20.6193 10.1803 20.3664 10.4894 20.0844 10.7708L19.9955 10.8597C19.4515 11.4064 18.8045 11.8399 18.0919 12.135C17.3793 12.4301 16.6153 12.581 15.844 12.579L14.0123 12.5806L15.3508 11.2421C15.856 10.7342 16.4568 10.3316 17.1186 10.0575C17.7804 9.78336 18.49 9.64325 19.2063 9.64524ZM16.3547 6.62596V6.7937C16.3567 7.50994 16.2165 8.21945 15.9424 8.88116C15.6683 9.54288 15.2657 10.1437 14.7579 10.6487L13.4193 11.9877V10.1539C13.4173 9.38262 13.5682 8.61859 13.8633 7.90599C14.1584 7.1934 14.5919 6.54639 15.1386 6.0024L15.2275 5.9135C15.5089 5.6315 15.818 5.37861 16.1501 5.15868C16.2845 5.63623 16.3534 6.12985 16.3547 6.62596ZM11.2421 2.77052L13 1.01263L14.7579 2.77052C15.2166 3.23086 15.5892 3.76971 15.8578 4.36151C15.4147 4.63297 15.0045 4.95479 14.6354 5.32055L14.5465 5.40945C13.8615 6.09498 13.3338 6.92132 13 7.83116C12.6663 6.92151 12.1387 6.09532 11.4539 5.40987L11.365 5.32096C10.9957 4.95504 10.5854 4.63308 10.1422 4.36151C10.4108 3.76973 10.7834 3.23088 11.2421 2.77052ZM9.64524 6.62596C9.64624 6.13063 9.71452 5.63773 9.8482 5.16078C10.1803 5.38069 10.4894 5.63358 10.7708 5.91559L10.8597 6.0045C11.4064 6.54849 11.8399 7.1955 12.135 7.90809C12.4301 8.62068 12.581 9.38472 12.579 10.156V11.9898L11.2404 10.6512C10.7326 10.1457 10.3301 9.54448 10.0563 8.88232C9.78246 8.22016 9.64275 7.51024 9.64524 6.7937V6.62596ZM10.6487 11.2421L11.9877 12.5806H10.1539C9.38262 12.5827 8.61859 12.4318 7.90599 12.1367C7.1934 11.8416 6.54639 11.4081 6.0024 10.8613L5.9135 10.7724C5.6315 10.4911 5.37861 10.182 5.15868 9.84988C5.63624 9.71549 6.12985 9.64665 6.62596 9.64524H6.7937C7.50994 9.64329 8.21945 9.78343 8.88116 10.0575C9.54288 10.3316 10.1437 10.7343 10.6487 11.2421ZM4.19377 4.19377H6.62051C7.47556 4.19415 8.32012 4.3821 9.09464 4.74437C8.90384 5.35335 8.8067 5.98779 8.80655 6.62596V6.7937C8.80629 7.67522 8.99206 8.54688 9.3517 9.3517C8.54688 8.99206 7.67522 8.80629 6.7937 8.80655H6.62596C5.98797 8.80648 5.35368 8.90333 4.74479 9.0938C4.38248 8.31958 4.19439 7.47531 4.19377 6.62051V4.19377ZM2.77052 14.7579L1.01263 13L2.77052 11.2421C3.23086 10.7833 3.76971 10.4108 4.36151 10.1422C4.63297 10.5852 4.95479 10.9954 5.32054 11.3645L5.40945 11.4534C6.09498 12.1385 6.92132 12.6662 7.83116 13C6.92151 13.3337 6.09532 13.8613 5.40987 14.5461L5.32096 14.635C4.95504 15.0042 4.63308 15.4146 4.36151 15.8578C3.76973 15.5892 3.23088 15.2166 2.77052 14.7579ZM9.0938 21.2552C8.31958 21.6175 7.47531 21.8056 6.62051 21.8062H4.19377V19.3795C4.19415 18.5244 4.3821 17.6799 4.74437 16.9053C5.35335 17.0961 5.98779 17.1933 6.62596 17.1934H6.7937C7.67522 17.1937 8.54688 17.0079 9.3517 16.6483C8.99206 17.4531 8.80629 18.3248 8.80655 19.2063V19.374C8.8065 20.012 8.90336 20.6463 9.0938 21.2552ZM6.7937 16.3547H6.62596C6.13063 16.3537 5.63773 16.2854 5.16077 16.1518C5.38069 15.8196 5.63358 15.5106 5.91559 15.2292L6.00449 15.1403C6.54849 14.5936 7.1955 14.1601 7.90809 13.865C8.62068 13.5699 9.38472 13.419 10.156 13.421L11.9877 13.4193L10.6491 14.7579C10.144 15.2658 9.54318 15.6684 8.88139 15.9425C8.2196 16.2166 7.51001 16.3567 6.7937 16.3547ZM9.64524 19.374V19.2063C9.64329 18.49 9.78343 17.7805 10.0575 17.1188C10.3316 16.4571 10.7343 15.8563 11.2421 15.3513L12.5806 14.0123V15.8461C12.5827 16.6174 12.4318 17.3814 12.1367 18.094C11.8416 18.8066 11.4081 19.4536 10.8613 19.9976L10.7724 20.0865C10.4911 20.3685 10.182 20.6214 9.84988 20.8413C9.71548 20.3637 9.64664 19.8701 9.64524 19.374ZM14.7579 23.2295L13 24.9874L11.2421 23.2295C10.7835 22.7697 10.411 22.2316 10.1422 21.6406C10.5854 21.3685 10.9956 21.0459 11.3645 20.6794L11.4534 20.5905C12.1385 19.905 12.6662 19.0787 13 18.1688C13.3337 19.0785 13.8613 19.9047 14.5461 20.5901L14.635 20.679C15.0041 21.0455 15.4145 21.3681 15.8578 21.6402C15.589 22.2314 15.2165 22.7696 14.7579 23.2295ZM16.3547 19.374C16.3537 19.8693 16.2854 20.3622 16.1518 20.8392C15.8196 20.6193 15.5105 20.3664 15.2292 20.0844L15.1403 19.9955C14.5936 19.4515 14.1601 18.8045 13.865 18.0919C13.5699 17.3793 13.419 16.6153 13.421 15.844V14.0123L14.7596 15.3508C15.2671 15.8561 15.6695 16.457 15.9433 17.1188C16.2171 17.7806 16.357 18.4901 16.3547 19.2063V19.374ZM15.3512 14.7579L14.0123 13.4193H15.8461C16.6174 13.4173 17.3814 13.5682 18.094 13.8633C18.8066 14.1584 19.4536 14.5919 19.9976 15.1386L20.0865 15.2275C20.3685 15.5089 20.6214 15.818 20.8413 16.1501C20.3637 16.2845 19.8701 16.3534 19.374 16.3547H19.2063C18.49 16.3567 17.7805 16.2165 17.1188 15.9424C16.4571 15.6683 15.8563 15.2657 15.3512 14.7579ZM21.8062 21.8062H19.3795C18.5244 21.8058 17.6799 21.6179 16.9053 21.2556C17.0961 20.6466 17.1933 20.0122 17.1934 19.374V19.2063C17.1937 18.3248 17.0079 17.4531 16.6483 16.6483C17.4531 17.0079 18.3248 17.1937 19.2063 17.1934H19.374C20.012 17.1935 20.6463 17.0966 21.2552 16.9062C21.6175 17.6804 21.8056 18.5247 21.8062 19.3795V21.8062ZM23.2295 14.7579C22.7697 15.2164 22.2316 15.589 21.6406 15.8578C21.3685 15.4146 21.0459 15.0044 20.6794 14.6354L20.5905 14.5465C19.905 13.8615 19.0787 13.3338 18.1688 13C19.0785 12.6663 19.9047 12.1387 20.5901 11.4539L20.679 11.365C21.0455 10.9958 21.3681 10.5855 21.6401 10.1422C22.2312 10.411 22.7693 10.7835 23.229 11.2421L24.9874 13L23.2295 14.7579Z" fill="white"/>
</g>
<defs>
<clipPath id="clip0_801_1464">
<rect width="26" height="26" fill="white"/>
</clipPath>
</defs>
</svg>
