<svg width="26" height="26" viewBox="0 0 26 26" fill="none" xmlns="http://www.w3.org/2000/svg">
<g clip-path="url(#clip0_801_1460)">
<path d="M15.8345 9.28014L13.0909 3.72375L10.3505 9.28014L4.22021 10.1698L8.656 14.4946L7.60837 20.6008L13.0909 17.7188L18.5767 20.6008L17.5294 14.4946L21.9646 10.1698L15.8345 9.28014Z" fill="white"/>
<path d="M13.0002 0C5.83207 0 0.000488281 5.83158 0.000488281 13.0003C0.000488281 20.1687 5.83207 25.9999 13.0002 25.9999C20.168 25.9999 25.9999 20.1687 25.9999 13.0003C26.0005 5.83158 20.1693 0 13.0002 0ZM13.0002 24.7813C6.50426 24.7813 1.2193 19.4963 1.2193 13.0004C1.2193 6.50377 6.50426 1.21876 13.0002 1.21876C19.4962 1.21876 24.7812 6.50377 24.7812 13.0004C24.7818 19.4963 19.4968 24.7813 13.0002 24.7813Z" fill="white"/>
</g>
<defs>
<clipPath id="clip0_801_1460">
<rect width="26" height="26" fill="white"/>
</clipPath>
</defs>
</svg>
