<svg width="26" height="26" viewBox="0 0 26 26" fill="none" xmlns="http://www.w3.org/2000/svg">
<g clip-path="url(#clip0_801_1457)">
<path d="M25.5988 5.24611H23.4818C23.5437 5.15958 23.5992 5.06868 23.6479 4.97412C23.7865 4.70265 23.8673 4.40539 23.8852 4.10112C23.9031 3.79684 23.8577 3.49216 23.7519 3.20632L23.1103 1.48214C23.004 1.19671 22.8395 0.936456 22.6274 0.71783C22.4153 0.499204 22.1601 0.326962 21.8781 0.211993C21.5955 0.0975015 21.2922 0.0428996 20.9874 0.0516406C20.6827 0.0603816 20.383 0.132275 20.1075 0.262774L15.0305 2.67388C14.7713 2.48814 14.4603 2.38838 14.1415 2.38864H11.8586C11.5397 2.38845 11.2287 2.48828 10.9694 2.67408L5.89263 0.262571C5.61704 0.132155 5.3174 0.0603249 5.01263 0.0516191C4.70787 0.0429134 4.40461 0.0975216 4.12203 0.211993C3.55292 0.443251 3.10361 0.906276 2.88977 1.48193L2.24825 3.20647C2.1424 3.4923 2.09701 3.79698 2.11493 4.10125C2.13286 4.40552 2.21372 4.70276 2.3524 4.97418C2.401 5.06878 2.4565 5.15967 2.51846 5.24611H0.401275C0.348581 5.2461 0.296402 5.25648 0.247718 5.27664C0.199033 5.2968 0.154796 5.32635 0.117534 5.36361C0.0802713 5.40087 0.0507128 5.4451 0.0305462 5.49378C0.0103797 5.54246 -4.22051e-10 5.59464 0 5.64733L0 8.53614C2.69238e-05 8.64255 0.0423126 8.74461 0.11756 8.81985C0.192808 8.8951 0.294859 8.93739 0.401275 8.93741C0.5077 8.9374 0.609764 8.89512 0.685022 8.81987C0.760281 8.74462 0.802574 8.64256 0.802601 8.53614V6.04841H3.58974C3.63443 6.0641 3.67962 6.07857 3.72543 6.09127L7.09427 7.01864C6.34491 8.1677 5.68486 9.37259 5.11994 10.6227H0.802499V10.1411C0.802486 10.0884 0.792096 10.0362 0.771923 9.98757C0.75175 9.9389 0.722188 9.89469 0.684926 9.85744C0.647665 9.8202 0.603432 9.79066 0.554754 9.77051C0.506077 9.75036 0.453907 9.74 0.401224 9.74001C0.348541 9.74001 0.296373 9.75038 0.247698 9.77053C0.199023 9.79069 0.154794 9.82023 0.117537 9.85748C0.0802798 9.89473 0.050724 9.93895 0.0305569 9.98762C0.0103899 10.0363 6.66829e-06 10.0885 0 10.1411L0 11.0241C2.69238e-05 11.1305 0.0423126 11.2325 0.11756 11.3078C0.192808 11.383 0.294859 11.4253 0.401275 11.4253H1.8323V25.6317C1.83229 25.6844 1.84266 25.7365 1.86283 25.7852C1.88299 25.8339 1.91255 25.8782 1.94981 25.9154C1.98708 25.9527 2.03131 25.9822 2.08 26.0024C2.12869 26.0226 2.18087 26.0329 2.23357 26.0329H23.7665C23.8192 26.0329 23.8714 26.0226 23.9201 26.0024C23.9688 25.9822 24.013 25.9527 24.0503 25.9154C24.0876 25.8782 24.1171 25.8339 24.1373 25.7852C24.1574 25.7365 24.1678 25.6844 24.1678 25.6317V23.3017C24.1678 23.1952 24.1255 23.0932 24.0502 23.0179C23.975 22.9427 23.8729 22.9004 23.7665 22.9004C23.7138 22.9004 23.6616 22.9107 23.6129 22.9309C23.5643 22.9511 23.52 22.9806 23.4827 23.0179C23.4455 23.0551 23.4159 23.0994 23.3957 23.1481C23.3756 23.1968 23.3652 23.249 23.3652 23.3017V25.2306H15.4074V11.6721C16.544 13.825 17.3135 16.1659 17.6676 18.5845C17.6815 18.6799 17.7293 18.767 17.8022 18.83C17.8752 18.893 17.9683 18.9276 18.0647 18.9275C18.1268 18.9276 18.1881 18.9131 18.2437 18.8854C18.2993 18.8577 18.3477 18.8175 18.3851 18.7678C18.9619 18.0026 19.4983 17.1833 19.9825 16.3279C20.7934 16.8802 21.5807 17.4959 22.3278 18.1624C22.3893 18.2172 22.4662 18.2518 22.548 18.2614C22.6298 18.271 22.7126 18.2552 22.7851 18.2162C22.8576 18.1771 22.9164 18.1167 22.9534 18.0431C22.9904 17.9695 23.0038 17.8863 22.9919 17.8048C22.6715 15.6194 22.0743 13.4703 21.2277 11.4253H23.3651V21.6965C23.365 21.7492 23.3754 21.8014 23.3956 21.8501C23.4157 21.8988 23.4453 21.943 23.4826 21.9803C23.5198 22.0175 23.5641 22.0471 23.6128 22.0672C23.6614 22.0874 23.7136 22.0978 23.7663 22.0978C23.819 22.0978 23.8712 22.0874 23.9199 22.0673C23.9686 22.0471 24.0128 22.0176 24.0501 21.9803C24.0874 21.943 24.1169 21.8988 24.1371 21.8501C24.1573 21.8014 24.1676 21.7492 24.1676 21.6965V11.4253H25.5988C25.6515 11.4253 25.7037 11.4149 25.7523 11.3948C25.801 11.3746 25.8452 11.345 25.8825 11.3078C25.9197 11.2705 25.9493 11.2263 25.9694 11.1776C25.9895 11.1289 25.9999 11.0768 25.9999 11.0241V5.64733C26 5.59464 25.9896 5.54246 25.9695 5.49376C25.9493 5.44507 25.9198 5.40083 25.8826 5.36356C25.8453 5.32629 25.8011 5.29674 25.7524 5.27659C25.7037 5.25643 25.6515 5.24608 25.5988 5.24611ZM20.4516 0.987578C20.8097 0.817764 21.2088 0.806288 21.5759 0.955433C21.9426 1.10443 22.2202 1.39063 22.3581 1.76184L22.9995 3.48582C23.1375 3.85714 23.1139 4.25587 22.9334 4.60835C22.7531 4.96067 22.4434 5.21254 22.0617 5.31751L15.6742 7.07602V5.14749C17.11 4.26836 20.6893 2.45506 21.5801 3.71251C21.6105 3.75552 21.6491 3.79211 21.6937 3.82019C21.7383 3.84827 21.788 3.8673 21.8399 3.87618C21.8918 3.88505 21.945 3.88362 21.9964 3.87194C22.0478 3.86027 22.0963 3.83858 22.1393 3.80813C22.3202 3.68001 22.3631 3.42945 22.2349 3.24877C21.5474 2.27814 20.0985 2.23096 17.9282 3.10872C17.0342 3.47013 16.2088 3.91127 15.6742 4.21738V3.92122C15.6742 3.70642 15.6296 3.50167 15.5494 3.31581L20.4516 0.987578ZM11.8586 3.19104H14.1415C14.5442 3.19104 14.8716 3.51878 14.8716 3.92127V7.23811C14.8716 7.64081 14.5441 7.96835 14.1415 7.96835H11.8586C11.4559 7.96835 11.1285 7.64081 11.1285 7.23811V3.92127C11.1285 3.51858 11.456 3.19104 11.8586 3.19104ZM11.1843 10.6226C11.5687 9.98403 11.9863 9.36594 12.4353 8.7709H13.5644C14.0135 9.36584 14.4311 9.98394 14.8155 10.6226H11.1843ZM3.06669 4.60835C2.88616 4.25587 2.86255 3.85714 3.00042 3.48597L3.64215 1.76159C3.77976 1.39068 4.05754 1.10443 4.42408 0.955433C4.79108 0.806288 5.19037 0.817815 5.54823 0.987578L10.4506 3.31621C10.3681 3.50731 10.3257 3.71328 10.3258 3.92142V4.24033C9.79305 3.93371 8.94901 3.47947 8.03215 3.10872C5.86201 2.23096 4.41296 2.27814 3.72543 3.24877C3.59731 3.42945 3.64012 3.68001 3.82105 3.80813C3.86404 3.8386 3.91261 3.8603 3.96398 3.87198C4.01536 3.88367 4.06854 3.88511 4.12047 3.87623C4.17241 3.86735 4.22208 3.84832 4.26666 3.82023C4.31124 3.79214 4.34984 3.75553 4.38026 3.71251C5.27944 2.44318 8.91763 4.30264 10.3258 5.17192V7.07602L3.93856 5.31771C3.55668 5.21259 3.24697 4.96067 3.06669 4.60835ZM10.506 7.95789C10.7057 8.33164 11.0556 8.61353 11.4748 8.72205C9.59805 11.3404 8.30607 14.349 7.70009 17.5114C7.27 16.8825 6.87292 16.2316 6.51049 15.5614C6.48414 15.5126 6.44795 15.4698 6.4042 15.4357C6.36045 15.4015 6.31009 15.3769 6.25632 15.3632C6.20254 15.3496 6.14652 15.3472 6.09179 15.3564C6.03706 15.3655 5.98483 15.3859 5.93838 15.4162C5.2701 15.8521 4.61573 16.3301 3.9837 16.8435C4.63457 13.4273 5.97926 10.1332 7.90759 7.24263L10.506 7.95789ZM2.63485 11.4253H4.77244C3.92586 13.4703 3.32857 15.6192 3.00799 17.8048C2.99603 17.8863 3.00945 17.9695 3.04643 18.0431C3.08341 18.1167 3.14215 18.1771 3.21467 18.2162C3.28722 18.2552 3.37003 18.271 3.45186 18.2614C3.5337 18.2518 3.61059 18.2172 3.67211 18.1624C4.41915 17.4959 5.20647 16.8802 6.0176 16.3279C6.5018 17.1833 7.038 18.0024 7.61503 18.7678C7.65241 18.8175 7.70081 18.8577 7.7564 18.8855C7.812 18.9132 7.87328 18.9277 7.93541 18.9277C7.96852 18.9277 8.00184 18.9235 8.03479 18.915C8.11146 18.8954 8.18062 18.8536 8.23357 18.7948C8.28652 18.736 8.32088 18.6629 8.33232 18.5846C8.68662 16.1658 9.45606 13.8248 10.5925 11.6719V25.2306H2.6349L2.63485 11.4253ZM11.3951 25.2306V11.4253H14.6049V25.2306H11.3951ZM20.0616 15.4163C20.0151 15.386 19.9629 15.3657 19.9082 15.3566C19.8535 15.3475 19.7975 15.3499 19.7437 15.3635C19.69 15.3772 19.6397 15.4018 19.5959 15.4359C19.5521 15.47 19.5159 15.5127 19.4895 15.5615C19.1271 16.2317 18.73 16.8825 18.2999 17.5114C17.6939 14.3488 16.402 11.3404 14.525 8.72225C14.9442 8.61394 15.2943 8.33184 15.494 7.95794L18.093 7.24243C20.0209 10.1336 21.3656 13.4276 22.0165 16.8435C21.3843 16.3301 20.7299 15.8521 20.0616 15.4163ZM25.1974 10.6227H20.8803C20.3154 9.37269 19.6554 8.1678 18.9062 7.01869L22.2746 6.09132C22.3204 6.07862 22.3657 6.06415 22.4103 6.04846H25.1975L25.1974 10.6227Z" fill="white"/>
</g>
<defs>
<clipPath id="clip0_801_1457">
<rect width="26" height="26" fill="white"/>
</clipPath>
</defs>
</svg>
