<svg width="26" height="26" viewBox="0 0 26 26" fill="none" xmlns="http://www.w3.org/2000/svg">
<g clip-path="url(#clip0_801_1467)">
<path d="M24.1872 21.8461L20.8712 16.0367C22.1814 14.3051 22.8872 12.1926 22.8821 10.0191C22.8872 4.49414 18.3931 0 12.863 0C7.33292 0 2.84385 4.49414 2.84385 10.0191C2.84385 12.2789 3.60557 14.4676 5.01221 16.2398L1.81299 21.8512C1.67588 22.0949 1.75713 22.4047 2.00088 22.5418C2.09737 22.5977 2.21416 22.618 2.32588 22.6027L6.22081 22.0543L7.73409 25.6852C7.81026 25.8629 7.97784 25.9848 8.1708 25.9949H8.20127C8.38409 25.9949 8.55166 25.8984 8.64307 25.741L11.9185 19.9926C12.2282 20.023 12.5431 20.0383 12.863 20.0383C13.2642 20.0383 13.6653 20.0129 14.0614 19.9672L17.3571 25.7461C17.4485 25.9035 17.6161 26.0051 17.7989 26H17.8294C18.0224 25.9898 18.195 25.868 18.2661 25.6902L19.7794 22.0594L23.6743 22.6078C23.9536 22.6484 24.2075 22.4555 24.2481 22.1762C24.2634 22.0645 24.2431 21.9477 24.1872 21.8461ZM8.27237 24.3445L7.00791 21.3027C6.92159 21.0895 6.69815 20.9625 6.46963 20.993L3.20948 21.45L5.72315 17.0371C7.11456 18.4539 8.89698 19.4289 10.8419 19.8301L8.27237 24.3445ZM3.85948 10.0242C3.85948 5.05781 7.90167 1.01562 12.863 1.01562C17.8243 1.01562 21.8665 5.05781 21.8665 10.0191C21.8665 14.9805 17.8294 19.0227 12.863 19.0227C7.89659 19.0227 3.85948 14.9855 3.85948 10.0242ZM19.5306 20.998C19.3021 20.9676 19.0786 21.0945 18.9923 21.3078L17.7278 24.3445L15.1278 19.7844C17.0626 19.3324 18.8196 18.3168 20.1755 16.8645L22.7907 21.45L19.5306 20.998ZM18.4489 7.88125L14.9044 7.36328L13.32 4.15391C13.1981 3.9 12.8935 3.79844 12.6396 3.92539C12.538 3.97617 12.4567 4.05742 12.411 4.15391L10.8267 7.36328L7.28213 7.87617C7.00284 7.9168 6.80987 8.17578 6.85049 8.45C6.86573 8.56172 6.91651 8.66328 6.99776 8.74453L9.56221 11.243L8.95284 14.7773C8.90713 15.0516 9.08995 15.3156 9.36924 15.3664C9.48096 15.3867 9.59268 15.3664 9.69424 15.3156L12.863 13.65L16.0317 15.3156C16.2806 15.4477 16.5853 15.3512 16.7173 15.1023C16.7681 15.0059 16.7884 14.8891 16.7681 14.7773L16.1638 11.243L18.7282 8.74453C18.9314 8.55156 18.9364 8.22656 18.7384 8.02852C18.6673 7.94727 18.5657 7.89648 18.4489 7.88125ZM15.2649 10.7047C15.1431 10.8215 15.0923 10.9891 15.1177 11.1566L15.595 13.9344L13.1017 12.6191C12.9544 12.543 12.7767 12.543 12.6294 12.6191L10.136 13.9293L10.6134 11.1516C10.6439 10.9891 10.588 10.8164 10.4661 10.6996L8.44502 8.73438L11.238 8.32812C11.4056 8.30273 11.5478 8.20117 11.6189 8.04883L12.8681 5.51992L14.1173 8.04883C14.1935 8.20117 14.3356 8.30273 14.4981 8.32812L17.2911 8.73438L15.2649 10.7047Z" fill="white"/>
</g>
<defs>
<clipPath id="clip0_801_1467">
<rect width="26" height="26" fill="white"/>
</clipPath>
</defs>
</svg>
