<svg width="70" height="36" viewBox="0 0 70 36" fill="none" xmlns="http://www.w3.org/2000/svg">
<g clip-path="url(#clip0_134_7733)">
<path d="M-4.16811 49.1011C-3.52291 35.0885 5.40989 24.8699 12.5888 16.6595L13.0977 16.0779C13.9292 15.201 15.8512 12.8565 15.7012 10.0258C15.6104 8.30376 14.7562 6.74075 13.1613 5.38675C12.2072 4.57344 11.3257 3.81919 10.4851 3.09675C6.77298 -0.092881 3.83779 -2.61006 -0.71494 -5.76789C-2.37791 -6.92197 -4.01817 -8.01244 -5.61298 -9.03931V-8.87574C-4.04088 -7.8625 -2.42789 -6.79021 -0.792181 -5.6543C3.756 -2.50101 6.68665 0.0161705 10.3943 3.20126C11.2348 3.9237 12.1163 4.68248 13.0705 5.49125C14.6335 6.81799 15.4695 8.34466 15.5604 10.0304C15.7103 12.8111 13.8156 15.1192 12.9932 15.9871L12.4798 16.5732C5.28721 24.7972 -3.66376 35.034 -4.3135 49.0966C-4.38166 50.596 -4.96324 51.5092 -5.62207 51.8227V51.9863C-4.91326 51.6955 -4.25443 50.7686 -4.17719 49.1056L-4.16811 49.1011Z" fill="#5D5D5D"/>
<path d="M-0.992401 49.2464C-0.397184 36.3425 8.13123 26.5918 14.983 18.754L15.4965 18.1679C16.9368 16.5231 18.1 15.0601 18.9633 13.8333C20.031 12.3066 22.0121 9.46684 17.3276 4.94592C12.275 0.0660443 6.81357 -4.41398 1.10222 -8.37604C-1.22867 -9.9936 -3.46868 -11.4475 -5.60874 -12.7561V-12.5971C-3.4914 -11.3021 -1.27865 -9.8618 1.02498 -8.26699C6.73179 -4.30948 12.1842 0.170545 17.2321 5.04133C21.8349 9.48501 19.8947 12.2612 18.8497 13.7515C17.9909 14.9783 16.8278 16.4322 15.392 18.077L14.8785 18.6632C8.0131 26.5146 -0.533493 36.2879 -1.12871 49.2373C-1.40587 55.244 -2.47363 58.7381 -4.48646 60.2375C-4.8863 60.5328 -5.26342 60.6964 -5.61328 60.7327V60.869C-5.23162 60.8327 -4.83178 60.6646 -4.40467 60.3465C-2.35549 58.8244 -1.27411 55.294 -0.992401 49.2418V49.2464Z" fill="#5D5D5D"/>
<path d="M-4.43584 28.6683C-3.2136 26.5146 -1.62333 24.5608 -0.0875745 22.6707C2.12517 19.9445 4.41517 17.1274 5.6465 13.6652C7.81836 7.55852 3.56097 4.74147 -0.950867 1.75175C-1.36888 1.47459 -1.7869 1.19743 -2.20491 0.91572C-2.95007 0.411377 -3.64979 -0.0611647 -4.34042 -0.542795C-4.6812 -0.779055 -5.09921 -1.07893 -5.61719 -1.45605V-1.28794C-5.14011 -0.938085 -4.74026 -0.651835 -4.41767 -0.4292C-3.72703 0.0524263 -3.02277 0.524968 -2.27761 1.02931C-1.8596 1.31102 -1.44158 1.58818 -1.02811 1.86534C3.43374 4.82325 7.65024 7.61304 5.51473 13.6197C4.28795 17.0593 2.00704 19.8672 -0.201167 22.5843C-1.74146 24.479 -3.33174 26.4373 -4.55852 28.6001C-4.92655 29.2499 -5.26278 30.0904 -5.61719 30.9855V31.3536C-5.58084 31.2627 -5.54449 31.1673 -5.50814 31.0764C-5.14919 30.1722 -4.80842 29.318 -4.44038 28.6683H-4.43584Z" fill="#5D5D5D"/>
<path d="M6.66882 18.6633C6.87328 18.4225 7.07774 18.1771 7.28675 17.9318C10.2129 14.4923 13.2344 10.9346 9.7994 6.68174C7.14135 3.39214 3.12932 0.67959 -0.414717 -1.71491C-1.14624 -2.21016 -1.84142 -2.67816 -2.52297 -3.1507C-2.98188 -3.46875 -3.59981 -3.92311 -4.32225 -4.44563C-4.71755 -4.73188 -5.14919 -5.04994 -5.61264 -5.38617V-5.21805C-5.181 -4.90454 -4.77207 -4.60921 -4.40404 -4.33659C-3.68614 -3.80953 -3.06366 -3.3597 -2.60475 -3.04165C-1.92321 -2.56911 -1.22803 -2.10112 -0.496502 -1.60132C3.0339 0.788637 7.04139 3.49664 9.6858 6.76807C13.0526 10.9346 10.0629 14.4468 7.1777 17.8455C6.9687 18.0908 6.76423 18.3316 6.55977 18.577C4.01987 21.6031 0.775712 25.656 -1.79144 30.1724C-3.34991 32.9122 -4.63122 35.7928 -5.61719 38.7462V39.1915C-4.62213 36.1018 -3.29993 33.0939 -1.67331 30.236C0.889312 25.7332 4.12892 21.6848 6.66427 18.6633H6.66882Z" fill="#5D5D5D"/>
<path d="M37.3839 25.4651C37.1567 25.8422 36.9432 26.1966 36.7569 26.4601C34.4578 29.6997 31.7362 32.5713 28.6737 35.7246C28.2603 36.1472 27.8377 36.5788 27.4106 37.0105C24.8844 39.564 22.2672 42.2038 20.7042 45.3253C20.0999 46.5339 19.9091 47.479 20.1635 48.056C20.2771 48.3196 20.477 48.4922 20.7587 48.5695C20.8723 48.6013 21.0041 48.6195 21.1449 48.6195C21.7038 48.6195 22.449 48.3468 23.2941 47.8379C24.9752 46.8202 26.57 45.5661 28.1149 44.3484C29.378 43.3534 30.6866 42.322 32.036 41.4314C37.4748 37.8283 41.0688 35.4429 42.7499 28.7229C43.0998 27.328 43.3043 24.1565 42.2274 22.7752C41.8548 22.3027 41.3687 22.0755 40.7689 22.1028C39.3695 22.1755 38.2245 24.0747 37.3839 25.4605V25.4651ZM40.8734 22.2391C41.3778 22.2391 41.8003 22.4481 42.1184 22.8616C43.1634 24.2019 42.959 27.3189 42.6182 28.6911C40.9507 35.3611 37.3748 37.7283 31.9588 41.3178C30.6048 42.2129 29.2962 43.2443 28.0286 44.2439C26.4883 45.4571 24.8934 46.7111 23.2214 47.7244C22.2036 48.3423 21.3312 48.5967 20.7951 48.4423C20.5543 48.3741 20.3862 48.2242 20.2862 48.0015C20.0545 47.4699 20.2453 46.543 20.8223 45.3889C22.3763 42.2856 24.9843 39.6549 27.5015 37.1059C27.9286 36.6742 28.3557 36.2426 28.7692 35.82C31.8361 32.6622 34.5578 29.7861 36.8659 26.5419C37.0568 26.2738 37.2703 25.9194 37.4975 25.5423C38.3199 24.1792 39.4422 22.3163 40.7689 22.2482C40.8007 22.2482 40.8371 22.2482 40.8689 22.2482L40.8734 22.2391Z" fill="#5D5D5D"/>
<path d="M2.22904 49.3964C2.77428 37.6193 10.8892 28.3366 17.4093 20.8805L17.9228 20.2944C25.6788 11.4161 25.3653 8.31736 21.7258 4.72788C17.7365 0.793093 11.4481 -5.12273 2.93785 -11.0249C0.034462 -13.0378 -2.84166 -14.8779 -5.61328 -16.5182V-16.2547C-2.88255 -14.6371 -0.051867 -12.8197 2.80608 -10.8386C11.3027 -4.94553 17.582 0.961208 21.5668 4.89145C25.1017 8.37643 25.388 11.407 17.7547 20.149L17.2412 20.7351C10.6984 28.2185 2.55164 37.5329 2.0064 49.3918C1.49297 60.5192 -2.69626 63.7906 -5.60874 64.7039V64.9402C-2.62811 64.0315 1.71107 60.7464 2.23359 49.4009L2.22904 49.3964Z" fill="#5D5D5D"/>
<path d="M40.1233 17.8996C38.1286 18.3904 36.3884 21.1529 34.9844 23.3702C34.4937 24.1472 34.0303 24.8787 33.6259 25.4012C31.3722 28.3137 28.8278 30.9353 26.3652 33.4661C25.7245 34.125 24.9157 34.8747 24.0661 35.6653C21.5307 38.0143 18.3774 40.9404 17.4187 43.6166C16.6145 45.8657 17.087 48.0149 17.5459 50.0868C17.9231 51.7907 18.3138 53.5536 18.0049 55.3801C17.814 56.516 17.1279 57.6338 16.3964 58.8151C15.524 60.2327 14.6244 61.6958 14.5699 63.2724C14.5517 63.8086 14.6335 64.3356 14.8152 64.8445C15.415 66.5302 16.042 67.3117 16.7872 67.3117C17.5323 67.3117 18.3275 66.5438 19.5179 64.6673C20.6538 62.8726 21.0991 60.7961 21.5307 58.7879C21.9624 56.7705 22.4122 54.685 23.5572 52.8811C25.7381 49.4461 29.582 46.9108 32.9716 44.6799C33.2579 44.4936 33.5396 44.3027 33.8213 44.121C39.4508 40.3907 43.8991 37.4418 45.8846 29.5041C46.4117 27.4049 46.2708 22.0525 44.1353 19.3173C43.0994 17.986 41.7363 17.5043 40.1278 17.8996H40.1233ZM43.9536 19.4536C45.8665 21.9071 46.2481 27.0914 45.662 29.445C43.6991 37.2964 39.2827 40.2225 33.694 43.9256C33.4169 44.1119 33.1306 44.2982 32.8444 44.4845C29.4321 46.729 25.5655 49.278 23.3618 52.7539C22.1941 54.5941 21.7443 56.6978 21.3035 58.7379C20.8764 60.728 20.4357 62.7863 19.3225 64.5447C18.5274 65.7987 17.605 67.0845 16.7872 67.0845C16.1601 67.0845 15.5876 66.3258 15.0288 64.7673C14.8561 64.2811 14.7789 63.7904 14.797 63.277C14.8516 61.7639 15.733 60.3236 16.5918 58.9333C17.3324 57.7292 18.0321 56.5933 18.2275 55.4165C18.5455 53.5445 18.1502 51.7588 17.7686 50.0368C17.296 47.8967 16.8462 45.8794 17.6323 43.6893C18.5728 41.0677 21.7034 38.1643 24.2206 35.8288C25.0748 35.0337 25.8835 34.2885 26.5287 33.6206C28.9959 31.0807 31.5449 28.4545 33.8076 25.533C34.2211 25.0014 34.6846 24.2607 35.1798 23.4838C36.5611 21.3028 38.274 18.5857 40.1778 18.1132C40.5231 18.0269 40.8594 17.986 41.1774 17.986C42.2588 17.986 43.1948 18.4767 43.9536 19.449V19.4536Z" fill="#5D5D5D"/>
<path d="M42.2139 8.03568C41.1325 6.47722 40.1919 6.27729 39.1923 6.06374C38.5062 5.91834 37.7929 5.76386 36.9796 5.15047L36.9114 5.07323C34.5942 2.47881 26.82 -5.98145 24.1892 -5.98145C23.8803 -5.98145 23.6395 -5.8724 23.4713 -5.6543C23.1215 -5.1954 23.1396 -4.27303 23.5259 -2.8327C23.7576 -1.9785 25.9567 -0.797145 28.2876 0.456895C30.2277 1.49739 32.236 2.57424 32.9176 3.38301C33.5264 4.10999 34.3306 5.11413 34.2579 5.45944C34.2398 5.55487 34.1353 5.60938 33.9581 5.69571C33.5537 5.89563 32.9403 6.20461 33.2674 7.63585C33.4946 8.62637 34.108 9.61233 34.6987 10.5665C35.253 11.4525 35.7755 12.2931 35.9845 13.1064C36.5661 15.3419 32.9039 19.4448 30.4822 22.1573C29.6825 23.0524 28.9919 23.8248 28.5511 24.411C26.7882 26.7509 24.5845 28.9228 22.4581 31.0174C18.3188 35.0976 14.0433 39.3141 12.5348 45.1345C10.2857 53.8356 9.83587 61.5189 11.2035 67.9708C11.9305 71.4149 14.4386 76.213 16.8694 76.213C18.3825 76.213 19.4866 74.3955 20.1454 70.8061C22.6898 56.9843 29.628 52.3861 36.3435 47.9379C42.2911 43.9986 47.907 40.2773 50.3243 30.6085C51.233 26.9599 49.8335 21.3531 48.0115 18.2498C47.1982 16.864 46.1759 16.087 45.1854 15.3328C44.3176 14.6694 43.4952 14.0469 42.8591 13.0473C42.4092 12.3431 42.491 11.5161 42.5728 10.6483C42.6591 9.74864 42.75 8.81719 42.2048 8.0266L42.2139 8.03568ZM42.6001 13.2291C43.2634 14.2741 44.1086 14.9148 45.0037 15.5963C45.9669 16.3324 46.9665 17.0912 47.748 18.4224C49.5382 21.4712 50.9149 26.9736 50.0244 30.5449C47.639 40.0911 42.073 43.7805 36.1754 47.6835C29.4099 52.168 22.4081 56.8071 19.841 70.7606C19.223 74.1275 18.1962 75.9086 16.874 75.9086C14.8112 75.9086 12.2985 71.6103 11.517 67.9163C10.163 61.5143 10.6083 53.8765 12.8483 45.2254C14.3295 39.4868 18.5778 35.3021 22.6853 31.2537C24.8208 29.15 27.029 26.9736 28.8101 24.6109C29.2418 24.0384 29.9278 23.2705 30.723 22.3799C33.3401 19.4493 36.9205 15.4327 36.2935 13.0382C36.0663 12.1749 35.5347 11.3207 34.9667 10.412C34.3852 9.48056 33.7899 8.52185 33.5764 7.58132C33.3038 6.39089 33.7263 6.18188 34.0989 5.99559C34.3034 5.89108 34.5169 5.78658 34.5714 5.53668C34.6396 5.205 34.4306 4.69611 33.1629 3.19216C32.445 2.33796 30.4095 1.24749 28.4421 0.188823C26.3747 -0.919825 24.0347 -2.17842 23.8394 -2.90086C23.3941 -4.54566 23.5349 -5.19085 23.7303 -5.44529C23.8348 -5.5816 23.9848 -5.64521 24.1938 -5.64521C26.1793 -5.64521 31.9452 0.01162 36.6797 5.30042C36.7388 5.36403 36.7706 5.40038 36.7751 5.40038C37.6611 6.07284 38.4426 6.24094 39.1287 6.38634C40.1011 6.59535 40.9416 6.77255 41.9549 8.23106C42.4365 8.92169 42.3547 9.75773 42.2684 10.6392C42.182 11.5252 42.0912 12.443 42.6001 13.2427V13.2291Z" fill="#5D5D5D"/>
<path d="M-5.61328 -21.4574C9.7079 -12.7881 26.2195 1.00642 29.2274 7.86278C31.0312 11.9793 26.6557 16.9 21.117 23.1294C14.8195 30.2084 6.98623 39.0185 6.49552 49.5915C5.9003 62.4818 -0.488057 67.7752 -5.61328 69.3745V69.7062C-0.369922 68.1069 6.20927 62.7454 6.81357 49.6052C7.2952 39.1457 15.0921 30.381 21.3532 23.3384C26.9692 17.0227 31.4038 12.0384 29.5181 7.73101C26.4875 0.824678 9.8169 -13.0925 -5.61328 -21.8027V-21.4619V-21.4574Z" fill="#5D5D5D"/>
<path d="M2.6516 12.6021C3.83295 9.2852 2.64251 7.94936 -2.70535 4.40987C-3.12791 4.12816 -3.55501 3.84646 -3.9912 3.55112C-4.55007 3.174 -5.08622 2.81051 -5.61328 2.44702V2.61059C-5.10894 2.95591 -4.60005 3.30122 -4.0639 3.66471C-3.63225 3.95551 -3.20515 4.24176 -2.77805 4.51892C2.49712 8.01298 3.67392 9.32155 2.52438 12.5521C1.48389 15.4782 -0.528949 17.9545 -2.65991 20.5761C-3.65043 21.7984 -4.66366 23.0433 -5.61328 24.3746V24.6109C-4.6364 23.2251 -3.58682 21.9301 -2.55541 20.6625C-0.415358 18.0317 1.60202 15.5418 2.6516 12.5975V12.6021Z" fill="#5D5D5D"/>
<path d="M38.4922 29.727H38.4604C37.8152 29.727 37.1609 30.5448 36.6838 31.1446C36.5793 31.2718 36.4885 31.3899 36.4067 31.4808C35.9568 31.9942 35.5207 32.5349 35.1026 33.062C34.83 33.4028 34.5619 33.739 34.2848 34.0707L34.253 34.1116C33.3442 35.1884 32.9762 35.8881 33.1216 36.2516C33.1625 36.3516 33.2625 36.4788 33.5078 36.5061C33.5442 36.5061 33.5805 36.5106 33.6169 36.5106H33.6396C35.457 36.4697 36.9292 34.8249 37.6471 33.848C38.3286 32.9166 38.8148 31.9079 38.9875 31.0855C39.0283 30.8947 39.1374 30.2404 38.8784 29.9132C38.7875 29.7951 38.6558 29.7315 38.4967 29.7224L38.4922 29.727ZM38.7603 31.0446C38.5967 31.8352 38.1242 32.8121 37.4608 33.7163C36.7702 34.6614 35.3525 36.2516 33.6305 36.288L33.6123 36.4016V36.288C33.5851 36.288 33.5578 36.288 33.5305 36.2834C33.367 36.2653 33.3397 36.1926 33.3306 36.1698C33.2806 36.0426 33.2897 35.6064 34.4256 34.257L34.462 34.2161C34.7391 33.8798 35.0118 33.5436 35.2844 33.2028C35.7024 32.6803 36.134 32.1396 36.5839 31.6307C36.6657 31.5399 36.7611 31.4172 36.8656 31.2854C37.2881 30.7538 37.9288 29.9541 38.4877 29.9541C38.5785 29.9541 38.6467 29.9905 38.7012 30.0586C38.8602 30.2586 38.833 30.7175 38.7648 31.0446H38.7603Z" fill="#5D5D5D"/>
<path d="M86.4273 75.7583C92.4568 75.0722 98.9224 68.0886 99.0041 62.1728C99.1314 53.1037 93.9198 45.8566 88.8764 38.8503C88.0222 37.6599 87.1361 36.4285 86.3001 35.2199L85.7958 34.4929C83.424 31.0761 80.7342 27.2004 79.8572 23.0157C79.1166 19.4671 77.9853 11.2113 79.2166 8.35791C80.1208 6.26784 82.6925 5.07286 85.1778 3.91877C86.8953 3.11909 88.5174 2.36485 89.6579 1.33345L89.7124 1.28347C92.3114 -1.07014 94.4968 -2.27723 96.2689 -2.33781C97.0731 -2.36507 98.0727 -2.40143 99.4858 -2.5332C101.38 -2.7104 102.498 -2.98756 103.316 -3.18748C103.834 -3.3147 104.211 -3.41011 104.543 -3.41011C105.361 -3.41011 106.047 -2.82853 108.314 -0.911116C115.016 4.76389 114.889 14.6327 114.771 24.1789C114.616 36.1877 114.457 48.61 128.052 52.5403C130.005 53.1037 131.909 53.3945 133.708 53.3945C138.82 53.3945 143.168 51.109 146.29 46.7926C150.87 40.4542 152.087 30.5672 149.316 22.1842C142.923 2.83739 127.647 -8.22637 111.217 -18.7676C96.2825 -28.3501 82.0609 -30.99 69.8976 -32.712C69.0161 -32.8347 68.1801 -32.8983 67.4077 -32.8983C62.4778 -32.8983 60.1333 -30.3902 57.1663 -27.2142C56.0304 -25.9965 54.8536 -24.7425 53.3951 -23.4566C51.723 -21.989 49.6011 -20.9849 47.5429 -20.0126C44.1897 -18.4268 41.0227 -16.932 39.7142 -13.6015C36.938 -6.53614 43.758 -1.0338 49.7783 3.8279C52.5636 6.07699 55.1944 8.19888 56.7392 10.3208C62.8504 18.7356 61.0239 32.9254 55.4806 40.8995C53.7495 43.3894 50.4326 46.4654 46.9204 49.7278C41.1045 55.1256 34.5117 61.2459 33.3485 66.3847C32.8033 68.802 32.9442 70.4922 33.7847 71.5463C34.489 72.4278 35.6749 72.8549 37.4106 72.8549C40.2685 72.8549 44.3578 71.6781 48.6879 70.4331C53.9812 68.911 59.9834 67.1844 65.0995 67.1844C67.5394 67.1844 69.5614 67.5615 71.2743 68.343C73.2462 69.2427 74.9183 70.5376 76.5313 71.7962C79.1984 73.8681 81.7156 75.8264 85.2778 75.8264C85.6504 75.8264 86.0366 75.8037 86.4228 75.7583H86.4273ZM71.3743 68.134C69.6295 67.3389 67.5803 66.9527 65.104 66.9527C59.9561 66.9527 53.9358 68.6838 48.6288 70.2105C44.3123 71.4509 40.2367 72.6232 37.4106 72.6232C35.7476 72.6232 34.6208 72.2233 33.9665 71.4009C33.1713 70.4059 33.0396 68.7792 33.5712 66.4347C34.7207 61.364 41.2863 55.271 47.0749 49.8913C50.5962 46.6245 53.9221 43.5348 55.6669 41.0267C61.2556 32.989 63.0912 18.6765 56.9209 10.1845C55.3625 8.03986 52.7181 5.90435 49.9192 3.64616C43.9625 -1.16101 37.2106 -6.61337 39.9232 -13.5197C41.2 -16.7639 44.326 -18.2451 47.6383 -19.8081C49.7102 -20.785 51.8502 -21.7982 53.545 -23.2885C55.0126 -24.5789 56.194 -25.842 57.3344 -27.0597C60.2651 -30.1949 62.5778 -32.6711 67.4122 -32.6711C68.1755 -32.6711 69.0025 -32.6075 69.8703 -32.4848C82.0064 -30.7674 96.2007 -28.132 111.099 -18.5722C127.493 -8.05372 142.737 2.98278 149.107 22.2615C151.856 30.5809 150.652 40.386 146.113 46.6654C143.037 50.9227 138.747 53.1718 133.713 53.1718C131.936 53.1718 130.055 52.8901 128.12 52.3267C122.099 50.5865 118.287 47.0061 116.474 41.3902C114.848 36.3604 114.93 30.1719 115.007 24.188C115.13 14.5918 115.257 4.66847 108.473 -1.07923C105.233 -3.82359 105.143 -3.86902 103.271 -3.40557C102.462 -3.20565 101.349 -2.93304 99.4721 -2.75583C98.0681 -2.62407 97.0686 -2.58772 96.2689 -2.56046C94.4423 -2.49685 92.2084 -1.27006 89.567 1.1199L89.5125 1.16988C88.3993 2.17857 86.7908 2.92826 85.087 3.71885C82.5607 4.89111 79.9481 6.10881 79.0121 8.27612C77.7581 11.1795 78.894 19.4944 79.6391 23.0702C80.5206 27.3004 83.2241 31.1943 85.6095 34.6338L86.1138 35.3608C86.9499 36.5694 87.8359 37.8007 88.6946 38.9911C93.7153 45.9702 98.9087 53.1809 98.7815 62.1773C98.6997 67.9977 92.3386 74.8632 86.4046 75.5402C86.0275 75.5811 85.6504 75.6038 85.2869 75.6038C81.8019 75.6038 79.3165 73.6682 76.6812 71.6236C75.0546 70.3604 73.3735 69.0519 71.3788 68.1431L71.3743 68.134Z" fill="#5D5D5D"/>
<path d="M69.2119 6.19981C69.6026 6.19981 69.9161 5.64549 70.2206 4.40508C71.361 -0.23398 75.1277 -6.37243 80.9799 -9.63478C86.9003 -12.938 90.8442 -13.7968 92.966 -14.2557C94.0202 -14.4828 94.5472 -14.601 94.6744 -14.8781C94.7244 -14.9827 94.7062 -15.1099 94.629 -15.2553C94.2201 -16.0004 86.8866 -20.1033 76.3409 -20.9575L75.8956 -20.9939C74.946 -21.0711 74.1236 -21.1393 73.3375 -21.1393C70.5841 -21.1393 68.3668 -20.3714 63.187 -15.9959C62.3692 -15.3052 61.5331 -14.6646 60.7244 -14.0421C58.2208 -12.1202 56.058 -10.4663 56.1989 -8.58064C56.3079 -7.13577 57.7392 -5.69997 60.7016 -4.0688C63.9822 -2.26044 65.9814 1.32903 67.3036 3.70081C68.1441 5.20476 68.6939 6.19981 69.221 6.19981H69.2119ZM60.7562 -4.18694C57.8755 -5.77267 56.4261 -7.21301 56.3216 -8.58973C56.1853 -10.3981 58.3208 -12.0338 60.7971 -13.9285C61.6058 -14.551 62.4464 -15.1917 63.2643 -15.8868C68.4077 -20.2351 70.6068 -20.9984 73.3239 -20.9984C74.1054 -20.9984 74.9232 -20.9303 75.8729 -20.853L76.3181 -20.8167C86.6231 -19.9852 94.111 -15.8959 94.4972 -15.1871C94.5745 -15.0417 94.5609 -14.9736 94.5381 -14.9327C94.4382 -14.7191 93.8702 -14.5919 92.9251 -14.3874C90.7987 -13.924 86.8412 -13.0652 80.9027 -9.75288C75.0187 -6.46785 71.2247 -0.288502 70.0797 4.37782C69.798 5.51373 69.5118 6.06805 69.2028 6.06805C68.7575 6.06805 68.1623 4.99576 67.4035 3.64175C66.0722 1.25634 64.0639 -2.35585 60.7471 -4.1824L60.7562 -4.18694Z" fill="#5D5D5D"/>
<path d="M70.0711 14.0017C70.4664 14.0017 70.7389 13.5291 70.9297 12.5114C72.1111 6.25474 74.6691 -2.60535 83.2157 -7.33074C85.8556 -8.79379 88.8408 -9.94783 92.3348 -10.8702C93.0391 -11.0565 93.7888 -11.5608 94.5203 -12.0515C95.4608 -12.6877 96.4377 -13.3419 97.3374 -13.3419C97.4419 -13.3419 97.5464 -13.3329 97.6418 -13.3147C98.1461 -13.2238 98.5233 -12.933 98.8867 -12.6513C99.2957 -12.3333 99.6814 -12.0334 100.218 -12.0334C100.418 -12.0334 100.627 -12.0743 100.849 -12.1651C101.231 -12.3151 101.431 -12.6104 101.622 -12.8967C101.894 -13.301 102.149 -13.6827 102.921 -13.6146C103.689 -13.551 104.102 -12.9648 104.539 -12.3469C104.843 -11.9152 105.161 -11.4654 105.611 -11.2155C105.938 -11.0338 106.529 -10.8384 107.051 -10.8384C107.415 -10.8384 107.674 -10.9338 107.819 -11.1246C107.955 -11.3064 107.983 -11.5654 107.892 -11.888C107.592 -12.9603 105.297 -13.9599 103.775 -14.6233C103.325 -14.8186 102.939 -14.9867 102.689 -15.1185C100.427 -16.318 98.1688 -17.3313 96.2605 -18.1673C88.2092 -21.6886 80.8667 -23.8377 73.8195 -24.7374C73.0243 -24.8373 72.3383 -24.8873 71.7158 -24.8873C68.2444 -24.8873 65.5546 -23.3698 60.2022 -18.3899C58.8891 -17.1677 57.5351 -16.1181 56.231 -15.1049C53.3049 -12.8331 50.9922 -11.0383 51.0468 -8.78016C51.0922 -6.99905 52.637 -5.09981 55.9175 -2.80527C61.1972 0.88871 64.7004 6.5001 67.0222 10.2122C68.4534 12.4977 69.394 14.0108 70.0801 14.0108L70.0711 14.0017ZM55.9857 -2.92795C52.7461 -5.19523 51.2149 -7.06266 51.174 -8.79833C51.1195 -10.9883 53.4094 -12.7649 56.3083 -15.014C57.6169 -16.0318 58.9709 -17.0814 60.2885 -18.3081C65.6137 -23.2607 68.2808 -24.7692 71.7112 -24.7692C72.3292 -24.7692 73.0108 -24.7192 73.7969 -24.6193C80.8304 -23.7242 88.1592 -21.575 96.1969 -18.0582C98.1052 -17.2222 100.358 -16.209 102.617 -15.014C102.871 -14.8777 103.262 -14.7096 103.712 -14.5142C105.207 -13.8645 107.469 -12.8785 107.751 -11.8698C107.828 -11.5881 107.815 -11.37 107.701 -11.2246C107.556 -11.0338 107.26 -10.9929 107.042 -10.9929C106.57 -10.9929 105.993 -11.1746 105.67 -11.3564C105.247 -11.5881 104.943 -12.0243 104.643 -12.4468C104.207 -13.0648 103.757 -13.7009 102.926 -13.7736C102.071 -13.8508 101.785 -13.4101 101.503 -12.9921C101.313 -12.7104 101.135 -12.4468 100.795 -12.3105C100.586 -12.2287 100.399 -12.1879 100.213 -12.1879C99.7274 -12.1879 99.3547 -12.4741 98.964 -12.774C98.5869 -13.0648 98.1961 -13.3692 97.66 -13.4601C97.5554 -13.4782 97.4419 -13.4873 97.3328 -13.4873C96.3923 -13.4873 95.4018 -12.8194 94.4431 -12.1742C93.6934 -11.6699 92.98 -11.1883 92.303 -11.0111C88.7953 -10.0887 85.8056 -8.92555 83.1521 -7.45796C74.5555 -2.70531 71.9838 6.19568 70.798 12.4796C70.6208 13.4065 70.3846 13.8608 70.0711 13.8608C69.4577 13.8608 68.4807 12.2933 67.1267 10.1259C64.8004 6.40468 61.2881 0.779663 55.9857 -2.93249V-2.92795Z" fill="#5D5D5D"/>
<path d="M86.8542 71.0103C89.9621 70.6559 92.8882 68.5204 94.3149 65.5715C95.6144 62.8772 96.3187 58.3063 92.2839 51.8361C90.5528 49.0554 88.6626 46.252 86.8361 43.5394C81.6109 35.7834 76.6765 28.4545 74.6364 21.1029C72.3328 12.7881 74.182 5.92716 80.4613 -0.483921C85.9001 -6.03625 93.0836 -9.22134 100.177 -9.22134C105.506 -9.22134 110.264 -7.34482 113.567 -3.94163C117.197 -0.202216 119.015 5.27287 118.815 11.8839C118.769 13.4196 118.697 15.0054 118.619 16.6865C118.347 22.6569 118.033 29.4223 118.996 35.0519C120.105 41.5266 122.736 45.525 127.034 47.2789C129.338 48.2194 131.519 48.6919 133.522 48.6919C137.162 48.6919 140.261 47.1017 142.483 44.0983C146.258 38.9867 147.162 30.2357 144.736 22.3206C139.525 5.33648 126.993 -4.80038 108.469 -15.6596C94.3967 -23.9064 82.5105 -26.4508 71.7648 -27.9729C70.9651 -28.0865 70.2018 -28.1456 69.4975 -28.1456C65.0084 -28.1456 62.8729 -25.8601 60.1694 -22.9658C59.1289 -21.8526 58.0567 -20.7076 56.7208 -19.5308C55.1851 -18.1814 53.8492 -17.359 52.6679 -16.632C50.7732 -15.4688 49.142 -14.4647 47.3382 -11.7748C43.7669 -6.43609 48.5468 -3.16013 53.6039 0.306669C56.2755 2.13775 59.0426 4.03245 60.5238 6.27701C69.8292 20.376 66.0762 35.4154 59.4561 44.7889C57.5659 47.4697 54.8034 50.0005 51.8773 52.6767C48.3015 55.9527 44.6029 59.3377 42.4901 63.1225C41.5814 64.7491 41.3224 65.8532 41.6995 66.4984C41.9767 66.971 42.5901 67.1982 43.567 67.1982C45.3117 67.1982 48.0834 66.4757 51.2957 65.6352C55.7985 64.4629 61.4008 62.9998 66.3533 62.9998C68.975 62.9998 71.2241 63.4179 73.037 64.2402C74.8409 65.0627 76.3675 66.2485 77.8442 67.3981C80.2751 69.2882 82.5651 71.0693 85.8092 71.0693C86.15 71.0693 86.4998 71.0512 86.8497 71.0103H86.8542ZM73.0961 64.1176C71.2423 63.2725 69.0386 62.8635 66.3579 62.8635C61.3917 62.8635 55.7757 64.3266 51.2685 65.5034C48.0652 66.3394 45.3027 67.0573 43.5715 67.0619C42.6446 67.0619 42.0721 66.8528 41.8177 66.4257C41.4678 65.826 41.7268 64.7673 42.6083 63.1861C44.712 59.424 48.4014 56.0435 51.9727 52.7766C54.9034 50.0914 57.6704 47.5605 59.5697 44.8662C63.45 39.3729 65.7399 33.1072 66.1898 26.7461C66.7077 19.4763 64.8403 12.5609 60.6374 6.19977C59.1426 3.93704 56.3664 2.03325 53.6811 0.193077C48.6786 -3.23737 43.9532 -6.47244 47.4518 -11.7021C49.2329 -14.3693 50.8595 -15.3643 52.736 -16.5184C53.9219 -17.2454 55.2623 -18.0723 56.8072 -19.4309C58.1475 -20.6077 59.2244 -21.7618 60.2649 -22.8749C62.9456 -25.742 65.0675 -28.0093 69.493 -28.0093C70.1882 -28.0093 70.947 -27.9502 71.7421 -27.8411C82.4742 -26.319 94.3467 -23.7791 108.396 -15.5461C126.893 -4.70951 139.402 5.41372 144.6 22.3524C147.017 30.2311 146.122 38.9322 142.369 44.012C140.174 46.979 137.116 48.5511 133.518 48.5511C131.532 48.5511 129.37 48.0785 127.084 47.1471C122.831 45.4114 120.228 41.4494 119.128 35.0247C118.165 29.4087 118.478 22.6478 118.751 16.6865C118.828 15.0054 118.901 13.4196 118.946 11.8839C119.146 5.23198 117.32 -0.274915 113.662 -4.04159C110.332 -7.47204 105.543 -9.3622 100.177 -9.3622C93.0472 -9.3622 85.8228 -6.16347 80.3614 -0.583881C77.0264 2.82385 74.9681 6.33608 74.0639 10.1618C73.2597 13.5787 73.4005 17.1636 74.5001 21.1347C76.5447 28.5091 81.4837 35.8425 86.7179 43.6121C88.5445 46.3247 90.4346 49.1281 92.1658 51.9043C96.1687 58.3244 95.4735 62.8454 94.1877 65.5079C92.7837 68.4159 89.8985 70.5241 86.8361 70.8694C86.4908 70.9103 86.1454 70.9285 85.8092 70.9285C82.615 70.9285 80.3387 69.1565 77.9305 67.2845C76.4493 66.1304 74.9136 64.94 73.0961 64.1085V64.1176Z" fill="#5D5D5D"/>
<path d="M89.8355 65.3764C91.0259 64.5086 91.7256 63.2954 91.9074 61.7733C92.4481 57.3069 88.486 50.7868 84.9284 46.5658C80.4892 41.2951 76.0819 35.6701 73.9237 30.2268C73.8192 29.9588 73.6556 29.2 73.4511 28.2413C72.7559 25.0062 71.5973 19.5947 69.9162 19.5947C69.7617 19.5947 69.6027 19.6402 69.4482 19.7356C68.7485 20.149 68.544 20.9669 68.8166 22.2255C69.0392 23.2569 69.5527 24.4473 70.007 25.4969C70.4887 26.6056 70.9021 27.5643 70.8931 28.1095C70.8749 29.5135 70.2206 30.1314 69.589 30.7312C69.0938 31.1992 68.5849 31.6808 68.3986 32.5214C68.1623 33.6028 68.6076 34.4161 69.0392 35.2021C69.4391 35.9291 69.848 36.6788 69.7208 37.6466C69.48 39.4232 63.8549 45.8252 58.8978 51.4774C54.7904 56.1528 51.2463 60.1921 51.3054 60.9646C51.3054 61.0236 51.3327 61.0691 51.369 61.1009C51.7098 61.3826 52.3232 61.5189 53.2546 61.5189C54.7222 61.5189 56.7623 61.1917 59.1296 60.8101C61.9966 60.3512 65.2453 59.8287 68.0669 59.8287C70.2706 59.8287 71.9199 60.1422 73.1058 60.7873C73.751 61.1372 74.4734 61.5552 75.2322 61.996C78.6218 63.9679 82.8383 66.4169 86.4096 66.4169C87.7318 66.4169 88.8859 66.0671 89.8309 65.381L89.8355 65.3764ZM73.1785 60.6601C71.9699 60.0058 70.2978 59.6833 68.076 59.6833C65.2453 59.6833 61.9921 60.2058 59.1159 60.6647C56.7578 61.0418 54.7177 61.3689 53.2637 61.3689C52.3686 61.3689 51.778 61.2417 51.4644 60.9827C51.4644 60.9827 51.4508 60.9691 51.4463 60.9418C51.3917 60.2239 55.0903 56.0165 59.0023 51.5547C63.9776 45.8888 69.6117 39.4686 69.8616 37.6557C69.998 36.6425 69.5754 35.8746 69.1665 35.1294C68.7257 34.3297 68.3123 33.5755 68.5394 32.5441C68.7121 31.7444 69.1892 31.2991 69.689 30.8266C70.3433 30.2087 71.0203 29.568 71.0384 28.1095C71.0475 27.537 70.625 26.5647 70.1388 25.4378C69.689 24.3928 69.1756 23.2115 68.9529 22.1937C68.6939 20.9987 68.8802 20.2308 69.5209 19.8492C69.6526 19.7719 69.7889 19.731 69.9207 19.731C71.4928 19.731 72.6832 25.2834 73.3194 28.2685C73.5329 29.2727 73.6874 29.9951 73.801 30.2768C75.9638 35.7383 80.3802 41.3724 84.8284 46.6521C88.3679 50.855 92.3118 57.3296 91.7756 61.7551C91.5939 63.2409 90.9169 64.4223 89.7582 65.2674C88.8359 65.9398 87.7136 66.2761 86.4187 66.2761C82.8883 66.2761 78.6854 63.8361 75.3095 61.8733C74.5461 61.4326 73.8282 61.0145 73.1785 60.6601Z" fill="#5D5D5D"/>
<path d="M88.2815 59.6743C88.6859 55.9304 84.6784 50.06 82.6747 47.8018C79.217 43.9079 76.8043 40.5865 75.2095 38.3919C73.6283 36.2155 72.7559 35.0115 72.1925 35.0115C71.8063 35.0115 71.5928 35.5113 71.461 36.7426C70.4705 45.9935 64.4865 51.0051 60.9107 53.9948C59.3431 55.3079 58.3117 56.1712 58.2663 56.8845C58.2526 57.089 58.3253 57.2799 58.4844 57.4434C58.8115 57.7887 59.3249 57.9523 60.111 57.9523C60.9924 57.9523 62.1056 57.7478 63.396 57.5116C65.0681 57.2026 66.9673 56.8573 68.9075 56.8573C71.5519 56.8573 73.6828 57.5161 75.4276 58.8701C77.8857 60.7784 81.5206 62.8185 84.3695 62.8185C85.3963 62.8185 86.2733 62.5596 86.9821 62.0416C87.7318 61.4963 88.1725 60.6967 88.2815 59.6698V59.6743ZM84.3695 62.6868C81.557 62.6868 77.9539 60.6649 75.5139 58.7702C73.7419 57.3934 71.5837 56.7255 68.912 56.7255C66.9582 56.7255 65.0545 57.0754 63.3733 57.3843C62.092 57.6206 60.9834 57.8205 60.1155 57.8205C59.3704 57.8205 58.8842 57.6706 58.5889 57.3525C58.4571 57.2117 58.398 57.0617 58.4071 56.8936C58.448 56.2393 59.5203 55.3397 61.0015 54.0993C64.591 51.0914 70.6022 46.0616 71.5973 36.7562C71.7154 35.643 71.9017 35.1478 72.1925 35.1478C72.6878 35.1478 73.5965 36.3973 75.1004 38.4692C76.6953 40.6683 79.1125 43.9897 82.5702 47.8881C84.5603 50.1327 88.5451 55.9576 88.1452 59.6562C88.0362 60.6421 87.6182 61.41 86.9003 61.9325C86.2142 62.4323 85.3645 62.6822 84.3649 62.6822L84.3695 62.6868Z" fill="#5D5D5D"/>
<path d="M85.9865 81.7286C92.752 80.9562 100.808 72.9185 102.967 66.7755C106.715 56.1116 100.05 47.5241 93.6017 39.2183C87.3814 31.2034 81.502 23.6337 84.3599 14.4146C86.8498 6.38605 94.8921 2.05142 101.195 2.05142C104.593 2.05142 107.528 3.25549 109.469 5.44552C111.772 8.04448 112.676 11.9929 112.086 16.8636C110.055 33.5979 109.45 51.9042 128.107 57.302C130.247 57.92 132.359 58.2335 134.39 58.2335C142.246 58.2335 147.258 53.7353 150.08 49.9595C155.491 42.7215 157.372 31.894 154.755 23.0203C152.538 15.496 148.171 8.19442 141.415 0.706497C131.369 -10.4254 117.683 -19.9943 99.5815 -28.5546L98.7996 -28.9271C91.1845 -32.5302 83.3103 -36.256 75.0182 -38.3098C74.5275 -38.4324 73.9822 -38.5778 73.4006 -38.7323C70.838 -39.4139 67.6529 -40.259 64.9177 -40.259C63.8227 -40.259 62.873 -40.1181 62.1006 -39.841C60.9193 -39.4184 60.2559 -38.6096 59.6107 -37.8281C59.1291 -37.2465 58.6338 -36.6422 57.925 -36.2106C57.4661 -35.9289 56.5665 -35.5836 55.6214 -35.2155C54.0902 -34.6249 52.4999 -34.0115 52.0001 -33.4208C51.0323 -32.2849 51.3004 -31.6033 51.5548 -30.94C51.7411 -30.4674 51.9138 -30.0176 51.6866 -29.3497L51.5094 -28.8226C50.5916 -26.1237 49.0755 -24.4683 46.9612 -23.8564C46.3478 -23.6792 45.5845 -23.4566 44.6803 -23.1704C42.0677 -22.3389 40.9954 -21.0576 39.9595 -19.8171C39.1643 -18.863 38.4101 -17.9633 36.9879 -17.2364C36.9516 -17.2364 36.9061 -17.2364 36.8607 -17.2364C35.225 -17.2364 22.8208 -16.4185 21.8667 -13.3697C21.6122 -12.5473 22.1666 -11.6568 23.5251 -10.7162C25.2244 -9.53937 26.5103 -9.40309 27.3327 -9.40309C27.7325 -9.40309 28.096 -9.43944 28.4459 -9.47125C28.7458 -9.49851 29.0275 -9.52577 29.2955 -9.52577C30.2951 -9.52577 31.3038 -9.24407 32.6851 -5.8318C33.0259 -4.99122 33.2894 -4.30513 33.5075 -3.73264C34.5798 -0.924673 34.6161 -0.888313 37.3378 0.274853C38.0148 0.561104 38.8554 0.920048 39.9231 1.41531C43.4308 3.03284 44.1487 4.86847 45.0574 7.19482C45.539 8.4216 46.0843 9.8165 47.1157 11.384C48.2198 13.0606 49.5147 14.4101 50.7688 15.7141C52.9906 18.0268 55.0898 20.2123 55.7577 23.8609C56.9163 30.1811 53.4859 36.215 49.6056 41.7946C47.7245 44.5026 43.8579 47.6513 39.7641 50.9864C32.8123 56.6477 24.9336 63.0679 24.9064 69.011C24.8882 72.4051 25.7606 75.0086 27.4963 76.7533C29.3864 78.6526 32.258 79.5749 36.2791 79.5749C42.1086 79.5749 49.2694 77.6075 55.5896 75.8764C60.5649 74.5133 64.8631 73.332 67.6075 73.332C68.23 73.332 68.757 73.3956 69.1705 73.5183C71.8195 74.3043 73.9186 75.9855 75.9542 77.6121C78.6486 79.7703 81.1975 81.8059 84.837 81.8059C85.2096 81.8059 85.5912 81.7831 85.9729 81.7423L85.9865 81.7286ZM69.275 73.2002C68.8207 73.0639 68.28 73.0003 67.6211 73.0003C64.8313 73.0003 60.5149 74.1862 55.5169 75.5538C49.2149 77.2804 42.0723 79.2433 36.2882 79.2433C32.3579 79.2433 29.5591 78.3527 27.7325 76.5171C26.0605 74.8359 25.2199 72.3097 25.2335 69.0019C25.2608 63.2088 33.0758 56.8386 39.9731 51.2226C44.0851 47.874 47.9654 44.7116 49.8737 41.9673C53.7903 36.3286 57.2571 30.2265 56.0758 23.7927C55.3897 20.0487 53.2587 17.8314 51.005 15.4824C49.7601 14.1874 48.4742 12.8471 47.3883 11.1977C46.3751 9.65747 45.8344 8.28529 45.3618 7.0676C44.4259 4.6731 43.6852 2.78749 40.064 1.11542C38.9917 0.620166 38.1465 0.261222 37.4695 -0.0295677C35.7187 -0.777754 34.498 -2.05452 33.8074 -3.85986C33.5893 -4.43235 33.3257 -5.12298 32.985 -5.96356C31.6628 -9.22135 30.6314 -9.85747 29.3001 -9.85747C29.0184 -9.85747 28.7276 -9.83017 28.4186 -9.79837C28.0778 -9.76657 27.7234 -9.73027 27.3372 -9.73027C26.4921 -9.73027 25.3199 -9.87107 23.7114 -10.9843C22.4801 -11.834 21.9666 -12.6064 22.1757 -13.2788C23.0026 -15.9278 34.5662 -16.9228 36.8652 -16.9228C36.9198 -16.9228 36.9561 -16.9228 36.9788 -16.9228L37.0152 -17.0682L37.0833 -16.9274C38.5918 -17.6907 39.4142 -18.6676 40.2048 -19.6172C41.2589 -20.8758 42.254 -22.0662 44.7803 -22.8705C45.6799 -23.1567 46.4387 -23.3748 47.0521 -23.552C50.3553 -24.5062 50.3962 -24.5562 51.8138 -28.7227L51.991 -29.2497C52.2545 -30.0267 52.041 -30.5719 51.8547 -31.0581C51.6094 -31.6851 51.4003 -32.2258 52.2455 -33.2163C52.6953 -33.7434 54.3128 -34.3704 55.7395 -34.9202C56.7028 -35.2928 57.6115 -35.6426 58.0977 -35.938C58.8519 -36.3969 59.3653 -37.0194 59.8606 -37.6237C60.5058 -38.4052 61.1147 -39.1458 62.2097 -39.5365C62.9503 -39.8001 63.8636 -39.9364 64.9222 -39.9364C67.6166 -39.9364 70.779 -39.0958 73.3234 -38.4188C73.905 -38.2643 74.4502 -38.1189 74.9455 -37.9962C83.2058 -35.9516 91.0663 -32.2304 98.6678 -28.6363L99.4493 -28.2638C117.511 -19.7263 131.164 -10.1801 141.183 0.920048C147.908 8.37162 152.251 15.6323 154.455 23.1112C157.045 31.894 155.187 42.6079 149.83 49.7687C147.049 53.4854 142.115 57.9154 134.395 57.9154C132.396 57.9154 130.315 57.6064 128.202 56.9931C109.787 51.6679 110.391 33.507 112.408 16.9C113.013 11.9383 112.081 7.90362 109.714 5.23651C107.715 2.97832 104.693 1.73791 101.204 1.73791C94.7876 1.73791 86.5999 6.14978 84.0646 14.3283C81.1566 23.7018 87.3587 31.6941 93.3609 39.4228C99.7535 47.6604 106.37 56.1797 102.676 66.6801C100.545 72.7368 92.6112 80.6654 85.9593 81.4242C85.5867 81.4651 85.2187 81.4878 84.8597 81.4878C81.3293 81.4878 78.8258 79.4841 76.1723 77.3622C74.1185 75.7174 71.9921 74.0181 69.2841 73.2093L69.275 73.2002Z" fill="#5D5D5D"/>
</g>
<defs>
<clipPath id="clip0_134_7733">
<rect width="70" height="36" fill="white"/>
</clipPath>
</defs>
</svg>
