<svg width="70" height="36" viewBox="0 0 70 36" fill="none" xmlns="http://www.w3.org/2000/svg">
<g clip-path="url(#clip0_134_7731)">
<path d="M206.626 15.7604L206.577 15.7787L187.372 41.6147L149.01 54.5176L148.962 54.5358L129.757 80.3719L91.395 93.2747L91.3463 93.293L72.1412 119.129L46.3457 127.802H47.1185L72.342 119.317L72.3907 119.299L91.6019 93.4632L129.963 80.5603L130.012 80.5421L149.223 54.706L187.585 41.8031L187.634 41.7849L206.839 15.9488L245.2 3.04603L245.249 3.02779L257.888 -13.9714V-14.4941L244.993 2.85154L206.632 15.7543L206.626 15.7604ZM201.824 12.5332L201.776 12.5514L182.571 38.3875L144.209 51.2903L144.16 51.3086L124.955 77.1447L86.5937 90.0475L86.545 90.0658L67.3399 115.902L31.9419 127.808H32.7147L67.5407 116.096L67.5894 116.078L86.7945 90.242L125.156 77.3392L125.205 77.3209L144.41 51.4848L182.771 38.582L182.82 38.5638L202.025 12.7277L240.387 -0.175125L240.435 -0.193359L257.876 -23.6531V-24.1758L240.18 -0.369614L201.818 12.5332H201.824ZM220.981 -52.0418L201.776 -26.2057L163.414 -13.3029L163.365 -13.2846L144.16 12.5514L105.793 25.4543L105.744 25.4725L86.5389 51.3086L48.1713 64.2114L48.1226 64.2297L28.9175 90.0658L-9.44405 102.969L-9.49274 102.987L-27.9433 127.808H-27.5538L-9.23106 103.157L29.1305 90.2542L29.1791 90.2359L48.3843 64.3998L86.7519 51.497L86.8006 51.4787L106.006 25.6427L144.373 12.7398L144.422 12.7216L163.627 -13.1145L201.989 -26.0173L202.037 -26.0355L221.242 -51.8716L257.894 -64.1971V-64.4584L221.042 -52.0661L220.993 -52.0479L220.981 -52.0418ZM225.782 -48.8146L206.577 -22.9785L168.215 -10.0756L168.167 -10.0574L148.962 15.7787L110.594 28.6815L110.545 28.6997L91.3402 54.5358L52.9725 67.4387L52.9239 67.4569L33.7188 93.293L-4.64885 106.196L-4.69754 106.214L-20.7505 127.808H-20.361L-4.43587 106.39L33.9257 93.4874L33.9743 93.4692L53.1795 67.6331L91.5471 54.7303L91.5958 54.7121L110.801 28.876L149.162 15.9731L149.211 15.9549L168.422 -9.88117L206.784 -22.784L206.833 -22.8022L226.044 -48.6383L257.888 -59.3471V-59.6085L225.837 -48.8267L225.788 -48.8085L225.782 -48.8146ZM249.788 44.848L230.583 70.6841L192.222 83.587L192.173 83.6052L172.968 109.441L134.606 122.344L134.558 122.362L130.511 127.808H130.901L134.819 122.539L173.181 109.636L173.23 109.618L192.435 83.7814L230.796 70.8786L230.845 70.8604L250.05 45.0243L257.888 42.3866V42.1253L249.843 44.8298L249.795 44.848H249.788ZM254.59 48.0753L235.385 73.9113L197.023 86.8142L196.974 86.8324L177.769 112.668L139.408 125.571L139.359 125.59L137.71 127.802H138.099L139.615 125.76L177.976 112.857L178.025 112.839L197.23 87.0026L235.598 74.0998L235.646 74.0815L254.851 48.2455L257.888 47.2244V46.9631L254.645 48.051L254.596 48.0692L254.59 48.0753ZM216.228 22.221L216.18 22.2392L196.974 48.0753L158.613 60.9781L158.564 60.9964L139.359 86.8324L100.998 99.7353L100.949 99.7535L81.7437 125.59L75.1595 127.802H75.9323L81.9506 125.778L81.9993 125.76L101.204 99.9237L139.566 87.0208L139.615 87.0026L158.82 61.1665L197.181 48.2637L197.23 48.2455L216.435 22.4094L254.797 9.50656L254.845 9.48833L257.882 5.40414V4.88147L254.59 9.31208L216.228 22.2149V22.221ZM211.427 18.9937L211.378 19.012L192.173 44.848L153.812 57.7509L153.763 57.7691L134.558 83.6052L96.1963 96.508L96.1476 96.5263L76.9424 122.362L60.7556 127.808H61.5284L77.1493 122.557L77.198 122.539L96.4032 96.7025L134.765 83.7997L134.813 83.7814L154.018 57.9454L192.38 45.0425L192.429 45.0243L211.634 19.1882L249.995 6.2854L250.044 6.26717L257.882 -4.27754V-4.80022L249.788 6.09093L211.427 18.9937ZM244.987 -35.8935L225.782 -10.0574L187.421 2.84547L187.372 2.86369L168.167 28.6997L129.805 41.6026L129.757 41.6208L110.551 67.4569L72.1898 80.3597L72.1412 80.378L52.936 106.214L14.5745 119.117L14.5258 119.135L8.07544 127.808H8.4649L14.7814 119.305L53.1429 106.402L53.1916 106.384L72.3967 80.5482L110.758 67.6453L110.807 67.6271L130.012 41.791L168.374 28.8881L168.422 28.8699L187.627 3.03387L225.989 -9.86897L226.038 -9.88717L245.243 -35.7233L257.882 -39.9716V-40.2329L245.036 -35.9117L244.987 -35.8935ZM254.59 -29.4329L235.385 -3.59685L197.023 9.30599L196.974 9.32423L177.769 35.1603L139.408 48.0631L139.359 48.0813L120.148 73.9174L81.7863 86.8203L81.7376 86.8385L62.5325 112.675L24.171 125.577L24.1223 125.596L22.4732 127.808H22.8626L24.3779 125.766L62.7394 112.863L62.7881 112.845L81.9932 87.0087L120.355 74.1058L120.403 74.0876L139.615 48.2515L177.976 35.3487L178.025 35.3305L197.23 9.49441L235.598 -3.40844L235.646 -3.42667L254.851 -29.2628L257.888 -30.2838V-30.5452L254.645 -29.4573L254.596 -29.439L254.59 -29.4329ZM249.788 -32.6602L230.583 -6.82407L192.222 6.07877L192.173 6.097L172.968 31.933L134.606 44.8359L134.558 44.8541L115.353 70.6902L76.9911 83.593L76.9424 83.6113L57.7373 109.447L19.3758 122.35L19.3271 122.368L15.2804 127.814H15.6698L19.5888 122.545L57.9503 109.642L57.999 109.624L77.2041 83.7875L115.566 70.8847L115.614 70.8664L134.819 45.0304L173.181 32.1275L173.23 32.1093L192.435 6.27325L230.796 -6.62959L230.845 -6.64783L250.05 -32.4839L257.888 -35.1216V-35.383L249.843 -32.6784L249.795 -32.6602H249.788ZM230.583 -45.5812L211.372 -19.7452L173.011 -6.84231L172.962 -6.82407L153.757 19.012L115.395 31.9148L115.347 31.933L96.1415 57.7691L57.7799 70.672L57.7312 70.6902L38.5261 96.5263L0.164589 109.429L0.115913 109.447L-13.5334 127.808H-13.1439L0.377579 109.618L38.7391 96.7147L38.7878 96.6964L57.9929 70.8604L96.3545 57.9575L96.4032 57.9393L115.608 32.1032L153.97 19.2004L154.018 19.1821L173.224 -6.6539L211.591 -19.5568L211.64 -19.575L230.845 -45.4111L257.888 -54.5032V-54.7646L230.638 -45.5995L230.589 -45.5812H230.583ZM216.228 -55.2873L216.18 -55.269L196.974 -29.4329L158.613 -16.5301L158.564 -16.5119L139.359 9.32423L100.998 22.227L100.949 22.2453L81.7437 48.0813L43.3822 60.9842L43.3335 61.0024L24.1284 86.8385L-14.2332 99.7413L-14.2819 99.7596L-33.487 125.596L-40.0712 127.808H-39.2984L-33.2801 125.784L-33.2314 125.766L-14.0263 99.9297L24.3353 87.0269L24.3839 87.0087L43.5891 61.1726L81.9567 48.2698L82.0054 48.2515L101.211 22.4155L139.572 9.51264L139.621 9.49441L158.826 -16.3417L197.187 -29.2445L197.236 -29.2628L216.441 -55.0988L254.803 -68.0017L254.851 -68.0199L257.888 -72.1041V-72.6268L254.596 -68.1962L216.234 -55.2933L216.228 -55.2873ZM235.385 -42.3479L216.18 -16.5119L177.812 -3.609L177.763 -3.59077L158.558 22.2453L120.197 35.1481L120.148 35.1664L100.943 61.0024L62.5812 73.9053L62.5325 73.9235L43.3274 99.7596L4.96587 112.662L4.9172 112.681L-6.33448 127.814H-5.94501L5.17277 112.857L43.5343 99.9541L43.583 99.9358L62.7881 74.0998L101.15 61.1969L101.198 61.1787L120.403 35.3426L158.765 22.4398L158.814 22.4215L178.019 -3.41451L216.386 -16.3174L216.435 -16.3356L235.64 -42.1717L257.882 -49.6533V-49.9146L235.433 -42.3662L235.385 -42.3479ZM244.987 41.6269L225.782 67.463L187.421 80.3658L187.372 80.384L168.167 106.22L129.799 119.123L129.75 119.141L123.3 127.814H123.689L130.006 119.311L168.368 106.409L168.416 106.39L187.621 80.5542L225.983 67.6514L226.032 67.6331L245.237 41.7971L257.876 37.5488V37.2875L245.03 41.6087L244.981 41.6269H244.987ZM249.788 -71.4112L211.427 -58.5084L211.378 -58.4902L192.173 -32.6541L153.812 -19.7513L153.763 -19.733L134.558 6.10308L96.1963 19.0059L96.1476 19.0241L76.9424 44.8602L38.5809 57.763L38.5322 57.7813L19.3271 83.6174L-19.0345 96.5202L-19.0831 96.5384L-38.2883 122.374L-54.4751 127.82H-53.7022L-38.0814 122.569L-38.0327 122.551L-18.8276 96.7147L19.534 83.8118L19.5827 83.7936L38.7878 57.9575L77.1554 45.0547L77.2041 45.0365L96.4092 19.2004L134.771 6.29756L134.819 6.27933L154.025 -19.5568L192.386 -32.4596L192.435 -32.4778L211.64 -58.3139L250.001 -71.2168L250.05 -71.235L257.888 -81.7736V-82.2963L249.795 -71.4052L249.788 -71.4112ZM240.186 -39.1146L220.981 -13.2786L182.613 -0.375694L182.564 -0.35746L163.359 25.4786L124.998 38.3814L124.949 38.3997L105.744 64.2357L67.3825 77.1386L67.3338 77.1568L48.1287 102.993L9.76711 115.896L9.71851 115.914L0.870483 127.82H1.25995L9.98012 116.09L48.3417 103.187L48.3903 103.169L67.6015 77.3331L105.963 64.4302L106.012 64.412L125.223 38.5759L163.585 25.6731L163.633 25.6548L182.838 -0.181213L221.206 -13.0841L221.255 -13.1023L240.46 -38.9384L257.9 -44.8033V-45.0646L240.253 -39.1329L240.204 -39.1146H240.186ZM230.583 109.453L216.934 127.814H217.324L230.845 109.624L257.888 100.531V100.27L230.638 109.435L230.589 109.453H230.583ZM235.385 112.681L224.133 127.814H224.522L235.646 112.857L257.888 105.375V105.114L235.439 112.662L235.391 112.681H235.385ZM220.981 102.993L202.53 127.814H202.92L221.242 103.163L257.894 90.8376V90.5763L221.042 102.969L220.993 102.987L220.981 102.993ZM240.186 115.914L231.338 127.82H231.727L240.448 116.09L257.888 110.225V109.964L240.241 115.896L240.192 115.914H240.186ZM216.228 99.7474L216.18 99.7657L196.974 125.602L190.39 127.814H191.163L197.181 125.79L197.23 125.772L216.435 99.9358L254.797 87.033L254.845 87.0148L257.882 82.9306V82.4079L254.59 86.8385L216.228 99.7413V99.7474ZM254.59 125.602L252.941 127.814H253.33L254.845 125.772L257.882 124.751V124.49L254.638 125.577L254.59 125.596V125.602ZM249.788 122.374L245.742 127.82H246.131L250.05 122.551L257.888 119.913V119.652L249.843 122.356L249.795 122.374H249.788ZM240.186 38.3997L220.981 64.2357L182.613 77.1386L182.564 77.1568L163.359 102.993L124.998 115.896L124.949 115.914L116.101 127.82H116.491L125.211 116.09L163.572 103.187L163.621 103.169L182.826 77.3331L221.194 64.4302L221.242 64.412L240.448 38.5759L257.888 32.711V32.4496L240.241 38.3814L240.192 38.3997H240.186ZM244.987 119.141L238.537 127.814H238.926L245.243 119.311L257.882 115.063V114.802L245.036 119.123L244.987 119.141ZM211.427 96.5141L211.378 96.5323L192.173 122.368L175.986 127.814H176.759L192.38 122.563L192.429 122.545L211.634 96.7086L249.995 83.8058L250.044 83.7875L257.882 73.2428V72.7201L249.788 83.6113L211.427 96.5141ZM225.782 28.7058L206.577 54.5419L168.215 67.4447L168.167 67.463L148.962 93.299L110.594 106.202L110.545 106.22L94.4924 127.814H94.8818L110.807 106.396L149.169 93.4935L149.217 93.4753L168.422 67.6392L206.784 54.7364L206.833 54.7181L226.038 28.8821L257.882 18.1733V17.9119L225.831 28.6937L225.782 28.7119V28.7058ZM235.385 35.1664L216.18 61.0024L177.812 73.9053L177.763 73.9235L158.558 99.7596L120.197 112.662L120.148 112.681L108.896 127.814H109.286L120.403 112.857L158.765 99.9541L158.814 99.9358L178.019 74.0998L216.386 61.1969L216.435 61.1787L235.64 35.3426L257.882 27.861V27.5997L235.433 35.1481L235.385 35.1664ZM230.583 31.9391L211.378 57.7752L173.017 70.678L172.968 70.6963L153.763 96.5323L115.395 109.435L115.347 109.453L101.697 127.814H102.087L115.608 109.624L153.97 96.7208L154.018 96.7025L173.224 70.8664L211.591 57.9636L211.64 57.9454L230.845 32.1093L257.888 23.0171V22.7558L230.638 31.9209L230.589 31.9391H230.583ZM220.981 25.4786L201.776 51.3147L163.414 64.2175L163.365 64.2357L144.16 90.0718L105.793 102.975L105.744 102.993L87.2935 127.814H87.6829L106.006 103.163L144.373 90.2602L144.422 90.242L163.627 64.4059L201.989 51.5031L202.037 51.4848L221.242 25.6488L257.894 13.3233V13.062L221.042 25.4543L220.993 25.4725L220.981 25.4786ZM206.626 93.2869L206.577 93.3051L187.372 119.141L161.582 127.814H162.355L187.579 119.33L187.627 119.311L206.833 93.4753L245.194 80.5724L245.243 80.5542L257.882 63.555V63.0324L244.987 80.378L206.626 93.2808V93.2869ZM201.824 90.0597L201.776 90.0779L182.571 115.914L147.173 127.82H147.945L182.771 116.108L182.82 116.09L202.025 90.2542L240.387 77.3513L240.435 77.3331L257.876 53.8733V53.3507L240.18 77.1568L201.818 90.0597H201.824ZM225.782 106.226L209.729 127.82H210.119L226.044 106.402L257.888 95.6936V95.4323L225.837 106.214L225.788 106.232L225.782 106.226ZM-42.8705 3.03387L-4.5089 -9.86897L-4.46022 -9.88717L14.7449 -35.7233L53.1064 -48.6261L53.1551 -48.6444L72.3663 -74.4805L110.74 -87.3833L110.789 -87.4015L112.438 -89.6199H112.048L110.533 -87.5778L72.1716 -74.6749L72.1229 -74.6567L52.9178 -48.8206L14.5562 -35.9178L14.5076 -35.8996L-4.69754 -10.0635L-43.0591 2.83938L-43.1078 2.85761L-62.3372 28.6997L-65.3738 29.7208V29.9821L-62.0817 28.876L-42.8766 3.03994L-42.8705 3.03387ZM-52.473 35.3305L-33.2679 9.49441L5.09366 -3.40844L5.14235 -3.42667L24.3474 -29.2628L62.709 -42.1656L62.7577 -42.1838L81.9628 -68.0199L120.324 -80.9228L120.373 -80.941L126.823 -89.6138H126.434L120.111 -81.1112L81.7498 -68.2083L81.7011 -68.1901L62.496 -42.354L24.1345 -29.4512L24.0858 -29.4329L4.88068 -3.59685L-33.4809 9.30599L-33.5296 9.32423L-52.7347 35.1603L-65.3738 39.4085V39.6699L-52.5278 35.3487L-52.4791 35.3305H-52.473ZM-18.9128 57.9575L-18.8641 57.9393L0.341064 32.1032L38.7026 19.2004L38.7513 19.1821L57.9564 -6.6539L96.3179 -19.5568L96.3666 -19.575L115.572 -45.4111L153.933 -58.3139L153.982 -58.3322L173.187 -84.1682L189.404 -89.6138H188.632L173.005 -84.3566L172.956 -84.3384L153.751 -58.5023L115.383 -45.5995L115.334 -45.5812L96.1293 -19.7452L57.7677 -6.84231L57.7191 -6.82407L38.514 19.012L0.15242 31.9148L0.103737 31.933L-19.1014 57.7691L-57.4629 70.672L-57.5116 70.6902L-65.3738 81.2289V81.7515L-57.2804 70.8604L-18.9188 57.9575H-18.9128ZM-23.714 54.7303L-23.6653 54.7121L-4.46022 28.876L33.9013 15.9731L33.95 15.9549L53.1551 -9.88117L91.5228 -22.784L91.5714 -22.8022L110.777 -48.6383L149.138 -61.5412L149.187 -61.5594L168.416 -87.3955L175.007 -89.6138H174.234L168.215 -87.5899L168.167 -87.5717L148.956 -61.7356L110.594 -48.8328L110.545 -48.8146L91.3402 -22.9785L52.9725 -10.0756L52.9239 -10.0574L33.7188 15.7787L-4.64885 28.6815L-4.69754 28.6997L-23.9027 54.5358L-62.2642 67.4387L-62.3129 67.4569L-65.3495 71.5411V72.0637L-62.0573 67.6331L-23.6958 54.7303H-23.714ZM-55.4913 -89.6138H-56.2641L-62.2886 -87.5899L-62.3372 -87.5717L-65.3738 -83.4875V-82.9649L-62.0817 -87.3955L-55.4913 -89.6138ZM-38.0692 45.0182L-18.8641 19.1821L19.4975 6.27933L19.5462 6.2611L38.7513 -19.575L77.1189 -32.4778L77.1676 -32.4961L96.3788 -58.3322L134.74 -71.235L134.789 -71.2532L148.45 -89.6138H148.061L134.54 -71.4234L96.178 -58.5206L96.1293 -58.5023L76.9181 -32.6663L38.5565 -19.7634L38.5079 -19.7452L19.3027 6.09093L-19.0649 18.9937L-19.1136 19.012L-38.3187 44.848L-65.3738 53.9402V54.2015L-38.124 45.0365L-38.0753 45.0182H-38.0692ZM-42.8705 41.791L-23.6653 15.9549L14.7023 3.0521L14.751 3.03387L33.9561 -22.8022L72.3176 -35.7051L72.3663 -35.7233L91.5714 -61.5594L129.933 -74.4622L129.982 -74.4805L141.252 -89.6138H140.862L129.738 -74.6506L91.3767 -61.7478L91.328 -61.7296L72.1229 -35.8935L33.7614 -22.9906L33.7127 -22.9724L14.5076 2.86369L-23.8601 15.7665L-23.9088 15.7847L-43.1139 41.6208L-65.3738 49.0963V49.3577L-42.9252 41.8092L-42.8766 41.791H-42.8705ZM-47.6717 38.5638L-28.4666 12.7277L9.90102 -0.175125L9.94971 -0.193359L29.1548 -26.0295L67.5164 -38.9323L67.565 -38.9505L86.7702 -64.7866L125.132 -77.6895L125.18 -77.7077L134.047 -89.6138H133.657L124.937 -77.8839L86.5754 -64.9811L86.5267 -64.9629L67.3216 -39.1268L28.9601 -26.2239L28.9114 -26.2057L9.70631 -0.369614L-28.6614 12.5332L-28.71 12.5514L-47.9152 38.3875L-65.3738 44.2524V44.5138L-47.7265 38.582L-47.6778 38.5638H-47.6717ZM-52.473 112.845L-33.2618 87.0087L5.09975 74.1058L5.14842 74.0876L24.3535 48.2515L62.7151 35.3487L62.7638 35.3305L81.9689 9.49441L120.33 -3.40844L120.379 -3.42667L139.584 -29.2628L177.946 -42.1656L177.994 -42.1838L197.2 -68.0199L235.567 -80.9228L235.616 -80.941L242.066 -89.6138H241.677L235.36 -81.1112L196.999 -68.2083L196.95 -68.1901L177.745 -42.354L139.383 -29.4512L139.335 -29.4329L120.13 -3.59685L81.7681 9.30599L81.7194 9.32423L62.5143 35.1603L24.1527 48.0631L24.104 48.0813L4.89893 73.9174L-33.4626 86.8203L-33.5113 86.8385L-52.7164 112.675L-65.3555 116.923V117.184L-52.5095 112.863L-52.4609 112.845H-52.473ZM-57.2743 109.618L-38.0692 83.7814L0.292381 70.8786L0.341064 70.8604L19.5462 45.0243L57.9077 32.1215L57.9564 32.1032L77.1615 6.26717L115.523 -6.63567L115.572 -6.6539L134.777 -32.49L173.138 -45.3928L173.187 -45.4111L192.392 -71.2471L230.754 -84.15L230.802 -84.1682L234.849 -89.6138H234.46L230.541 -84.3445L192.179 -71.4416L192.131 -71.4234L172.925 -45.5873L134.564 -32.6845L134.515 -32.6663L115.31 -6.83015L76.9485 6.07269L76.8998 6.09093L57.6947 31.927L19.3332 44.8298L19.2845 44.848L0.0793915 70.6841L-38.2822 83.587L-38.3309 83.6052L-57.536 109.441L-65.3738 112.079V112.34L-57.3291 109.636L-57.2804 109.618H-57.2743ZM-42.8705 80.5482L-4.5089 67.6453L-4.46022 67.6271L14.7449 41.791L53.1064 28.8881L53.1551 28.8699L72.3602 3.03387L110.722 -9.86897L110.77 -9.88717L129.976 -35.7233L168.337 -48.6261L168.386 -48.6444L187.591 -74.4805L225.983 -87.3833L226.032 -87.4015L227.681 -89.6199H227.291L225.776 -87.5778L187.414 -74.6749L187.366 -74.6567L168.161 -48.8206L129.793 -35.9178L129.744 -35.8996L110.533 -10.0635L72.1716 2.83938L72.1229 2.85761L52.9178 28.6937L14.5562 41.5965L14.5076 41.6147L-4.69754 67.4508L-43.0591 80.3537L-43.1078 80.3719L-62.319 106.208L-65.3555 107.229V107.49L-62.0634 106.384L-42.8583 80.5482H-42.8705ZM-14.1115 61.1848L-14.0628 61.1665L5.14235 35.3305L43.5039 22.4276L43.5526 22.4094L62.7577 -3.42667L101.119 -16.3295L101.168 -16.3478L120.373 -42.1838L158.735 -55.0867L158.783 -55.1049L177.988 -80.941L203.814 -89.6138H203.041L177.812 -81.1294L177.763 -81.1112L158.558 -55.2751L120.197 -42.3722L120.148 -42.354L100.943 -16.5179L62.5812 -3.61507L62.5325 -3.59685L43.3274 22.2392L4.96587 35.142L4.9172 35.1603L-14.2879 60.9964L-52.6495 73.8992L-52.6982 73.9174L-65.3738 90.9166V91.4393L-52.4791 74.0876L-14.1176 61.1848H-14.1115ZM-42.8705 119.299L-23.6653 93.4632L14.7023 80.5603L14.751 80.5421L33.9561 54.706L72.3176 41.8031L72.3663 41.7849L91.5775 15.9488L129.939 3.04603L129.988 3.02779L149.193 -22.8083L187.554 -35.7112L187.603 -35.7294L206.808 -61.5655L245.17 -74.4683L245.218 -74.4865L256.494 -89.6138H256.105L244.981 -74.6506L206.62 -61.7478L206.571 -61.7296L187.366 -35.8935L149.004 -22.9906L148.956 -22.9724L129.75 2.86369L91.3889 15.7665L91.3402 15.7847L72.129 41.6208L33.7674 54.5237L33.7188 54.5419L14.5136 80.378L-23.854 93.2808L-23.9027 93.299L-43.1078 119.135L-65.3738 126.611V126.872L-42.9252 119.324L-42.8766 119.305L-42.8705 119.299ZM-9.31017 64.412L-9.26149 64.3938L9.94362 38.5577L48.3052 25.6548L48.3538 25.6366L67.5589 -0.19944L105.921 -13.1023L105.969 -13.1205L125.174 -38.9566L163.536 -51.8595L163.585 -51.8777L182.79 -77.7138L218.218 -89.6138H217.445L182.613 -77.9022L182.564 -77.8839L163.359 -52.0479L124.998 -39.145L124.949 -39.1268L105.744 -13.2907L67.3825 -0.387848L67.3338 -0.369614L48.1287 25.4664L9.76711 38.3693L9.71851 38.3875L-9.48666 64.2236L-47.8482 77.1264L-47.8969 77.1447L-65.3738 100.604V101.127L-47.6778 77.3209L-9.31627 64.4181L-9.31017 64.412ZM-33.2679 48.2455L-14.0628 22.4094L24.2988 9.50656L24.3474 9.48833L43.5526 -16.3478L81.9202 -29.2506L81.9689 -29.2688L101.174 -55.1049L139.536 -68.0078L139.584 -68.026L155.655 -89.6138H155.266L139.341 -68.1962L100.979 -55.2933L100.931 -55.2751L81.7255 -29.439L43.3639 -16.5362L43.3152 -16.5179L24.1101 9.31815L-14.2514 22.221L-14.3001 22.2392L-33.5052 48.0753L-65.3738 58.7841V59.0454L-33.3227 48.2637L-33.274 48.2455H-33.2679ZM-47.6717 116.072L-28.4666 90.2359L9.90102 77.3331L9.94971 77.3148L29.1548 51.4787L67.5164 38.5759L67.565 38.5577L86.7702 12.7216L125.132 -0.181213L125.18 -0.19944L144.386 -26.0355L182.747 -38.9384L182.796 -38.9566L202.001 -64.7927L240.362 -77.6955L240.411 -77.7138L249.259 -89.6199H248.87L240.149 -77.89L201.788 -64.9872L201.739 -64.9689L182.534 -39.1329L144.173 -26.23L144.124 -26.2118L124.919 -0.375694L86.5572 12.5271L86.5085 12.5453L67.3034 38.3814L28.9418 51.2843L28.8931 51.3025L9.68802 77.1386L-28.6796 90.0414L-28.7283 90.0597L-47.9334 115.896L-65.3738 121.767V122.028L-47.7265 116.096L-47.6778 116.078L-47.6717 116.072ZM-57.2804 32.1032L-38.0753 6.26717L0.286293 -6.63567L0.334976 -6.6539L19.5401 -32.49L57.9016 -45.3928L57.9503 -45.4111L77.1554 -71.2471L115.517 -84.15L115.566 -84.1682L119.612 -89.6138H119.223L115.304 -84.3445L76.9424 -71.4416L76.8938 -71.4234L57.6886 -45.5873L19.3271 -32.6845L19.2784 -32.6663L0.0733109 -6.83015L-38.2883 6.07269L-38.3369 6.09093L-57.5421 31.927L-65.3799 34.5647V34.826L-57.3352 32.1215L-57.2865 32.1032H-57.2804ZM-47.6778 -38.9505L-28.4727 -64.7866L9.89491 -77.6895L9.94362 -77.7077L18.7977 -89.6138H18.4082L9.68802 -77.8839L-28.6796 -64.9811L-28.7283 -64.9629L-47.9334 -39.1268L-65.3738 -33.2619V-33.0005L-47.7265 -38.9323L-47.6778 -38.9505ZM-38.0753 -32.49L-18.8702 -58.3261L19.4914 -71.2289L19.5401 -71.2471L33.2015 -89.6138H32.8121L19.2906 -71.4234L-19.0771 -58.5206L-19.1257 -58.5023L-38.3309 -32.6663L-65.3738 -23.5741V-23.3128L-38.124 -32.4778L-38.0753 -32.4961V-32.49ZM-33.274 -29.2628L-14.0689 -55.0988L24.2927 -68.0017L24.3413 -68.0199L40.4065 -89.6138H40.017L24.0919 -68.1962L-14.2697 -55.2933L-14.3184 -55.2751L-33.5235 -29.439L-65.3738 -18.7241V-18.4628L-33.3227 -29.2445L-33.274 -29.2628ZM-42.8766 -35.7233L-23.6714 -61.5594L14.6962 -74.4622L14.7449 -74.4805L26.0026 -89.6138H25.6132L14.4893 -74.6506L-23.8783 -61.7478L-23.927 -61.7296L-43.1321 -35.8935L-65.3738 -28.418V-28.1566L-42.9252 -35.7051L-42.8766 -35.7233ZM-28.4727 -26.0355L-9.26759 -51.8716L29.094 -64.7745L29.1426 -64.7927L47.6114 -89.6138H47.222L28.8992 -64.9629L-9.46231 -52.06L-9.51099 -52.0418L-28.7161 -26.2057L-65.3738 -13.8802V-13.6189L-28.5214 -26.0112L-28.4727 -26.0295V-26.0355ZM-41.0875 -89.6138H-41.8603L-57.4873 -84.3566L-57.536 -84.3384L-65.3738 -73.7998V-73.2771L-57.2804 -84.1682L-41.0875 -89.6138ZM-12.2737 -89.6138H-13.0466L-47.8786 -77.9022L-47.9273 -77.8839L-65.3738 -54.4181V-53.8955L-47.6778 -77.7077L-12.2737 -89.6138ZM-26.6776 -89.6138H-27.4504L-52.686 -81.1294L-52.7347 -81.1112L-65.3738 -64.112V-63.5893L-52.4791 -80.941L-26.6836 -89.6138H-26.6776ZM-23.714 -22.784L-23.6653 -22.8022L-4.46022 -48.6383L33.9013 -61.5412L33.95 -61.5594L53.1673 -87.3955L59.7576 -89.6138H58.9848L52.9665 -87.5899L52.9178 -87.5717L33.7127 -61.7356L-4.65495 -48.8328L-4.70362 -48.8146L-23.9088 -22.9785L-62.2886 -10.0756L-62.3372 -10.0574L-65.3738 -5.97321V-5.45053L-62.0817 -9.88117L-23.7201 -22.784H-23.714ZM-52.473 -42.1778L-33.2679 -68.0138L5.09366 -80.9228L5.14235 -80.941L11.5988 -89.6138H11.2093L4.88676 -81.1112L-33.4748 -68.2083L-33.5235 -68.1901L-52.7286 -42.354L-65.3738 -38.1057V-37.8444L-52.5278 -42.1656L-52.4791 -42.1838L-52.473 -42.1778ZM-9.30409 -13.0901L-9.25541 -13.1084L9.94971 -38.9445L48.3112 -51.8473L48.3599 -51.8655L67.565 -77.7016L102.969 -89.6138H102.196L67.3642 -77.9022L67.3155 -77.8839L48.1104 -52.0479L9.74892 -39.145L9.70022 -39.1268L-9.50491 -13.2907L-47.8665 -0.387848L-47.9152 -0.369614L-65.3738 23.0901V23.6127L-47.6778 -0.193359L-9.31627 -13.0962L-9.30409 -13.0901ZM-18.9067 -19.5507L-18.858 -19.5689L0.347145 -45.405L38.7087 -58.3078L38.7574 -58.3261L57.9625 -84.1621L74.1615 -89.6138H73.3886L57.7617 -84.3566L57.713 -84.3384L38.5079 -58.5023L0.146332 -45.5995L0.0976486 -45.5812L-19.1075 -19.7452L-57.469 -6.84231L-57.5177 -6.82407L-65.3738 3.71456V4.23724L-57.2804 -6.6539L-18.9188 -19.5568L-18.9067 -19.5507ZM-14.1054 -16.3235L-14.0567 -16.3417L5.15452 -42.1778L43.516 -55.0806L43.5647 -55.0988L62.7698 -80.9349L88.5653 -89.6138H87.7925L62.5629 -81.1294L62.5143 -81.1112L43.3092 -55.2751L4.9476 -42.3722L4.89893 -42.354L-14.3062 -16.5179L-52.6678 -3.61507L-52.7164 -3.59685L-65.3738 13.4023V13.925L-52.4791 -3.42059L-14.1176 -16.3235H-14.1054ZM-57.2804 -45.4111L-38.0692 -71.2471L0.292381 -84.15L0.341064 -84.1682L4.39385 -89.6138H4.00439L0.0854797 -84.3445L-38.2761 -71.4416L-38.3248 -71.4234L-57.536 -45.5873L-65.3738 -42.9496V-42.6883L-57.3291 -45.3928L-57.2804 -45.4111ZM-42.8705 -74.4805L-4.5089 -87.3833L-4.46022 -87.4015L-2.8111 -89.6199H-3.20057L-4.71579 -87.5778L-43.0774 -74.6689L-43.126 -74.6506L-62.3372 -48.8146L-65.3738 -47.7935V-47.5322L-62.0817 -48.6383L-42.8705 -74.4805ZM-28.4666 51.4787L-9.26149 25.6427L29.1 12.7398L29.1487 12.7216L48.3538 -13.1145L86.7215 -26.0173L86.7702 -26.0355L105.975 -51.8716L144.343 -64.7745L144.392 -64.7927L162.854 -89.6138H162.465L144.142 -64.9629L105.774 -52.06L105.726 -52.0418L86.5207 -26.2057L48.153 -13.3029L48.1043 -13.2846L28.8992 12.5514L-9.46231 25.4543L-9.51099 25.4725L-28.7161 51.3086L-65.3738 63.628V63.8893L-28.5214 51.497L-28.4727 51.4787H-28.4666Z" fill="#7B7B7B"/>
</g>
<defs>
<clipPath id="clip0_134_7731">
<rect width="70" height="36" fill="white"/>
</clipPath>
</defs>
</svg>
