<svg width="70" height="36" viewBox="0 0 70 36" fill="none" xmlns="http://www.w3.org/2000/svg">
<g clip-path="url(#clip0_134_7769)">
<path d="M60.7745 26.2421H59.6299V45.3871H60.7745V26.2421Z" fill="#9D9D9D"/>
<path d="M64.7002 23.9496H63.5557V47.617H64.7002V23.9496Z" fill="#9D9D9D"/>
<path d="M68.628 21.7394H67.4834V47.6169H68.628V21.7394Z" fill="#9D9D9D"/>
<path d="M10.5313 20.3036L9.95898 21.2949L26.5049 30.8477L27.0772 29.8564L10.5313 20.3036Z" fill="#9D9D9D"/>
<path d="M6.56447 22.5474L5.99219 23.5386L26.503 35.3805L27.0753 34.3893L6.56447 22.5474Z" fill="#9D9D9D"/>
<path d="M2.66701 24.8289L2.09473 25.8201L26.5049 39.9133L27.0772 38.9221L2.66701 24.8289Z" fill="#9D9D9D"/>
<path d="M27.0747 43.4596L-0.5 27.5378V28.8599L26.5024 44.4496L27.0747 43.4596Z" fill="#9D9D9D"/>
<path d="M23.2134 45.7619L-0.5 32.0699V33.3921L22.6411 46.7551L23.2134 45.7619Z" fill="#9D9D9D"/>
<path d="M70.9294 4.65656L58.0499 -2.77979H55.7607L70.3571 5.64655L70.9294 4.65656Z" fill="#9D9D9D"/>
<path d="M50.4151 -2.65192L49.8428 -1.66071L70.3564 10.1828L70.9287 9.19163L50.4151 -2.65192Z" fill="#9D9D9D"/>
<path d="M46.5186 -0.370239L45.9463 0.620975L70.3564 14.7142L70.9287 13.723L46.5186 -0.370239Z" fill="#9D9D9D"/>
<path d="M42.6035 1.90668L42.0312 2.8979L70.355 19.2506L70.9274 18.2594L42.6035 1.90668Z" fill="#9D9D9D"/>
<path d="M42.5879 6.43213L42.0156 7.42335L66.497 21.5577L67.0693 20.5664L42.5879 6.43213Z" fill="#9D9D9D"/>
<path d="M42.5879 10.9681L42.0156 11.9594L62.5492 23.8144L63.1215 22.8232L42.5879 10.9681Z" fill="#9D9D9D"/>
<path d="M42.5879 15.4985L42.0156 16.4897L58.5929 26.0606L59.1651 25.0694L42.5879 15.4985Z" fill="#9D9D9D"/>
<path d="M44.3508 19.6692L27.8447 29.199L28.417 30.1902L44.9231 20.6604L44.3508 19.6692Z" fill="#9D9D9D"/>
<path d="M48.309 21.9214L27.8467 33.7354L28.419 34.7266L48.8813 22.9126L48.309 21.9214Z" fill="#9D9D9D"/>
<path d="M52.2539 24.175L27.8438 38.2682L28.416 39.2595L52.8262 25.1663L52.2539 24.175Z" fill="#9D9D9D"/>
<path d="M56.1674 26.4488L27.8438 42.8015L28.416 43.7927L56.7397 27.44L56.1674 26.4488Z" fill="#9D9D9D"/>
<path d="M56.1845 30.9757L31.7031 45.11L32.2754 46.1012L56.7567 31.9669L56.1845 30.9757Z" fill="#9D9D9D"/>
<path d="M56.1849 35.5104L35.6025 47.3934L35.7308 47.617H37.5036L56.7571 36.5004L56.1849 35.5104Z" fill="#9D9D9D"/>
<path d="M16.9219 1.04205H15.7773V20.1871H16.9219V1.04205Z" fill="#9D9D9D"/>
<path d="M20.8487 -1.25037H19.7041V22.4762H20.8487V-1.25037Z" fill="#9D9D9D"/>
<path d="M24.7754 -2.77979H23.6309V24.6863H24.7754V-2.77979Z" fill="#9D9D9D"/>
<path d="M28.7022 -2.77979H27.5576V26.936H28.7022V-2.77979Z" fill="#9D9D9D"/>
<path d="M32.6299 -2.77979H31.4854V24.6863H32.6299V-2.77979Z" fill="#9D9D9D"/>
<path d="M36.5577 -1.25037H35.4131V22.4762H36.5577V-1.25037Z" fill="#9D9D9D"/>
<path d="M40.4834 1.04205H39.3389V20.1871H40.4834V1.04205Z" fill="#9D9D9D"/>
<path d="M8.39993 -1.0235L-0.5 4.11715V5.43602L8.97221 -0.0302315L8.39993 -1.0235Z" fill="#9D9D9D"/>
<path d="M12.3138 1.25244L-0.5 8.64932V9.9715L12.8861 2.24242L12.3138 1.25244Z" fill="#9D9D9D"/>
<path d="M12.3335 5.77478L-0.5 13.1848V14.507L12.9058 6.76805L12.3335 5.77478Z" fill="#9D9D9D"/>
<path d="M12.3335 10.3104L-0.5 17.7204V19.0426L12.9058 11.3003L12.3335 10.3104Z" fill="#9D9D9D"/>
<path d="M12.3335 14.8457L-0.5 22.2557V23.5746L12.9058 15.8357L12.3335 14.8457Z" fill="#9D9D9D"/>
</g>
<defs>
<clipPath id="clip0_134_7769">
<rect width="70" height="36" fill="white"/>
</clipPath>
</defs>
</svg>
